<mxfile host="Electron" agent="Mozilla/5.0 (Windows NT 10.0; Win64; x64) AppleWebKit/537.36 (KHTML, like Gecko) draw.io/28.1.2 Chrome/138.0.7204.243 Electron/37.4.0 Safari/537.36" version="28.1.2">
  <diagram name="Page-1" id="FRz63t045Rxpfm_iafXo">
    <mxGraphModel dx="1042" dy="773" grid="1" gridSize="10" guides="1" tooltips="1" connect="1" arrows="1" fold="1" page="1" pageScale="1" pageWidth="850" pageHeight="1100" math="0" shadow="0">
      <root>
        <mxCell id="0" />
        <mxCell id="1" parent="0" />
        <mxCell id="O1VS4Q4OuIzS3x07TCWk-1" value="" style="shape=image;verticalLabelPosition=bottom;labelBackgroundColor=default;verticalAlign=top;aspect=fixed;imageAspect=0;editableCssRules=.*;image=data:image/svg+xml,PHN2ZyB4bWxuczp4bGluaz0iaHR0cDovL3d3dy53My5vcmcvMTk5OS94bGluayIgeG1sbnM9Imh0dHA6Ly93d3cudzMub3JnLzIwMDAvc3ZnIiBzdHlsZT0iY29sb3I6IHJnYigwLCAwLCAwKTsgZm9udC1zaXplOiBtZWRpdW07IGZvbnQtc3R5bGU6IG5vcm1hbDsgZm9udC12YXJpYW50LWxpZ2F0dXJlczogbm9ybWFsOyBmb250LXZhcmlhbnQtY2Fwczogbm9ybWFsOyBmb250LXdlaWdodDogNDAwOyBsZXR0ZXItc3BhY2luZzogbm9ybWFsOyBvcnBoYW5zOiAyOyB0ZXh0LWFsaWduOiBzdGFydDsgdGV4dC1pbmRlbnQ6IDBweDsgdGV4dC10cmFuc2Zvcm06IG5vbmU7IHdpZG93czogMjsgd29yZC1zcGFjaW5nOiAwcHg7IC13ZWJraXQtdGV4dC1zdHJva2Utd2lkdGg6IDBweDsgd2hpdGUtc3BhY2U6IG5vcm1hbDsgdGV4dC1kZWNvcmF0aW9uLXRoaWNrbmVzczogaW5pdGlhbDsgdGV4dC1kZWNvcmF0aW9uLXN0eWxlOiBpbml0aWFsOyB0ZXh0LWRlY29yYXRpb24tY29sb3I6IGluaXRpYWw7IiBvdmVyZmxvdz0iaGlkZGVuIiB4bWw6c3BhY2U9InByZXNlcnZlIiBoZWlnaHQ9IjM1NS41Njg5MDg2OTE0MDYyNSIgd2lkdGg9IjYyNC4wMDA0ODgyODEyNSIgdmlld0JveD0iMCAtMC4yODQ0NTU5ODQ4MzA4NTYzIDYyNC4wMDA0ODgyODEyNSAzNTUuNTY4OTA4NjkxNDA2MjUiPjxkZWZzPjxjbGlwUGF0aCBpZD0iY2xpcDAiPjxyZWN0IGhlaWdodD0iMzM4MTM3NSIgd2lkdGg9IjU5NDM2MDAiIHk9IjAiIHg9IjAiLz48L2NsaXBQYXRoPjxpbWFnZSBpZD0iaW1nMSIgcHJlc2VydmVBc3BlY3RSYXRpbz0ibm9uZSIgeGxpbms6aHJlZj0iZGF0YTppbWFnZS9qcGVnO2Jhc2U2NCwvOWovNEFBUVNrWkpSZ0FCQVFFQVlBQmdBQUQvMndCREFBTUNBZ01DQWdNREF3TUVBd01FQlFnRkJRUUVCUW9IQndZSURBb01EQXNLQ3dzTkRoSVFEUTRSRGdzTEVCWVFFUk1VRlJVVkRBOFhHQllVR0JJVUZSVC8yd0JEQVFNRUJBVUVCUWtGQlFrVURRc05GQlFVRkJRVUZCUVVGQlFVRkJRVUZCUVVGQlFVRkJRVUZCUVVGQlFVRkJRVUZCUVVGQlFVRkJRVUZCUVVGQlFVRkJUL3dBQVJDQUk3QStzREFTSUFBaEVCQXhFQi84UUFId0FBQVFVQkFRRUJBUUVBQUFBQUFBQUFBQUVDQXdRRkJnY0lDUW9MLzhRQXRSQUFBZ0VEQXdJRUF3VUZCQVFBQUFGOUFRSURBQVFSQlJJaE1VRUdFMUZoQnlKeEZES0JrYUVJSTBLeHdSVlMwZkFrTTJKeWdna0tGaGNZR1JvbEppY29LU28wTlRZM09EazZRMFJGUmtkSVNVcFRWRlZXVjFoWldtTmtaV1puYUdscWMzUjFkbmQ0ZVhxRGhJV0doNGlKaXBLVGxKV1dsNWlabXFLanBLV21wNmlwcXJLenRMVzJ0N2k1dXNMRHhNWEd4OGpKeXRMVDFOWFcxOWpaMnVIaTQrVGw1dWZvNmVyeDh2UDA5ZmIzK1BuNi84UUFId0VBQXdFQkFRRUJBUUVCQVFBQUFBQUFBQUVDQXdRRkJnY0lDUW9MLzhRQXRSRUFBZ0VDQkFRREJBY0ZCQVFBQVFKM0FBRUNBeEVFQlNFeEJoSkJVUWRoY1JNaU1vRUlGRUtSb2JIQkNTTXpVdkFWWW5MUkNoWWtOT0VsOFJjWUdSb21KeWdwS2pVMk56ZzVPa05FUlVaSFNFbEtVMVJWVmxkWVdWcGpaR1ZtWjJocGFuTjBkWFozZUhsNmdvT0VoWWFIaUltS2twT1VsWmFYbUptYW9xT2twYWFucUttcXNyTzB0YmEzdUxtNndzUEV4Y2JIeU1uSzB0UFUxZGJYMk5uYTR1UGs1ZWJuNk9ucTh2UDA5ZmIzK1BuNi85b0FEQU1CQUFJUkF4RUFQd0Q5VTYrUWZHWGdUdzE0bytNM3hPdXRaOFBhVnExMG1zV3NTelgxbEZNNm9OS3NDRkRNcElHU1RqM05mWDFmTHVxLzhsYStLSC9ZYnR2L0FFMDZmWFZoOUpQMC9WSExpTllxL2Y4QVJuTS84S2g4Q2Y4QVFsZUhmL0JWQi84QUVVZjhLaDhDZjlDVjRkLzhGVUgvQU1SWFcwVjI4ejduRnlyc2NsL3dxSHdKL3dCQ1Y0ZC84RlVIL3dBUlIvd3FId0ovMEpYaDMvd1ZRZjhBeEZkYlJSelB1SEt1eHlYL0FBcUh3Si8wSlhoMy93QUZVSC94RkgvQ29mQW4vUWxlSGY4QXdWUWYvRVYxdEZITSs0Y3E3SEpmOEtoOENmOEFRbGVIZi9CVkIvOEFFVWY4S2g4Q2Y5Q1Y0ZC84RlVIL0FNUlhXMFVjejdoeXJzY2wvd0FLaDhDZjlDVjRkLzhBQlZCLzhSUi93cUh3Si8wSlhoMy9BTUZVSC94RmRiUlJ6UHVIS3V4eVgvQ29mQW4vQUVKWGgzL3dWUWYvQUJGSC9Db2ZBbi9RbGVIZi9CVkIvd0RFVjF0RkhNKzRjcTdISmY4QUNvZkFuL1FsZUhmL0FBVlFmL0VVZjhLaDhDZjlDVjRkL3dEQlZCLzhSWFcwVWN6N2h5cnNjbC93cUh3Si93QkNWNGQvOEZVSC93QVJSL3dxSHdKLzBKWGgzL3dWUWY4QXhGZGJSUnpQdUhLdXh5WC9BQXFId0ovMEpYaDMvd0FGVUgveEZIL0NvZkFuL1FsZUhmOEF3VlFmL0VWMXRGSE0rNGNxN0hKZjhLaDhDZjhBUWxlSGYvQlZCLzhBRVVmOEtoOENmOUNWNGQvOEZVSC9BTVJYVzBVY3o3aHlyc2NsL3dBS2g4Q2Y5Q1Y0ZC84QUJWQi84UlZEVXZoejRUMEhVZkM5L3BuaGZSZE92b3ZFK2grWGMybW53eFNKblZMVlRobFVFWkJJK2hOZDVXTDRvNitIUCt4bjBMLzA2MnRITSs0Y3E3SDFyUlJSWGtIcmhSUlJRQVVVVVVBRmZPdmhENEkvRHI0bGZGcjQ0Nm40dThBZUYvRldwUStMYlcyanZOYjBhMnZKa2lIaC9TR0VZZVJHSVVNN25ibkdXSjdtdm9xdkt2ZzMvd0FsRitPMy9ZNTIzL3FQYU5RQWY4TW5mQkQvQUtJMzhQOEEvd0FKZXgvK05VZjhNbmZCRC9vamZ3Ly9BUENYc2Y4QTQxWHF0RkFIbFgvREozd1Evd0NpTi9EL0FQOEFDWHNmL2pWSC9ESjN3US82STM4UC93RHdsN0gvQU9OVjZyUlFCNVYvd3lkOEVQOEFvamZ3L3dEL0FBbDdILzQxUi93eWQ4RVAraU4vRC84QThKZXgvd0RqVmVxMFVBZVZmOE1uZkJEL0FLSTM4UDhBL3dBSmV4LytOVWY4TW5mQkQvb2pmdy8vQVBDWHNmOEE0MVhxdEZBSGxYL0RKM3dRL3dDaU4vRC9BUDhBQ1hzZi9qVkgvREozd1EvNkkzOFAvd0R3bDdIL0FPTlY2clJRQjVWL3d5ZDhFUDhBb2pmdy93RC9BQWw3SC80MVIvd3lkOEVQK2lOL0QvOEE4SmV4L3dEalZlcTBVQWVWZjhNbmZCRC9BS0kzOFA4QS93QUpleC8rTlVmOE1uZkJEL29qZncvL0FQQ1hzZjhBNDFYcXRGQUhsWC9ESjN3US93Q2lOL0QvQVA4QUNYc2YvalZIL0RKM3dRLzZJMzhQL3dEd2w3SC9BT05WNnJSUUI1Vi93eWQ4RVA4QW9qZncvd0QvQUFsN0gvNDFSL3d5ZDhFUCtpTi9ELzhBOEpleC93RGpWZXEwVUFlVmY4TW5mQkQvQUtJMzhQOEEvd0FKZXgvK05VZjhNbmZCRC9vamZ3Ly9BUENYc2Y4QTQxWHF0RkFIbFgvREozd1Evd0NpTi9EL0FQOEFDWHNmL2pWSC9ESjN3US82STM4UC93RHdsN0gvQU9OVjZyUlFCNVYvd3lkOEVQOEFvamZ3L3dEL0FBbDdILzQxUi93eWQ4RVAraU4vRC84QThKZXgvd0RqVmVxMFVBZUtmczVlRTlEOEQrS1BqWm9uaHZSdFA4UDZMYStNNGZJMDdTN1ZMYTNoM2FCbzd0c2pRQlZ5ek14d09TeFBVMTdYWGxYd2IvNUtMOGR2K3h6dHYvVWUwYXZWYUFDaWlpZ0Fvb29vQUtLS0tBQ2lpaWdEd2JTUGhiNE04Yi9FdjRyWDNpTHdqb092M3NmaUczZ1M1MVRUSWJtUll4byttc0VET3BJVUZtT09tV1ByWFJmOE0rZkMzL29tdmhEL0FNRU5yLzhBRzZtOEEvOEFJK2ZGci9zWm9QOEEwemFaWGMxelRiNWkxc2NCL3dBTStmQzMvb212aEQvd1Eydi9BTWJvL3dDR2ZQaGIvd0JFMThJZitDRzEvd0RqZGQvUlVjejdsV09BL3dDR2ZQaGIvd0JFMThJZitDRzEvd0RqZEgvRFBud3Qvd0NpYStFUC9CRGEvd0R4dXUvb281bjNDeHdIL0RQbnd0LzZKcjRRL3dEQkRhLy9BQnVqL2huejRXLzlFMThJZitDRzEvOEFqZGQvUlJ6UHVGamdQK0dmUGhiL0FORTE4SWYrQ0cxLytOMGY4TStmQzMvb212aEQvd0FFTnIvOGJydjZLT1o5d3NjQi93QU0rZkMzL29tdmhEL3dRMnYvQU1iby93Q0dmUGhiL3dCRTE4SWYrQ0cxL3dEamRkL1JSelB1RmpnUCtHZlBoYi8wVFh3aC93Q0NHMS8rTjBmOE0rZkMzL29tdmhEL0FNRU5yLzhBRzY3K2lqbWZjTEhBZjhNK2ZDMy9BS0pyNFEvOEVOci9BUEc2UCtHZlBoYi9BTkUxOElmK0NHMS8rTjEzOUZITSs0V09BLzRaOCtGdi9STmZDSC9naHRmL0FJM1Ivd0FNK2ZDMy9vbXZoRC93UTJ2L0FNYnJ2NktPWjl3c2NCL3d6NThMZitpYStFUC9BQVEydi94dWovaG56NFcvOUUxOElmOEFnaHRmL2pkZC9SUnpQdUZqZ1A4QWhuejRXLzhBUk5mQ0gvZ2h0ZjhBNDNSL3d6NThMZjhBb212aEQvd1EydjhBOGJydjZLT1o5d3NjQi93ejU4TGYraWErRVA4QXdRMnYvd0Fiby80WjgrRnYvUk5mQ0gvZ2h0Zi9BSTNYZjBVY3o3aFk0RC9obno0Vy93RFJOZkNIL2dodGYvamRKOEIvRCtsZUZkWStLV2w2THBsbm8rbVFlS0kvSnNyQ0JJSVk5MmthYXpiVVFCUmxtSk9CeVNUWG9GY2Y4SmYrUnUrTFAvWTBRLzhBcG0weXRhYmQyVEk5SW9vb3JjZ0tLS0tBQ2lpaWdBcnhyOXBEUXROOFN6ZkRQVGRYMCsxMVhUcHZGRCtiYVgwQ3pReVkwblVXRzVHQkJ3d0JHUjFBTmV5MTVSOGR2K1F6OExmK3hvay85TStwVnRSL2lSOVVaVmY0Y3ZRNHYvaFJmdzIvNko3NFYvOEFCTGJmL0VVZjhLTCtHMy9SUGZDdi9nbHR2L2lLN2lpdnBlV1BZK2U1cGR6aC93RGhSZncyL3dDaWUrRmYvQkxiZi9FVWY4S0wrRzMvQUVUM3dyLzRKYmIvQU9JcnVLS09XUFlPYVhjNGYvaFJmdzIvNko3NFYvOEFCTGJmL0VVZjhLTCtHMy9SUGZDdi9nbHR2L2lLN2lpamxqMkRtbDNPSC80VVg4TnYraWUrRmY4QXdTMjMvd0FSUi93b3Y0YmY5RTk4Sy84QWdsdHYvaUs3aWlqbGoyRG1sM09IL3dDRkYvRGIvb252aFgvd1MyMy9BTVJSL3dBS0wrRzMvUlBmQ3Y4QTRKYmIvd0NJcnVLS09XUFlPYVhjNGY4QTRVWDhOdjhBb252aFgvd1MyMy94RkgvQ2kvaHQvd0JFOThLLytDVzIvd0RpSzdpaWpsajJEbWwzT0gvNFVYOE52K2llK0ZmL0FBUzIzL3hGSC9DaS9odC8wVDN3ci80SmJiLzRpdTRvbzVZOWc1cGR6aC8rRkYvRGIvb252aFgvQU1FdHQvOEFFVWY4S0wrRzMvUlBmQ3YvQUlKYmIvNGl1NG9vNVk5ZzVwZHpoLzhBaFJmdzIvNko3NFYvOEV0dC93REVVZjhBQ2kvaHQvMFQzd3IvQU9DVzIvOEFpSzdpaWpsajJEbWwzT0gvQU9GRi9EYi9BS0o3NFYvOEV0dC84UlIvd292NGJmOEFSUGZDdi9nbHR2OEE0aXU0b281WTlnNXBkemgvK0ZGL0RiL29udmhYL3dBRXR0LzhSUi93b3Y0YmY5RTk4Sy8rQ1cyLytJcnVLS09XUFlPYVhjNGYvaFJmdzIvNko3NFYvd0RCTGJmL0FCRkgvQ2kvaHQvMFQzd3Ivd0NDVzIvK0lydUtLT1dQWU9hWGM4NXR2aHY0UzhIL0FCWStGbDdvUGhiUmRFdkpOZHVZWHVOTjArRzNrWkRwR29rb1dSUVN1VlU0NlpBOUsrbWE4SjFyL2twWHdvLzdHRzQvOU0rcFY3dFhoWXhKVmREMnNJMjZlb1Y4dTZyL0FNbGErS0gvQUdHN2IvMDA2ZlgxRlh5N3F2OEF5VnI0b2Y4QVlidHYvVFRwOVo0ZjRuNmZxaXNSOEs5ZjBaUFJSUlhXY2dVVVVVQUZGRkZBQlJSUlFBVVZGZHNZN1dabE9HVkdJUDRWOFkvQzM0bmVLZnN2d2ExVi9FZmppZWJ4QmQyMEd0UytJckZQN0ZsU1dGOHJGTjVRS3UwdmxpTERmTVRnOWFseTVTbEhtUHRPaXZsRFVQR1hpanc5NG12N3p4WDRwOFZlQzlaZnhCc3M1Ynl4VzU4TFRXUDJvTERENWtjYkJESkRnRjVHUnhJYzVBNHJKMXJ4eDRydjc3NGpOb0hpZng3Y2VOdE84UVhscG9ta2FicERYT2tzcUZmS2lsa2EyTVNxY2tNV2xVcU1IampNODQrUm4yTFJVZHUwclFSbVpWU1lxTjZvY3FHeHlBZTR6VWxhRUJSUlJRQVVVVVVBRkZGRkFCV0w0bzYrSFA4QXNaOUMvd0RUcmExdFZpK0tPdmh6L3NaOUMvOEFUcmEweEgxclJSUlhrbnJCUlJSUUFVVVVVQUZlVmZCdi9rb3Z4Mi83SE8yLzlSN1JxOVZyeXI0Ti93REpSZmp0L3dCam5iZitvOW8xQUdOKzBsNHU4UTIrcmZEYndGNFoxdVR3dGZlT2RiazArNDhRUXhJODFsYXdXazExTUlONEtDYVFRaU5XWU1CdUp3U0JYblBqVHg1NGcvWkgrSUJodWZGV3RmRVR3aHFIaERYZGZHbCtJTGlPUyt0TG5TNFk1eVk3bFl3ZkttU1JrS3VHMnVGSU9DVnIzejR0L0NIUnZqRm9OallhcGNYK21YbW0zc2VwNlhyR2t6aUc5MDY3UUVMTkM1Vmx6dFpsS3NyS3dZZ3FRYTRaZjJVZEgxZXo4V1A0djhYZUpmRyt1K0l2RDkxNFlrMXZWWkxhT2F4MCs0UXJMSGF4d1FSd3hsaVF4Y3hzekZGeVNBRm9BNWZVL3dCcVR4cHFHbXkyV2xmQ202UGlCZkRyK0piNnhiWElGbDA2d2tNaTJyRWhDcjNNaGlsSWhCQUhsbk1uTmViNkovd1VKMHp3SDhOZkIxdnJuOW5hNXJPbStCOUYxM3hKZGFwNGl0ZE92Ym1TNXNrblpiSzJrRzY4bks1a0tBb1AzaUtHTE50cjN2eDkrekRwUGpiV2JiVkxQeFg0bDhKM2gwUmZEZW95YUhQQXAxUFRsTEZZWnZOaGZhVkx5WWtqMk9QTWZCNUdNT1A5alhROUl0Ykd6OE4rTi9HUGhTeEdoNmQ0ZjFTSFNieTNSdFh0YktIeVlHbGtNQmVLWHkva2FTM01URmVPTUFnQTZmNFovSFMrK0tIeEs4WGFEcHZoT1NMd3g0ZG1qdG44VFMzNmJMbVdTMHRybU5JNE51L095NCtZa2dMaE1GaXhDK2UrRzlOOFUvdEllT1BpZmZUZkVmeEg0TDBUd3pyODNoalI5SjhMVFF3R09TM2lpYVc3dVdlTnpLN3ZLZHFIQ0JGWGdsczE3bDRKK0crbWVBdFY4VzMrblRYVWt2aVhWRjFhN1M1a1ZsamxXMXQ3VUxIaFFRdXkyalB6Rmp1TEhPQ0FPRjhTZnMxUTMzakxYdkVmaFh4NTRzK0hkejRpWkgxdTI4T3kyaGd2cEZqRVluMlhGdkw1VTJ4VlV5UmJTUW9KeWVhQVBMdmhSKzFuNHJ1dFA4SCtHZFU4T3grTWZFVXNtdTIrcStJclc2anNiUmJmU2RRanRKcjRwdGI1WFNRUHRUUHo0VUFCdHl3L0VqOXA3eHpybjdPbmlUeG5wM2diVWZDZWo2aDRjZlhmRGZpSzExR082bWFMZkNZbHVJZ2crenl5eHk3MFVOSXVBUVdEY1Y3ZDROL1oyOEhlQU5UOEszV2gyOXphUWVITkV2ZEN0TEpwUkpETERkendUenlURmdYa2xhUzNWaXhia3ZJU0NTQ09Mcy8yTWZEa2ZoTzg4TDNuakR4aHFmaHorekpORjB2VGJxOXQvSzBlemVTTnpIYmhZQnZJOHBFVjUvTlpVRzBFWk9RREg4VWZ0blNmREt6OFhSZkVEd1V2aGJYZEhYU1pMT3gvdHlDYTN2VTFHYWFDQXZjc3FKYjdIZ2w4MHRsVVZTd1p4V1N2N2ZtaXllQzlTMU9QUzlIdXRTMDdYTGJSTHVlejhUUTNPZ3dHNHQzbml1Wk5VampaVWdPeG95elJBckpoU3ZJTmVyZkVqOW1yd3o4VHRlMXZXOVF2OVdzdFcxSzAwdTNpdXJDZU5Ic0pkUHVacm0xdWJmTVp4S3NsdytkKzVTQUJ0eG5OVC9obks1T2dQQzN4UDhiU2VKWDFJYW8zaVI3cTJNeFlRbUR5UHMza2ZaZnMreGptTHljRnZuKytBMUFIbkVuN1VYaktieDk0YTFDUHc1WXhlRDUvQVd1ZUpMNnhpMW1DNUx6V1Z4QWdlR2VLTjFrVERBSVZjQmx1U3pLclJiRGM4U2Z0bGFwNFQ4QytHZkVtdCtCdE04TWp4QmFTNmxhVy9pVHhmYTJPNjJWSW1qUlNVWm51cEJJMklFVWdiUG1kU2NEcUxEOWp2d25wT242VGFXT3Q2L1ppejAzVzlLdXBJcExZSFVZZFZrRTEzNXErUnNRK2NGa1R5VmpDbFFNRk1yV2o0by9aZTBmeEJxZmgzVUxMeFI0aThPWGVrYUQvQU1JeEpOcGNscjVsN3BwS0ZvWGFXQnpHeEtETWtQbHZ5Y0VjWUFQSFBGWDdVbmlUV3RjMW5VTFMydTdMNGVYUGdid3o0bTA2VFQ3NktEVVkydjc1MERuZmJ1QVdBOHRrSllCWWNxY3luYjZOSisxWmVMcmM5K3ZnZVZ2aHZCNG9Yd2cvaWs2bWduTjZib1daa1d6OHZtM0Z5UkVaUE0zZnhCQ09hV0g5aS93eEhvZW02UzNpanhOSloyZmh1dzhMT3BsdEFibXpzYm8zTm41bUxmaDRpekp1VGJ1Vmp1RE5ocTE0ZjJWZEV0L0dMNm1uaWJ4Q1BEYmVJUDhBaEtqNE9NbHVkTS90VHpQTzg4RXcrZUI1Mzc3eXhMczh6RFk0eFFCaGZELzlxN1Z2R1BpRHdhdC84UFp0RThLK0xOWDFEUXROMXB0V2pta04zYUM1WTc3Y1JnckU0czV0cjdpY2daVUFoaTc0NC9HYlZQaFA4WWt2Tjg5NzRlMG40YitJL0UxMW8wY2dqVzdtczViTmsrWWc3VzJ0SW9QSUc4OEd1MzBYOW5udzVvZWsrQmRQZ3ZkVWVId2RyZDFyMWcwa3NaYVc0dUZ1MWRaY1JqS0FYMHVBb1UvS21TY0hNbnhRK0FQaDc0dGFwZlgrcjNtcDIwMTU0VzFUd2pJdGxMR3FpMHYvQUN2T2NibzIvZXI1SzdUOTBaT1ZiakFCNGI4VnYydFBpSHBQZzNXb0xMd0ZINFU4VERUOUwxM1RIdXRZaXVWa3NMaStpdDVCSUJDVmptVXVxRkJ2WEVtNE9kdURwZUx2Mi9QRG5nMzRnYXA0ZXY3SFNJNE5EMUcwMGpWMms4VFcwV29MZFRDTGViU3hjQ1M2aGlNeWg1TW9Uc2sycTIwMTZoOFF2MlovRFh4SUZ5MTlxV3NXYzAyZ1JlSGttczVvbE1VVWR6SGN4ekx1alllYXNrU0hKeXBBSUsxUWsvWmVzMThXWHVyV25qcnhkcG1uNnJmVytxNjFvbGhjMjhGdHF0N0NrYWVmSXl3Q1dNeUNHUHpFaGtqUjl2S2dFZ2dHRmIvdFlhaGU2NW9rOXA0QXVaL0EydCtLMzhJMkhpUWFuR0hlNGpubGdrbWUyMlpTSHpJSlZWdHhMRlJsVTNDc2kxL2JLMVNiNFgyUGptODhDV0hodlJ0VTFCckhUcnp4TjRydGRQdFdWUE9FazAwcklURWhlRUxHcXE3dVhCMnFCbXVjdC8yYi9HRTN4ZTBHQzNzZFcwVHdObzNqU2Z4V3NQOEFiOXZQcEIzUFBMdmd0eENMb1RTU1NndEZJL2t4NzVDbVRpdlZyejlsWFF4NFk4QjZYby9pYnhCNGZ2dkJNMXhOcEd0V2h0SnJwUHRBZFpsWlo3ZVNGc3JJUUc4c011QVFldVFEeVBXUDJ1UEVYamMrQ2RiOE9hZDlpOEZhMTRROFY2anFLMitveEM3UzQwMldLQm5na01EZytXMjd5Mis3SjUrNWxIbGdOMVYxKzF4cUdpK0g5WDFQU3ZCRjc0bDhLZUM5S3NidnhUcmx6cTBjVjFDWmJPSzZkWVlmS3hjeVJ3U3BJNTNSREpJWEo0cmNzZjJNZkRPbjZIcGVsUmVLL0ZSdDlPVFhyZUtTUzR0cEpYdGRYWVBlVzd1MXVTNithQklybjk0RzRMbGZscVhXUDJPZkRtcHozOEZ2NHA4UzZYNGUxbTBzclB4QjRmdFpiWTJtdHBheFJ3eG1ZdkEwaUZvb280NURDMGU5VndjYzBBWjkzKzFycVVIaUxVMmkrSDhzL2dyUy9GdHA0UnZmRVg5clJxNnpYTDI2UlRSMnhqeThZYTZoRC9NcEc3NVErRGo2TnJ5N1VQMmVQRG1wYUw0ZzB1UzgxUmJmVy9GTnI0dXVHU1dNTWwzQk5heklpZnU4Q0l0WnhBZ2d0aG53d3lDUFVhQVBLdmczL3dBbEYrTzMvWTUyMy9xUGFOWHF0Zk92aERWdmlMWS9GcjQ0eCtFZkN2aGZYTk5QaTIxYVM0MXZ4TGM2Yk1zdi9DUDZSbEJISHA5d0N1MElkMjhFa2tiUmdFOXIvd0FKSjhiL0FQb25udy8vQVBDOHZ2OEE1VFVBZXEwVjVWL3drbnh2L3dDaWVmRC9BUDhBQzh2di9sTlIvd0FKSjhiL0FQb25udy8vQVBDOHZ2OEE1VFVBZXEwVjVWL3drbnh2L3dDaWVmRC9BUDhBQzh2di9sTlIvd0FKSjhiL0FQb25udy8vQVBDOHZ2OEE1VFVBZXEwVjVWL3drbnh2L3dDaWVmRC9BUDhBQzh2di9sTlIvd0FKSjhiL0FQb25udy8vQVBDOHZ2OEE1VFVBZXEwVjVWL3drbnh2L3dDaWVmRC9BUDhBQzh2di9sTlIvd0FKSjhiL0FQb25udy8vQVBDOHZ2OEE1VFVBU2VBZitSOCtMWC9ZelFmK21iVEs3bXZML2d0ZGE3ZWEvd0RGS1h4THB1bmFUckxlSjR2T3ROSzFDUyt0MEg5a2FidDJ6U1FRczJWd1RtTmNFa2M0eWZVSzVaL0V6UmJCUlJSVURDaWlpZ0Fvb3JtdmlacU56by93NDhWMzluTTF2ZVd1azNjOE15ZFVkWVhaV0h1Q0FhQU9sb3I0OC9abitOM2liOXBEeFg0WXRMdld0UjhMYVQ0WjhPNmRxaytuM1Z1MXZxSGl1YVdMWTE2eGRSL29LeW80QWo1a1lnc1ZVcXJidG4rMmxKNGwxcld2RFdtNkhwTVd2blI5VHY4QVRZYmJ4TGIzMDhFbG9GSml2NDRrWVdzakI5d1hkSjl3ZzROVnlzRDZtb3I0WCtCLzdUL2lUd3JybWdlRmZGRjVkK0xmRzNpend2NGR2TkUwVzYxQ01DZTV1VzFLZTh1V3VQS1JZb3hFa0xGUWhLaFVqUlhJeWZZOWEvYTdzZkR2eG9zdkFtb2FWcGtLM2VzdzZIR1U4UTI4bXFlYkttVW5PbnFwZGJjdVF2bU02dHlEc3hTNVdGejZGb3J3NzlxYTg4WlcrbStFWS9EcWVKaDRkazFSajRrbThFckUrc3JhTEJJWXhBamdrcVp2SzNtTUdRS01MMU5lVGFMOGN2RittNlg0ZHR2Q0hpcVR4N2FYUHhBdDlFblR4UGJ0cG1zYWRhU1dwa05qZVJ5V3dZdnZWMkV1eFNWQzh0a21pd0gyVlJYeXRmZnR5alN2QzlucmVwK0RyWFFMWFdkYW4wUFFaOWQ4UjI5bGJYa2x1OXl0MVBQTTZZdG9FK3pnS3hEUEkwZ1ZVNkZyL3dEdzIzcFY5OE85SThTNmJwK2hnM1dwM21rM1UycmVLN1N6MHkzbnRpTndqdmNPTGp6QXl0RjVjWjNBL05zd2FPVmdmVFZGZkwxMSsydGQ2bG9PbGFyNFUrSGQxcjhGejRNUGphNiswYXBIYUMxdGtrYU9hSE94ZzhvS0hZQncrRHlvR2E3L0FPRHZ4ODFENGxlS3BkRTFqd2RONFRtdU5EdGZFbW1HUy9TNmE0c1ozZEY4MVZVZVRNcFFib3dYQTNERG5Cb3N3UFlxS0tLUUJSUlJRQVVVVVVBRmNmOEFDWC9rYnZpei93QmpSRC82WnRNcnNLOFk4TTZ0OFI3SDRoL0ZXUHdsNFU4TGEzcGg4Ulc3UGNhMTRtdWRPbUV2OWo2YmxSRkhwOXdwVURhZDI4RWtrYlJqSjFwN3NtUjcvUlhsWC9DU2ZHLy9BS0o1OFA4QS93QUx5Ky8rVTFIL0FBa254djhBK2llZkQvOEE4THkrL3dEbE5YUVFlcTBWNVYvd2tueHYvd0NpZWZEL0FQOEFDOHZ2L2xOUi93QUpKOGIvQVBvbm53Ly9BUEM4dnY4QTVUVUFlcTBWNVYvd2tueHYvd0NpZWZEL0FQOEFDOHZ2L2xOUi93QUpKOGIvQVBvbm53Ly9BUEM4dnY4QTVUVUFlcTE1UjhkditRejhMZjhBc2FKUC9UUHFWTy80U1Q0My93RFJQUGgvL3dDRjVmZi9BQ21yaC9pRnEzeEh2dkYzd3dqOFcrRlBDMmlhWVBFVXpKY2FMNG11ZFJtTXY5azZqaFRGSnA5dW9VamNkMjhrRUFiVG5JMm8vd0FXUHFqS3QvRGw2SGRVVVVWOU9mT0JSUlJRQVVVVVVBRkZGRkFCUlJSUUFVVjhoZUV2Mm1iblZ2MnNwTE52R0dtM1hnelZkUnZmQ1ZsNGRqdW9qY1d0MWF4UnVsNHlBNzlzMHEza1FKR09JdXU0VjdYK3p4NG4xVHhYNFY4U1hPcjNzbDlQYitMTmNzWW5reGxJSWRRbWppakdPeW9xcVBZVmxHb3BPeU5aVTNGWFo2bFJYdzM4SmYyZy9IbDkrelg0aDB2Vk5ha3Z2aVRlM0ZuYTZCcVVpcjVqeGFtZGx2UGpHRDVESmVaNHhpMXFwNFkrSyt0ZUtOUzhDUWVKL0hYeEFzSWJ2NFo2UnJMZjhJYnBrbDdOY1gwMDkwc3NzcXhXcytDVmpRRGNGVWtWSHQ0NmVaZnNaYW4zZlJYbjN3QnZ2R0dwZkNQdy9jZVBFbVh4UXlTaTVhNWdTQ1owRXppRjVZMEcyT1JvaEd6S09BeElyMEd0MDdxNWcxWjJDaWlpbUlLS0tLQUNpaWlnQW9vb29BNXpXdjhBa3BYd28vN0dHNC85TStwVjd0WGhPdGY4bEsrRkgvWXczSC9wbjFLdmRxOEhHL3hUMjhIL0FBZ3I1ZDFYL2tyWHhRLzdEZHQvNmFkUHI2aXI1ZDFYL2tyWHhRLzdEZHQvNmFkUHJMRC9BQlAwL1ZGNGo0VjYvb3llaWlpdXM1QW9vb29BS0tLS0FDaWlpZ0Jzc1ltaWVOc2dNQ3B4NzE0NzRZL1pqMHJ3OVorR3ROdXZHSGlyWDlCOE95UVRhZm91cFhOc0xWSGhJTUpjUTI4YlNiR1ZXQWRpTXFDUWE5a29wV1RIZG84ZmsvWnIweVMxdXRGUGlqeENQQk56ZHRlUDRURWx2OWozTk41elJpVHlmUEVSZko4c1M0NUk2Y1YzL2c3d1BZK0NmN2Ird3kzRXY5cjZwUHEwL3dCb1pXMnl5N2R5cmhSaFJ0R0FjbjNOZERSUlpJTHRoUlJSVEVGRkZGQUJSUlJRQVVVVVVBRll2aWpyNGMvN0dmUXYvVHJhMXRWaStLT3Zoei9zWjlDLzlPdHJURWZXdEZGRmVTZXNGRkZGQUJSUlJRQVY1VjhHL3dEa292eDIvd0N4enR2L0FGSHRHcjFXdkt2ZzMveVVYNDdmOWpuYmYrbzlvMUFIcXRGRkZBQlJSUlFBVVVVVUFGRkZGQUhtMzdSbDE0MHMvZzE0aWY0ZlF6eitLeXNLV3kyWmlGeUkybWpFN1FlZCs3TXdoTXBRUHdYQy9Tdm52d2IrMFhvL3dmWHgxcXVyZU9mR21xYU5vUGg1TlJ1UEJ2eEIweHJYWG9MZ1hBaUUwTTBrVVN5d1N0TEhHVHVkRWNxUXlxMksrbi9pcDhNZEorTDNnMmZ3N3JFdDVhd3RQQmVXOTdwMDNrM1ZuY3dTckxCUEMrRHRkSkVWaGtFY1lJSUpGZWNYZjdKT2llS290Yms4ZWVLL0Vuai9BRlRVOUhmUWwxSFZKTGEya3NiVnBVbUl0MHRZSVVSL01oaGZ6R1ZtM1JMemppZ0RnZFAvQUcvTk92ZEYxLzdQNGMwN3hENGkwdWZSMFRUZkNYaWUxMWEzdWsxQzhGcEdxWFNLcUxNai9laWNLT1VJY3EyNGRwSCsxTmQyVVdxNlRyWGd4dE04ZVdYaUhTZkQ2ZUhJdFRXZGJocitPT1dPZEp4R0FZMFEzTE1kdi9McEwrR3ZhL3N5MjExWXpKNG04ZWVMdkdON0pxV2xhaXQ1cWx6YklZdjdQdWx1YmVKSW9ZRWhWV2tUOTR3VHpIQk9YNFhiMEdzZkFMd3Rybnh3MFA0cTNJdlArRWwwaXdhd2hoU1lDMGtCRW9TYVNQYmxwWTF1TGhFYkl3czhnd2M4QUhrdmdqOXBqVzlTMGZSOUQ4SGVFZFM4ZStJbXM5UzFtK1RXZGFodHBJTE9MVXJpMVFDVllOc2tqdkZJc2NleFFGand6Z2pjYy94OS93QUZDdkN2Z0h4WHF1blh1bldOclphRUxNYTFIcTJ2MjFqcXNUenh4eXNsdHA3L0FEM0poU1ZmTXd5Y3E2cnZLa1YzY243SWVoV2RucFVXZ2VNUEZuaGE2c3JhK3NKdFEwbTV0bHVMMjB1N3A3cVdDVXZBeWdMSkk1UjBDdW1UaHNrbXA3cjlsSFJvdkVWMWU2SjR2OFYrRjlHMUY3T1RWdEEwaTlpUzIxRjdhS09LTm5sYUpwNHkwY01TUDVVcWJ3Z3p6a2tBcCtHZjJxRjhVZkhpL3dEaDFCNGZ0SVBzZW9YR216TlBya01XcUlZbzJmN1VkT2RWZHJWOEFMTkc3azdsSlFESkh2bGVPdCt6VHB0MThTdE84VmFqNHM4UjZ0WjZYcTAydTZaNGZ2cExlUzFzcnlWSkVkbzVmSiswK1hpWnlzSm04dFNmdTRBQTlpb0FLS0tLQUNpaWlnQW9vb29BS0tLS0FQblh3aDhFZmgxOFN2aTE4Y2RUOFhlQVBDL2lyVW9mRnRyYlIzbXQ2TmJYa3lSRHcvcERDTVBJakVLR2R6dHpqTEU5elhhLzhNbmZCRC9vamZ3Ly93RENYc2YvQUkxUjhHLytTaS9IYi9zYzdiLzFIdEdyMVdnRHlyL2hrNzRJZjlFYitILy9BSVM5ai84QUdxUCtHVHZnaC8wUnY0Zi9BUGhMMlA4QThhcjFXaWdEeXIvaGs3NElmOUViK0gvL0FJUzlqLzhBR3FQK0dUdmdoLzBSdjRmL0FQaEwyUDhBOGFyMVdpZ0R5ci9oazc0SWY5RWIrSC8vQUlTOWovOEFHcVArR1R2Z2gvMFJ2NGYvQVBoTDJQOEE4YXIxV2lnRHlyL2hrNzRJZjlFYitILy9BSVM5ai84QUdxUCtHVHZnaC8wUnY0Zi9BUGhMMlA4QThhcjFXaWdEeGY0TGVFZEM4QzYvOFV0RjhOYUxwM2g3UnJmeFBFWWRPMHEwanRyZUl0cEdtczIyT01CUmxtSk9CeVNUWHFGY040Qi81SHo0dGY4QVl6UWYrbWJUSzdtdVdmeE0wV3dVVVVWQXdvb29vQUt6dkVlaHdlSi9EMnFhTmRQSkhhNmhheTJrcndrQjFTUkNqRlNRUm5CT01nMW8wVUFlV1hQN092aHVVZkRlVzN2ZFYwN1VmQWR1bGxwMnBXYzBhWEZ6WmlFUXlXdHlUR1ZraWtWVkxBQlNHVU1oUWpOY2g0Vi9ZMTBQd28zaHhJZkd2aXU2c1BEbGxkNlhwV256dlpDQzJzYm1MeTVZTUphcVg2STNtdVdrekd1WElMQnZvS2luZGdlSVhuN0lmZ3U4MFc0MDlyM1dvNVRwT2lhVmE2aEhQRXQxWUhTbWxhenVyZC9LK1NjTk14WmlDcllBMmdiZ2FWeCt5RHBFbXR6WHNIamZ4WFoyamVKRjhXeDZaYnZaQ0NQVlBORWp6a20yTWtnWWhoNWNqc2k3enRWY0p0OThvb3V3T0ErS1h3ZnRmaVpkYURxa091YXQ0VjhTNkJMTExwbXVhTTBYbndDVkFrc2JKTkhKSEpHNEM1VjBQS3FSZ2pOY3F2N0xXaXRheXp6K0tQRWQxNG51TmV0UEVkeDRubWx0amV6WFZ0RUlZZ1VFQWdXTVJaVFlzUUdHSjY4MTdUUlJjRHgyKy9aazBKdkJ2aHJSZEsxN1hOQzFIdzFxZDFxK2o2L1p5UU5lMnM5eTg3VEREeE5FOGJDNGtRbzBaQlhIY2JxcVhYN0xkbE0vaGkrZzhkK0w3YnhKb2YyNVI0aU56YlhGNWRMZVBHOXlyK2RBOGNZSmlqQytTa2V3TGhjQ3ZiYUtMc0R4UHdmK3lkNFg4RytIYnZSb05aMTY4dFovRGR4NFVWcnFhQXZGWXl6U3lnS3dpR1pFODVsRHR1eUZHNE1jazlwNGIrRVdqK0Z2RjFsNGl0TG0ra3ZiVHc5YitHa2pta1F4bTJoa01pT1FFQjh3bGprNXhqK0VWM0ZGSzRCUlJSUUFVVVVVQUZGRkZBQlhqSGhuNEhmRGo0a2ZFUDRxNnA0dCtIL2hieFRxY2ZpSzN0MHZkYTBXMnZKbGlHajZhUWdlUkdZS0N6SEdjWlkrdGV6MXgvd2wvd0NSdStMUC9ZMFEvd0RwbTB5dGFlN0prVXYrR1R2Z2gvMFJ2NGYvQVBoTDJQOEE4YW8vNFpPK0NIL1JHL2gvL3dDRXZZLy9BQnF2VmFLNkNEeXIvaGs3NElmOUViK0gvd0Q0UzlqL0FQR3FQK0dUdmdoLzBSdjRmLzhBaEwyUC93QWFyMVdpZ0R5ci9oazc0SWY5RWIrSC93RDRTOWovQVBHcVArR1R2Z2gvMFJ2NGYvOEFoTDJQL3dBYXIxV2lnRHlyL2hrNzRJZjlFYitIL3dENFM5ai9BUEdxNGY0aGZBNzRjZkRmeGQ4TU5VOEpmRC93dDRXMU9UeEZOYnZlNkxvdHRaek5FZEoxRWxDOGFLeFVsVk9NNHlvOUsramE4bytPMy9JWitGdi9BR05Fbi9wbjFLdHFQOFdQcWpLdC9EbDZFbEZGRmZUbnpnVVVVVUFGRkZGQUJSUlJRQVZGZHdOZFdzMEt6U1d6U0l5Q2FIRytNa1kzTGtFWkhVWkJIdFV0RkFIbGJmczIrRUYrRjJnK0I3Y1hsbmJhSkpaM0ZucTBEUmpVRnVMYVpKbG5NcGpJTWpPaExuYmc3MjRHZUsvaG45bmx2QjJ2WFY5by93QVJ2R1ZscDExck54cmMyaHErbnRaUExQY05QTkh6YUdYeTJabUdCSnV3ZUdCNXIxeWlvNUk5aStlWGM4WjhQL3NvK0MvRHV0K0E5VmdtMVNlODhHNmZOcDFnWjU0eXN5T0pBcnpxSXdIZU1UejdDTm9Yem40T2VOMzRhL0FYdy84QUN2VXRNdnRKdk5TdUpkUDhOV1hoV0pieVdObE5yYlNTeVJ1MjJOZjNoTXpiaU1LUUJoUnpuMG1paFFpdGtEbko3c0tLS0tzZ0tLS0tBQ2lpaWdBb29vb0FLS0tLQU9jMXIva3BYd28vN0dHNC93RFRQcVZlN1Y0VHJYL0pTdmhSL3dCakRjZittZlVxOTJyd2NiL0ZQYndmOElLK1hkVi81SzE4VVA4QXNOMjMvcHAwK3ZxS3ZuN3hWOEpmSDUrSW5pL1Y5RXMvRGQ5cGV0WDBONUMyb2F4Y1dzeWJiSzJ0MlZrUzBsWDcwQklJYm93NEZZVUdrM2ZzYTEwMmxidVl0RlhmK0ZZL0ZYL29DK0QvQVB3cEx2OEErVjlIL0NzZmlyLzBCZkIvL2hTWGYveXZycjVvOXprNVpkaWxSVjMvQUlWajhWZitnTDRQL3dEQ2t1Ly9BSlgwZjhLeCtLdi9BRUJmQi84QTRVbDMvd0RLK2ptajNEbGwyS1ZGWGY4QWhXUHhWLzZBdmcvL0FNS1M3LzhBbGZSL3dySDRxLzhBUUY4SC93RGhTWGYvQU1yNk9hUGNPV1hZcFVWZC93Q0ZZL0ZYL29DK0QvOEF3cEx2L3dDVjlIL0NzZmlyL3dCQVh3Zi9BT0ZKZC84QXl2bzVvOXc1WmRpbFJWMy9BSVZqOFZmK2dMNFAvd0RDa3UvL0FKWDBmOEt4K0t2L0FFQmZCLzhBNFVsMy93REsram1qM0RsbDJLVkZYZjhBaFdQeFYvNkF2Zy8vQU1LUzcvOEFsZlIvd3JINHEvOEFRRjhIL3dEaFNYZi9BTXI2T2FQY09XWFlwVVZkL3dDRlkvRlgvb0MrRC84QXdwTHYvd0NWOUgvQ3NmaXIvd0JBWHdmL0FPRkpkLzhBeXZvNW85dzVaZGlsUlYzL0FJVmo4VmYrZ0w0UC93RENrdS8vQUpYMGY4S3grS3YvQUVCZkIvOEE0VWwzL3dESytqbWozRGxsMktWRlhmOEFoV1B4Vi82QXZnLy9BTUtTNy84QWxmUi93ckg0cS84QVFGOEgvd0RoU1hmL0FNcjZPYVBjT1dYWXBVVmQvd0NGWS9GWC9vQytELzhBd3BMdi93Q1Y5SC9Dc2Zpci93QkFYd2YvQU9GSmQvOEF5dm81bzl3NVpkaWxXTDRvNitIUCt4bjBMLzA2MnRkUC93QUt4K0t2L1FGOEgvOEFoU1hmL3dBcjZpZjROL0VyVnRRMFJML1QvQ3RsWTJ1c2FkcUU4MXZybHpQS0k3ZThodUdDSWJKQXpFUkVETEFaUFdqbmozRGxsMlBwT2lpaXZNUFRDaWlpZ0Fvb29vQUs4cStEZi9KUmZqdC8yT2R0L3dDbzlvMWVxMTRwYmVIL0FJcCtCL2lCOFJiL0FNTitHdkIvaURSZkUydFFhdkJOcW5paTYwNjRoMjZaWTJiUnZFbW5Ucjk2elpnd2s1RGpnRVVBZTEwVjVWL3drbnh2L3dDaWVmRC9BUDhBQzh2di9sTlIvd0FKSjhiL0FQb25udy8vQVBDOHZ2OEE1VFVBZXEwVjVWL3drbnh2L3dDaWVmRC9BUDhBQzh2di9sTlIvd0FKSjhiL0FQb25udy8vQVBDOHZ2OEE1VFVBZXEwVjVWL3drbnh2L3dDaWVmRC9BUDhBQzh2di9sTlIvd0FKSjhiL0FQb25udy8vQVBDOHZ2OEE1VFVBZXEwVjVWL3drbnh2L3dDaWVmRC9BUDhBQzh2di9sTlIvd0FKSjhiL0FQb25udy8vQVBDOHZ2OEE1VFVBZXEwVjVWL3drbnh2L3dDaWVmRC9BUDhBQzh2di9sTlIvd0FKSjhiL0FQb25udy8vQVBDOHZ2OEE1VFVBZXEwVjVWL3drbnh2L3dDaWVmRC9BUDhBQzh2di9sTlIvd0FKSjhiL0FQb25udy8vQVBDOHZ2OEE1VFVBZXEwVjVWL3drbnh2L3dDaWVmRC9BUDhBQzh2di9sTlIvd0FKSjhiL0FQb25udy8vQVBDOHZ2OEE1VFVBZXEwVjVWL3drbnh2L3dDaWVmRC9BUDhBQzh2di9sTlIvd0FKSjhiL0FQb25udy8vQVBDOHZ2OEE1VFVBZXEwVjVWL3drbnh2L3dDaWVmRC9BUDhBQzh2di9sTlIvd0FKSjhiL0FQb25udy8vQVBDOHZ2OEE1VFVBZXEwVjVWL3drbnh2L3dDaWVmRC9BUDhBQzh2di9sTlIvd0FKSjhiL0FQb25udy8vQVBDOHZ2OEE1VFVBZXEwVjVWL3drbnh2L3dDaWVmRC9BUDhBQzh2di9sTlIvd0FKSjhiL0FQb25udy8vQVBDOHZ2OEE1VFVBZXEwVjVWL3drbnh2L3dDaWVmRC9BUDhBQzh2di9sTlIvd0FKSjhiL0FQb25udy8vQVBDOHZ2OEE1VFVBSHdiL0FPU2kvSGIvQUxITzIvOEFVZTBhdlZhODArQy9oUHhWb045OFFOWjhYV2VqNmRxWGlmeEFtcXgyT2lhakxmd3dSSnB0alpoVE5KYndFc1dzM2JIbDRBY0RKNXIwdWdBb29vb0FLS0tLQUNpaWlnQW9vb29BOHU4QS93REkrZkZyL3Nab1AvVE5wbGR6WG52L0FBanZ4QjhOZU5QR2w5b2VpK0d0WDB2WGRUaDFHR1RVTmV1TEtlUGJZV2xzeU5HbGxLdjNyWXNDSDVERGdWYysxL0ZiL29UL0FBYi9BT0ZiZC84QXlzckNVSk4zUmFhc2R0UlhFL2EvaXQvMEovZzMvd0FLMjcvK1ZsSDJ2NHJmOUNmNE4vOEFDdHUvL2xaVSt6a1BtUjIxRmNUOXIrSzMvUW4rRGY4QXdyYnYvd0NWbEgydjRyZjlDZjROL3dEQ3R1Ly9BSldVZXprSE1qdHFLNG43WDhWditoUDhHLzhBaFczZi93QXJLUHRmeFcvNkUvd2Ivd0NGYmQvL0FDc285bklPWkhiVVZ4UDJ2NHJmOUNmNE4vOEFDdHUvL2xaUjlyK0szL1FuK0RmL0FBcmJ2LzVXVWV6a0hNanRxSzRuN1g4VnYraFA4Ry8rRmJkLy9LeWo3WDhWditoUDhHLytGYmQvL0t5ajJjZzVrZHRSWEUvYS9pdC8wSi9nMy93cmJ2OEErVmxIMnY0cmY5Q2Y0Ti84SzI3L0FQbFpSN09RY3lPMm9yaWZ0ZnhXL3dDaFA4Ry8rRmJkL3dEeXNvKzEvRmIvQUtFL3diLzRWdDMvQVBLeWoyY2c1a2R0UlhFL2EvaXQvd0JDZjROLzhLMjcvd0RsWlI5citLMy9BRUovZzMvd3Jidi9BT1ZsSHM1QnpJN2FpdUorMS9GYi9vVC9BQWIvQU9GYmQvOEF5c28rMS9GYi9vVC9BQWIvQU9GYmQvOEF5c285bklPWkhiVVZ4UDJ2NHJmOUNmNE4vd0RDdHUvL0FKV1VmYS9pdC8wSi9nMy9BTUsyNy84QWxaUjdPUWN5TzJvcmlmdGZ4Vy82RS93Yi93Q0ZiZC8vQUNzbysxL0ZiL29UL0J2L0FJVnQzLzhBS3lqMmNnNWtkdFhIL0NYL0FKRzc0cy85alJEL0FPbWJUS2grMS9GYi9vVC9BQWIvQU9GYmQvOEF5c3JSK0ZQaG54Qm9VM2pEVWZFbHZwdG5mYTdySzZpbHJwVjdKZHhSUnJZMmxzQVpIaGlKWW0yWnZ1WUFZY210SVJjWHFTM2M3MmlpaXRTUW9vb29BS0tLS0FDdktQanQvd0FobjRXLzlqUkovd0NtZlVxOVhyenY0eWVEL0VIaXFQd2xkK0c0ZE51YjdSTlpPb3ZiNnJlU1dzVXNiV1YxYkVDUklaU0dCdVZiN21DRlBJcldrMUdjVys1blVUbEJwRkNpc2Ird3ZpdC8wTEhnMy93cWJ2OEErVnRIOWhmRmIvb1dQQnYvQUlWTjMvOEFLMnZlK3RVZjV2elBGK3JWZjVUWm9yRy9zTDRyZjlDeDROLzhLbTcvQVBsYlIvWVh4Vy82Rmp3Yi93Q0ZUZC8vQUN0byt0VWY1dnpENnRWL2xObWlzYit3dml0LzBMSGczL3dxYnY4QStWdEg5aGZGYi9vV1BCdi9BSVZOMy84QUsyajYxUi9tL01QcTFYK1UyYUt4djdDK0szL1FzZURmL0NwdS93RDVXMGYyRjhWditoWThHLzhBaFUzZi93QXJhUHJWSCtiOHcrclZmNVRab3JHL3NMNHJmOUN4NE4vOEttNy9BUGxiUi9ZWHhXLzZGandiL3dDRlRkLy9BQ3RvK3RVZjV2ekQ2dFYvbE5taXNiK3d2aXQvMExIZzMvd3FidjhBK1Z0SDloZkZiL29XUEJ2L0FJVk4zLzhBSzJqNjFSL20vTVBxMVgrVTJhS3h2N0MrSzMvUXNlRGYvQ3B1L3dENVcwZjJGOFZ2K2hZOEcvOEFoVTNmL3dBcmFQclZIK2I4dytyVmY1VFpvckcvc0w0cmY5Q3g0Ti84S203L0FQbGJSL1lYeFcvNkZqd2Ivd0NGVGQvL0FDdG8rdFVmNXZ6RDZ0Vi9sTm1pc2Ird3ZpdC8wTEhnMy93cWJ2OEErVnRIOWhmRmIvb1dQQnYvQUlWTjMvOEFLMmo2MVIvbS9NUHExWCtVMmFLeHY3QytLMy9Rc2VEZi9DcHUvd0Q1VzBmMkY4VnYraFk4Ry84QWhVM2Yvd0FyYVByVkgrYjh3K3JWZjVUWm9yRy9zTDRyZjlDeDROLzhLbTcvQVBsYlIvWVh4Vy82Rmp3Yi93Q0ZUZC8vQUN0byt0VWY1dnpENnRWL2xObWlzYit3dml0LzBMSGczL3dxYnY4QStWdEg5aGZGYi9vV1BCdi9BSVZOMy84QUsyajYxUi9tL01QcTFYK1VxNjEveVVyNFVmOEFZdzNIL3BuMUt2ZHE4UzB6d0g4UWRVOGVlRE5TMXpTL0RXbWFYb2Vvelg4ejZmcmR4ZHp5YnJHNnRsUlVlemlYNzF3R0pMOEJUd2E5dHJ4OFZValVxYzBYb2VwaG9TcHd0SkJSUlhQNnA4UXZDMmgzMHRqcVhpWFI5UHZZc2VaYjNWL0ZGSW1RQ01xekFqSUlQMElya09vNkNpdVUvd0NGc2VDUCtoeThQLzhBZzBnLytMby80V3g0SS82SEx3Ly9BT0RTRC80dWdEcTZLNVQvQUlXeDRJLzZITHcvL3dDRFNELzR1ai9oYkhnai9vY3ZELzhBNE5JUC9pNkFPcm9ybFA4QWhiSGdqL29jdkQvL0FJTklQL2k2UCtGc2VDUCtoeThQL3dEZzBnLytMb0E2dWl1VS93Q0ZzZUNQK2h5OFAvOEFnMGcvK0xvLzRXeDRJLzZITHcvL0FPRFNELzR1Z0RxNks1VC9BSVd4NEkvNkhMdy8vd0NEU0QvNHVqL2hiSGdqL29jdkQvOEE0TklQL2k2QU9yb3JsUDhBaGJIZ2ovb2N2RC8vQUlOSVAvaTZQK0ZzZUNQK2h5OFAvd0RnMGcvK0xvQTZ1aXVVL3dDRnNlQ1AraHk4UC84QWcwZy8rTG8vNFd4NEkvNkhMdy8vQU9EU0QvNHVnRHE2SzVUL0FJV3g0SS82SEx3Ly93Q0RTRC80dWovaGJIZ2ovb2N2RC84QTROSVAvaTZBT3JvcmxQOEFoYkhnai9vY3ZELy9BSU5JUC9pNlArRnNlQ1AraHk4UC93RGcwZy8rTG9BNnVpdVUvd0NGc2VDUCtoeThQLzhBZzBnLytMby80V3g0SS82SEx3Ly9BT0RTRC80dWdEcTZLNVQvQUlXeDRJLzZITHcvL3dDRFNELzR1ai9oYkhnai9vY3ZELzhBNE5JUC9pNkFPcm9ybFA4QWhiSGdqL29jdkQvL0FJTklQL2k2UCtGc2VDUCtoeThQL3dEZzBnLytMb0E2dWl1VS93Q0ZzZUNQK2h5OFAvOEFnMGcvK0xvLzRXeDRJLzZITHcvL0FPRFNELzR1Z0RxNks1VC9BSVd4NEkvNkhMdy8vd0NEU0QvNHVqL2hiSGdqL29jdkQvOEE0TklQL2k2QU9yb3JsUDhBaGJIZ2ovb2N2RC8vQUlOSVAvaTZQK0ZzZUNQK2h5OFAvd0RnMGcvK0xvQTZ1aXVVL3dDRnNlQ1AraHk4UC84QWcwZy8rTG8vNFd4NEkvNkhMdy8vQU9EU0QvNHVnRHE2SzVUL0FJV3g0SS82SEx3Ly93Q0RTRC80dWovaGJIZ2ovb2N2RC84QTROSVAvaTZBT3JvcmxQOEFoYkhnai9vY3ZELy9BSU5JUC9pNlArRnNlQ1AraHk4UC93RGcwZy8rTG9BNnVpdVUvd0NGc2VDUCtoeThQLzhBZzBnLytMby80V3g0SS82SEx3Ly9BT0RTRC80dWdEcTZLNVQvQUlXeDRJLzZITHcvL3dDRFNELzR1ai9oYkhnai9vY3ZELzhBNE5JUC9pNkFPcm9ybFA4QWhiSGdqL29jdkQvL0FJTklQL2k2UCtGc2VDUCtoeThQL3dEZzBnLytMb0E2dWl1VS93Q0ZzZUNQK2h5OFAvOEFnMGcvK0xvLzRXeDRJLzZITHcvL0FPRFNELzR1Z0RxNks1VC9BSVd4NEkvNkhMdy8vd0NEU0QvNHVqL2hiSGdqL29jdkQvOEE0TklQL2k2QU9yb3JsUDhBaGJIZ2ovb2N2RC8vQUlOSVAvaTZQK0ZzZUNQK2h5OFAvd0RnMGcvK0xvQTZ1aXVVL3dDRnNlQ1AraHk4UC84QWcwZy8rTG8vNFd4NEkvNkhMdy8vQU9EU0QvNHVnRHE2SzVUL0FJV3g0SS82SEx3Ly93Q0RTRC80dWovaGJIZ2ovb2N2RC84QTROSVAvaTZBT3JvcmxQOEFoYkhnai9vY3ZELy9BSU5JUC9pNlArRnNlQ1AraHk4UC93RGcwZy8rTG9BNnVpdVUvd0NGc2VDUCtoeThQLzhBZzBnLytMby80V3g0SS82SEx3Ly9BT0RTRC80dWdEcTZLNVQvQUlXeDRJLzZITHcvL3dDRFNELzR1ai9oYkhnai9vY3ZELzhBNE5JUC9pNkFPcm9ybFA4QWhiSGdqL29jdkQvL0FJTklQL2k2UCtGc2VDUCtoeThQL3dEZzBnLytMb0E2dWl1VS93Q0ZzZUNQK2h5OFAvOEFnMGcvK0xvLzRXeDRJLzZITHcvL0FPRFNELzR1Z0RxNks1VC9BSVd4NEkvNkhMdy8vd0NEU0QvNHVqL2hiSGdqL29jdkQvOEE0TklQL2k2QU9yb3JsUDhBaGJIZ2ovb2N2RC8vQUlOSVAvaTZQK0ZzZUNQK2h5OFAvd0RnMGcvK0xvQTZ1aXVVL3dDRnNlQ1AraHk4UC84QWcwZy8rTG8vNFd4NEkvNkhMdy8vQU9EU0QvNHVnRHE2SzVUL0FJV3g0SS82SEx3Ly93Q0RTRC80dWovaGJIZ2ovb2N2RC84QTROSVAvaTZBT3JvcmxQOEFoYkhnai9vY3ZELy9BSU5JUC9pNlArRnNlQ1AraHk4UC93RGcwZy8rTG9BNnVpdVUvd0NGc2VDUCtoeThQLzhBZzBnLytMby80V3g0SS82SEx3Ly9BT0RTRC80dWdEcTZLNVQvQUlXeDRJLzZITHcvL3dDRFNELzR1ai9oYkhnai9vY3ZELzhBNE5JUC9pNkFPcm9ybFA4QWhiSGdqL29jdkQvL0FJTklQL2k2UCtGc2VDUCtoeThQL3dEZzBnLytMb0E2dWl1VS93Q0ZzZUNQK2h5OFAvOEFnMGcvK0xvLzRXeDRJLzZITHcvL0FPRFNELzR1Z0RxNks1VC9BSVd4NEkvNkhMdy8vd0NEU0QvNHVqL2hiSGdqL29jdkQvOEE0TklQL2k2QU9yb3JsUDhBaGJIZ2ovb2N2RC8vQUlOSVAvaTZQK0ZzZUNQK2h5OFAvd0RnMGcvK0xvQTZ1aXVVL3dDRnNlQ1AraHk4UC84QWcwZy8rTG8vNFd4NEkvNkhMdy8vQU9EU0QvNHVnRHE2SzVUL0FJV3g0SS82SEx3Ly93Q0RTRC80dWovaGJIZ2ovb2N2RC84QTROSVAvaTZBT3JvcmxQOEFoYkhnai9vY3ZELy9BSU5JUC9pNlArRnNlQ1AraHk4UC93RGcwZy8rTG9BNnVpdVUvd0NGc2VDUCtoeThQLzhBZzBnLytMby80V3g0SS82SEx3Ly9BT0RTRC80dWdEcTZLNVQvQUlXeDRJLzZITHcvL3dDRFNELzR1ai9oYkhnai9vY3ZELzhBNE5JUC9pNkFPcm9ybFA4QWhiSGdqL29jdkQvL0FJTklQL2k2UCtGc2VDUCtoeThQL3dEZzBnLytMb0E2dWl1VS93Q0ZzZUNQK2h5OFAvOEFnMGcvK0xvLzRXeDRJLzZITHcvL0FPRFNELzR1Z0RxNks1VC9BSVd4NEkvNkhMdy8vd0NEU0QvNHVqL2hiSGdqL29jdkQvOEE0TklQL2k2QU9yb3JsUDhBaGJIZ2ovb2N2RC8vQUlOSVAvaTZQK0ZzZUNQK2h5OFAvd0RnMGcvK0xvQTZ1aXVVL3dDRnNlQ1AraHk4UC84QWcwZy8rTG8vNFd4NEkvNkhMdy8vQU9EU0QvNHVnRHE2SzVUL0FJV3g0SS82SEx3Ly93Q0RTRC80dWovaGJIZ2ovb2N2RC84QTROSVAvaTZBT3JvcmxQOEFoYkhnai9vY3ZELy9BSU5JUC9pNlArRnNlQ1AraHk4UC93RGcwZy8rTG9BNnVpdVUvd0NGc2VDUCtoeThQLzhBZzBnLytMby80V3g0SS82SEx3Ly9BT0RTRC80dWdEcTZLNVQvQUlXeDRJLzZITHcvL3dDRFNELzR1ai9oYkhnai9vY3ZELzhBNE5JUC9pNkFPcm9ybFA4QWhiSGdqL29jdkQvL0FJTklQL2k2UCtGc2VDUCtoeThQL3dEZzBnLytMb0E2dWl1VS93Q0ZzZUNQK2h5OFAvOEFnMGcvK0xvLzRXeDRJLzZITHcvL0FPRFNELzR1Z0RxNks1VC9BSVd4NEkvNkhMdy8vd0NEU0QvNHVqL2hiSGdqL29jdkQvOEE0TklQL2k2QU9yb3JsUDhBaGJIZ2ovb2N2RC8vQUlOSVAvaTZQK0ZzZUNQK2h5OFAvd0RnMGcvK0xvQTZ1aXVVL3dDRnNlQ1AraHk4UC84QWcwZy8rTG8vNFd4NEkvNkhMdy8vQU9EU0QvNHVnRHE2SzVUL0FJV3g0SS82SEx3Ly93Q0RTRC80dXVsdEx1RFVMV0c2dFpvN20ybVJaSXBvV0RKSWhHUXlrY0VFRUVFVUFUVjhZZnRSZjhFemZEbjdVbnhhdS9IZXIrTmRVMFc1bXRZTFJiT3h0STJSVWpYQUpaamtra2s5dXc3WlAyZlJRQithdi9Ea1B3UC9BTkZMOFFmK0FVRkgvRGtQd1A4QTlGTDhRZjhBZ0ZCWDZWVVVBZm1yL3dBT1EvQS8vUlMvRUgvZ0ZCUi93NUQ4RC84QVJTL0VIL2dGQlg2VlVVQWZtci93NUQ4RC93RFJTL0VIL2dGQlIvdzVEOEQvQVBSUy9FSC9BSUJRVitsVkZBSDVxLzhBRGtQd1AvMFV2eEIvNEJRVWY4T1EvQS8vQUVVdnhCLzRCUVYrbFZGQUg1cS84T1EvQS84QTBVdnhCLzRCUVVmOE9RL0Evd0QwVXZ4Qi93Q0FVRmZwVlJRQithdi9BQTVEOEQvOUZMOFFmK0FVRkgvRGtQd1Avd0JGTDhRZitBVUZmcFZSUUIrYXYvRGtQd1AvQU5GTDhRZitBVUZIL0RrUHdQOEE5Rkw4UWY4QWdGQlg2VlVVQWZtci93QU9RL0EvL1JTL0VIL2dGQlIvdzVEOEQvOEFSUy9FSC9nRkJYNlZVVUFmbXIvdzVEOEQvd0RSUy9FSC9nRkJSL3c1RDhEL0FQUlMvRUgvQUlCUVYrbFZGQUg1cS84QURrUHdQLzBVdnhCLzRCUVVmOE9RL0EvL0FFVXZ4Qi80QlFWK2xWRkFINXEvOE9RL0EvOEEwVXZ4Qi80QlFVZjhPUS9BL3dEMFV2eEIvd0NBVUZmcFZSUUIrYXYvQUE1RDhELzlGTDhRZitBVUZIL0RrUHdQL3dCRkw4UWYrQVVGZnBWUlFCK2F2L0RrUHdQL0FORkw4UWYrQVVGSC9Ea1B3UDhBOUZMOFFmOEFnRkJYNlZVVUFmbXIvd0FPUS9BLy9SUy9FSC9nRkJSL3c1RDhELzhBUlMvRUgvZ0ZCWDZWVVVBZm1yL3c1RDhEL3dEUlMvRUgvZ0ZCUi93NUQ4RC9BUFJTL0VIL0FJQlFWK2xWRkFINXEvOEFEa1B3UC8wVXZ4Qi80QlFVZjhPUS9BLy9BRVV2eEIvNEJRVitsVkZBSDVxLzhPUS9BLzhBMFV2eEIvNEJRVWY4T1EvQS93RDBVdnhCL3dDQVVGZnBWUlFCK2F2L0FBNUQ4RC85Rkw4UWYrQVVGSC9Ea1B3UC93QkZMOFFmK0FVRmZwVlJRQithdi9Ea1B3UC9BTkZMOFFmK0FVRkgvRGtQd1A4QTlGTDhRZjhBZ0ZCWDZWVVVBZm1yL3dBT1EvQS8vUlMvRUgvZ0ZCUi93NUQ4RC84QVJTL0VIL2dGQlg2VlVVQWZtci93NUQ4RC93RFJTL0VIL2dGQlIvdzVEOEQvQVBSUy9FSC9BSUJRVitsVkZBSDVxLzhBRGtQd1AvMFV2eEIvNEJRVWY4T1EvQS8vQUVVdnhCLzRCUVYrbFZGQUg1cS84T1EvQS84QTBVdnhCLzRCUVVmOE9RL0Evd0QwVXZ4Qi93Q0FVRmZwVlJRQithdi9BQTVEOEQvOUZMOFFmK0FVRkgvRGtQd1Avd0JGTDhRZitBVUZmcFZSUUIrYXYvRGtQd1AvQU5GTDhRZitBVUZIL0RrUHdQOEE5Rkw4UWY4QWdGQlg2VlVVQWZtci93QU9RL0EvL1JTL0VIL2dGQlIvdzVEOEQvOEFSUy9FSC9nRkJYNlZVVUFmbXIvdzVEOEQvd0RSUy9FSC9nRkJSL3c1RDhEL0FQUlMvRUgvQUlCUVYrbFZGQUg1cS84QURrUHdQLzBVdnhCLzRCUVVmOE9RL0EvL0FFVXZ4Qi80QlFWK2xWRkFINXEvOE9RL0EvOEEwVXZ4Qi80QlFVZjhPUS9BL3dEMFV2eEIvd0NBVUZmcFZSUUIrYXYvQUE1RDhELzlGTDhRZitBVUZIL0RrUHdQL3dCRkw4UWYrQVVGZnBWUlFCK2F2L0RrUHdQL0FORkw4UWYrQVVGSC9Ea1B3UDhBOUZMOFFmOEFnRkJYNlZVVUFmbXIvd0FPUS9BLy9SUy9FSC9nRkJSL3c1RDhELzhBUlMvRUgvZ0ZCWDZWVVVBZm1yL3c1RDhEL3dEUlMvRUgvZ0ZCUi93NUQ4RC9BUFJTL0VIL0FJQlFWK2xWRkFINXEvOEFEa1B3UC8wVXZ4Qi80QlFVZjhPUS9BLy9BRVV2eEIvNEJRVitsVkZBSDVxLzhPUS9BLzhBMFV2eEIvNEJRVWY4T1EvQS93RDBVdnhCL3dDQVVGZnBWUlFCK2F2L0FBNUQ4RC85Rkw4UWYrQVVGSC9Ea1B3UC93QkZMOFFmK0FVRmZwVlJRQithdi9Ea1B3UC9BTkZMOFFmK0FVRkgvRGtQd1A4QTlGTDhRZjhBZ0ZCWDZWVVVBZm1yL3dBT1EvQS8vUlMvRUgvZ0ZCUi93NUQ4RC84QVJTL0VIL2dGQlg2VlVVQWZtci93NUQ4RC93RFJTL0VIL2dGQlIvdzVEOEQvQVBSUy9FSC9BSUJRVitsVkZBSDVxLzhBRGtQd1AvMFV2eEIvNEJRVWY4T1EvQS8vQUVVdnhCLzRCUVYrbFZGQUg1cS84T1EvQS84QTBVdnhCLzRCUVVmOE9RL0Evd0QwVXZ4Qi93Q0FVRmZwVlJRQithdi9BQTVEOEQvOUZMOFFmK0FVRkgvRGtQd1Avd0JGTDhRZitBVUZmcFZSUUIrYXYvRGtQd1AvQU5GTDhRZitBVUZIL0RrUHdQOEE5Rkw4UWY4QWdGQlg2VlVVQWZtci93QU9RL0EvL1JTL0VIL2dGQlIvdzVEOEQvOEFSUy9FSC9nRkJYNlZVVUFmbXIvdzVEOEQvd0RSUy9FSC9nRkJSL3c1RDhEL0FQUlMvRUgvQUlCUVYrbFZGQUg1cS84QURrUHdQLzBVdnhCLzRCUVVmOE9RL0EvL0FFVXZ4Qi80QlFWK2xWRkFINXEvOE9RL0EvOEEwVXZ4Qi80QlFVZjhPUS9BL3dEMFV2eEIvd0NBVUZmcFZSUUIrYXYvQUE1RDhELzlGTDhRZitBVUZIL0RrUHdQL3dCRkw4UWYrQVVGZnBWUlFCK2F2L0RrUHdQL0FORkw4UWYrQVVGSC9Ea1B3UDhBOUZMOFFmOEFnRkJYNlZVVUFmbXIvd0FPUS9BLy9SUy9FSC9nRkJSL3c1RDhELzhBUlMvRUgvZ0ZCWDZWVVVBZm1yL3c1RDhEL3dEUlMvRUgvZ0ZCUi93NUQ4RC9BUFJTL0VIL0FJQlFWK2xWRkFINXEvOEFEa1B3UC8wVXZ4Qi80QlFVZjhPUS9BLy9BRVV2eEIvNEJRVitsVkZBSDVxLzhPUS9BLzhBMFV2eEIvNEJRVWY4T1EvQS93RDBVdnhCL3dDQVVGZnBWUlFCK2F2L0FBNUQ4RC85Rkw4UWYrQVVGSC9Ea1B3UC93QkZMOFFmK0FVRmZwVlJRQithdi9Ea1B3UC9BTkZMOFFmK0FVRkgvRGtQd1A4QTlGTDhRZjhBZ0ZCWDZWVVVBZm1yL3dBT1EvQS8vUlMvRUgvZ0ZCUi93NUQ4RC84QVJTL0VIL2dGQlg2VlVVQWZtci93NUQ4RC93RFJTL0VIL2dGQlIvdzVEOEQvQVBSUy9FSC9BSUJRVitsVkZBSDVxLzhBRGtQd1AvMFV2eEIvNEJRVWY4T1EvQS8vQUVVdnhCLzRCUVYrbFZGQUg1cS84T1EvQS84QTBVdnhCLzRCUVVmOE9RL0Evd0QwVXZ4Qi93Q0FVRmZwVlJRQithdi9BQTVEOEQvOUZMOFFmK0FVRkgvRGtQd1Avd0JGTDhRZitBVUZmcFZSUUIrYXYvRGtQd1AvQU5GTDhRZitBVUZIL0RrUHdQOEE5Rkw4UWY4QWdGQlg2VlVVQWZtci93QU9RL0EvL1JTL0VIL2dGQlg2SytFOUQvNFJmd3JvMmplZjlwL3M2eWhzL08yYlBNOHRGVGR0eWNaeG5HVGpOYXRGQUJYaVhpZjQ5ZUpkTjhjZUpkQzBid2ZwV28ydWlYVVZvMTVmYTlMYXZLNzJzRndTSTFzNVFBQmNCZnZjN1NlSzl0cjVkMVgvQUpLMThVUCt3M2JmK21uVDY2S01WSnZtUnoxcFNpbHlzNmYvQUlYNTQ3LzZFUHc3L3dDRlZQOEEvSzZqL2hmbmp2OEE2RVB3Ny80VlUvOEE4cnE1K2l1cjJjUDVmek9YMmxUK2I4djhqb1ArRitlTy93RG9RL0R2L2hWVC93RHl1by80WDU0Ny93Q2hEOE8vK0ZWUC93REs2dWZvbzluRCtYOHc5cFUvbS9ML0FDT2cvd0NGK2VPLytoRDhPLzhBaFZUL0FQeXVvLzRYNTQ3L0FPaEQ4Ty8rRlZQL0FQSzZ1Zm9vOW5EK1g4dzlwVS9tL0wvSTZEL2hmbmp2L29RL0R2OEE0VlUvL3dBcnFQOEFoZm5qdi9vUS9Edi9BSVZVL3dEOHJxNStpajJjUDVmekQybFQrYjh2OGpvUCtGK2VPLzhBb1EvRHYvaFZULzhBeXVvLzRYNTQ3LzZFUHc3L0FPRlZQLzhBSzZ1Zm9vOW5EK1g4dzlwVS9tL0wvSTZEL2hmbmp2OEE2RVB3Ny80VlUvOEE4cnFQK0YrZU8vOEFvUS9Edi9oVlQvOEF5dXJuNktQWncvbC9NUGFWUDV2eS93QWpvUDhBaGZuanYvb1EvRHYvQUlWVS93RDhycVArRitlTy93RG9RL0R2L2hWVC93RHl1cm42S1Bady9sL01QYVZQNXZ5L3lPZy80WDU0Ny82RVB3Ny9BT0ZWUC84QUs2ai9BSVg1NDcvNkVQdzcvd0NGVlA4QS9LNnVmb285bkQrWDh3OXBVL20vTC9JNkQvaGZuanYvQUtFUHc3LzRWVS8vQU1ycVArRitlTy8raEQ4Ty93RGhWVC8vQUN1cm42S1Bady9sL01QYVZQNXZ5L3lPZy80WDU0Ny9BT2hEOE8vK0ZWUC9BUEs2ai9oZm5qdi9BS0VQdzcvNFZVLy9BTXJxNStpajJjUDVmekQybFQrYjh2OEFJNkQvQUlYNTQ3LzZFUHc3L3dDRlZQOEEvSzZtciswVDRzczlRMGhOVDhFYUxCWTN1cDJXbXlUV25pT2FhU0w3VGN4MjRjSTFpZ2JhWlFjYmx5QWVhd2F4ZkZIWHc1LzJNK2hmK25XMW85bkR0K1llMHFmemZrZld0RkZGZWFla0ZGRkZBQlJSUlFBVjQvSjhVUGlMcjNqanh0bzNoSHdSNFgxSFRmREdwdzZWSmZhMzRydWJDYWVWN0MwdkN3aGowNmNCUXQ0aTU4ekpLRTRIRmV3VjVWOEcvd0Rrb3Z4Mi93Q3h6dHYvQUZIdEdvQVArRWsrTi84QTBUejRmLzhBaGVYMy93QXBxUDhBaEpQamYvMFR6NGYvQVBoZVgzL3ltcjFXaWdEeXIvaEpQamYvQU5FOCtILy9BSVhsOS84QUthai9BSVNUNDMvOUU4K0gvd0Q0WGw5LzhwcTlWb29BOHEvNFNUNDMvd0RSUFBoLy93Q0Y1ZmYvQUNtby93Q0VrK04vL1JQUGgvOEErRjVmZi9LYXZWYUtBUEt2K0VrK04vOEEwVHo0Zi84QWhlWDMvd0FwcVA4QWhKUGpmLzBUejRmL0FQaGVYMy95bXIxV2lnRHlyL2hKUGpmL0FORTgrSC8vQUlYbDkvOEFLYWovQUlTVDQzLzlFOCtIL3dENFhsOS84cHE5Vm9vQThxLzRTVDQzL3dEUlBQaC8vd0NGNWZmL0FDbW8vd0NFaytOLy9SUFBoLzhBK0Y1ZmYvS2F2VmFLQVBLditFaytOLzhBMFR6NGYvOEFoZVgzL3dBcHFQOEFoSlBqZi8wVHo0Zi9BUGhlWDMveW1yMVdpZ0R5ci9oSlBqZi9BTkU4K0gvL0FJWGw5LzhBS2FqL0FJU1Q0My85RTgrSC93RDRYbDkvOHBxOVZvb0E4cS80U1Q0My93RFJQUGgvL3dDRjVmZi9BQ21vL3dDRWsrTi8vUlBQaC84QStGNWZmL0thdlZhS0FQS3YrRWsrTi84QTBUejRmLzhBaGVYMy93QXBxUDhBaEpQamYvMFR6NGYvQVBoZVgzL3ltcjFXaWdEeXIvaEpQamYvQU5FOCtILy9BSVhsOS84QUthai9BSVNUNDMvOUU4K0gvd0Q0WGw5LzhwcTlWb29BOHEvNFNUNDMvd0RSUFBoLy93Q0Y1ZmYvQUNtby93Q0VrK04vL1JQUGgvOEErRjVmZi9LYXZWYUtBUFAvQUlTZkVMWFBIRXZqR3c4U2FEcC9oL1d2RE90THBFOE9sNnBKcU52TnVzYlM4V1JKWHQ0Rys3ZUtwVXg4RkR5UWE5QXJ5cjROL3dESlJmanQvd0JqbmJmK285bzFlcTBBRkZGRkFCUlJSUUFVVVVVQUZGRkZBSHpuNHcvYWE4WmFaOFNQR1Bobnc3NEIwTFZyTHc1ZlFXRDMrcCtLSnJHU2VTU3h0cnNrUkpZVEJWQXVsWDc1SktrNEZaLy9BQTAxOFVQK2lZK0VmL0MzdXY4QTVVMXgrcGY4bDArTlgvWXkyZjhBNllkS3E5WGpWc1ZVaFVjVWZwbVhaQmdzVGhLZGFvbmVTMTFPaS80YWErS0gvUk1mQ1A4QTRXOTEvd0RLbWovaHByNG9mOUV4OEkvK0Z2ZGYvS211ZG9ySDY1VlBTLzFaeS9zL3ZPaS80YWErS0gvUk1mQ1AvaGIzWC95cG8vNGFhK0tIL1JNZkNQOEE0VzkxL3dES211ZG9vK3VWUS8xWnkvcy92T2kvNGFhK0tIL1JNZkNQL2hiM1gveXBvLzRhYStLSC9STWZDUDhBNFc5MS93REttdWRvbyt1VlEvMVp5L3Mvdk9pLzRhYStLSC9STWZDUC9oYjNYL3lwby80YWErS0gvUk1mQ1A4QTRXOTEvd0RLbXVkb28rdVZRLzFaeS9zL3ZPaS80YWErS0gvUk1mQ1AvaGIzWC95cG8vNGFhK0tIL1JNZkNQOEE0VzkxL3dES211ZG9vK3VWUS8xWnkvcy92T2kvNGFhK0tIL1JNZkNQL2hiM1gveXBvLzRhYStLSC9STWZDUDhBNFc5MS93REttdWRvbyt1VlEvMVp5L3Mvdk9pLzRhYStLSC9STWZDUC9oYjNYL3lwby80YWErS0gvUk1mQ1A4QTRXOTEvd0RLbXVkb28rdVZRLzFaeS9zL3ZPaS80YWErS0gvUk1mQ1AvaGIzWC95cG8vNGFhK0tIL1JNZkNQOEE0VzkxL3dES211ZG9vK3VWUS8xWnkvcy92T2kvNGFhK0tIL1JNZkNQL2hiM1gveXBvLzRhYStLSC9STWZDUDhBNFc5MS93REttdWRvbyt1VlEvMVp5L3Mvdk9pLzRhYStLSC9STWZDUC9oYjNYL3lwby80YWErS0gvUk1mQ1A4QTRXOTEvd0RLbXVkb28rdVZRLzFaeS9zL3ZPaS80YWErS0gvUk1mQ1AvaGIzWC95cG8vNGFhK0tIL1JNZkNQOEE0VzkxL3dES211ZG9vK3VWUS8xWnkvcy92T2kvNGFhK0tIL1JNZkNQL2hiM1gveXByMHI0QmZHRFZQaTlwZmlsOWE4UFdmaHZVL0QrdGYyUkxiMkdwdnFFTXViTzF1bGtXUm9JVDkyN0NsU25CUThuTmVKMTNQN0lIK3MrTVA4QTJPY2YvcGowbXV6QzRpZFdiakxzZk41N2srRnkvRFJxMEU3dVNXcjhuL2tmUXRGRkZlbWZDaFJSUlFBVVVVVUFGRkZGQUJSUlJRQVVVVVVBRkZGRkFCUlJSUUFVVVVVQUZGRkZBQlJSUlFBVVVVVUFGRkZGQUJSUlJRQVVVVVVBRkZGRkFCUlJSUUFWOHU2ci93QWxhK0tIL1lidHYvVFRwOWZVVmZMdXEvOEFKV3ZpaC8yRzdiLzAwNmZYVmgvaWZwK3FPWEVmQ3ZYOUdUMFVWNS80dytObWgrRXZFaitINDdIV2ZFV3R3MjYzVnpZNkJwMGw0OXJDeElWNWR2Q2JzSGFwTzVzSEFOZGQ3SEphNTZCUldGNEo4YmFOOFJQRFZwcjJnM2d2ZE51ZHdWOWpJeXNyRlhSMFlCa2RXQkJVZ0VFR3BOZjhXYWY0YnY4QVFiTzlhUlo5YXZ2N09zd2lGZ1p2Smxtd3g3RFpDL1BxQU85QUd6UlJYRitPdml0cFBnUFZkTTBxYXkxYldkWTFHT1dlRFR0RnNYdTV4REdVRWt6aGVFUlRJZ3l4R1N3QXlhQTNPMG9yQzhFK050SStJWGh1MjF6UTdocm5UNTJkQVpJbmlrUjBjbzZPamdNakt5c3BVZ0VFVnUwQUZGRkZBQlJSWG5PdmZIanc1b1VrVVl0OVYxU1dmVlo5RnQ0dExzWHVYdUxtR0l5VENOVjVZSUZrVmoyYU54Mm92WUxYUFJxSzh5aC9hSThJVGVGZFMxc2YycWo2ZmZ4NlZQcEVtbVRwcUl2Sk52bHdDMks3MlpnNmtZR0NEbk9BY01sL2FMOEtXdmhuWDlYdklkWXNKZEJsdElkUjBtNjAyV08raGE1a1dPMy9BSFJIemgyWUFNcElPRHp3YVhNaDhyN0hxRkZjUDRKK01PaGVPTmV1dENodHRXMGpYYmUyRjQybTYzcGsxbE0xdVcyZWFna1VCMDNmS1NwT0R3Y1ZTOFlmSFRRZkNQaUM3MFJOUDF6eERxbGpBbHpmd2FCcGtsNGJLTnhsREtWR0ZMQUVoQmxpQm5HS0xvTFBZOUZvcmc3TDQyZUY5WVd4ZlNKcnZXMHZ0UHQ5VXQyMDIwa21NbHZOT0lGZmFCa2JYT1dCSHlLckZzYlRYZVV4QlJUSjUwdFlKSnBXMnh4cVhadlFBWkpybS9EWHhJMEh4ZGZXdHRwZDAwNXZOS2cxcTBrYU5rUzV0SmlRc2lad1RqQTNBZ0ZkNlpIekNnRHA2eGZGSFh3NS93QmpQb1gvQUtkYld0cXNYeFIxOE9mOWpQb1gvcDF0YVlqNjFvb29yeVQxZ29vb29BS0tLS0FDdkt2ZzMveVVYNDdmOWpuYmYrbzlvMWRycGZ4QjhNNjE0czFqd3RZNjlwOXo0azBmeXpxR2tSM0NtNnRsa1JaRVo0ODdncks2a05qQnpqT1FhNHI0Ti84QUpSZmp0LzJPZHQvNmoyalVBZXEwVVVVQU1tbWp0b1pKcHBGaWlqVXU4amtCVlVESkpKNkFDdkR0Ti9iSytIK3BYR25YSGtlSXJUd3ZxVjR0aFkrTDd2Uko0dEZ1Wm1jb2dXNUl3RWQ4S3NqQUl4SXd4cjBUNHllRUwzNGhmQ0h4eDRXMDY1Rm5xR3VhSGZhWmJYQllxSXBacmQ0MFlrY2pCWUhJOUsrVmZHbmkzV1BpMSt5dGIvQkxUdmh4NG8wbjRpYWpwTm40ZHZMQy93REQ5eERwZWtGUExqbXVUZXNvdDJoaldOM2pNY2pNKzFBb3llQUQzcnhsKzFGNFQ4SStLTlkwR0RTL0UzaW04ME5GZldaUERPaXpYOE9tYmwzaFpuUVlEN01ONWE3bkFJSlhGYmxyOGZ2QTE5TDRWK3lhM0hkMmZpYlNMelhOTjFDSlNiWjdPMUVKbmtaejl6YUowNFBQM3M0d2E4VitHZmphNS9acDFyNG5lRy9GbmhIeGRxYytxZUxOUThSYUxxWGg3dy9kYXBIckZ2ZGtTcEg1c0NNc2M4WjNSRlpUR0FzYUVIYWMxd0hoSDRMK052QitqL0N5MDFYd0kydTNxZUVmSFZ4cVBoK0p6SFpSVDZqYzIxekRwa2x5b1pJaXdkb2dja0VvNVhJRkFIMGQ4UHYycFBCL3hFMS9STkl0N0x4Rm9rL2lDS1c0MEtiWHRFdUxLSFY0bzA4eG50M2RjSDkzODRWdHJGZm1BeHpXOThVUGpoNGQrRlY5cEdsMzBHcWF6NGgxanpEcCtnNkRZdmUzMXdrWUJra0VhL2RqWEs1ZHlxZ3NCbkpyNXQrRFRhMXAvd0FSUGh0cDNnU2I0algvQUlYdG5raDEzdzc4Uk5BbFdEdzVDdHBJRSt6YWhjVzhjaGtWL0xpQ1J5ekJrZHVpNE5kZHJuaSs2OEsvdEJhRjhaTHp3ajRwbjhEZUlQQlkwS1Y0ZEJ1cHRSMFc1aXZIdUYrMFdTSVo0NDVVa0lMQkRob1VEWUJCb0E5dStGdnhoOE9mRjdUOVNtME43eTN2Tkx1alphbnBXcVdrbHBlMkUrQXdTYUdRQmx5cERBOGhnY2dtdGZ4MTQ0MHY0YytHWjllMWw1STlQaGxnZ2RvWXk3YnBwa2hUZ2Y3Y2kvUWMxOGErTXZoejRoK05YaTN4YjR6L0FPRVg4UmFQNFU4VitLdkNPbHdXYldrOWpxTnpwOWxOSjlydlo0eGlXQ05oY09nWjlqQ09QY1FvSU5jcDhWZmhYRGFhcDR6MEdUNGQrSzcvQU1id2VMTkZIaEsrMG5UYnlmVDdUdzVidllLa1VVNktZWW9vNDRyZ1NSTWR4a083QjRLZ0g2SzF6ZmkvNGdhUDRIMUR3eFo2ckpMSFA0ajFSZEgwOFJ4bHcxd1lKcGdHSSs2TmtFbko3Z0R2WHcxNFI4QStQSC9hSWh1TlZHcVd2alZQSHM5OWNhbmIrRHIrUjVkRkU3bEViVjJ2VnRQc2IycFdNUXJFV1JpQjViT3U0OVQ4Ti9nZmYrRmZBdjdQMS9GNFoxb2VJNXZIbjlwK0k1N3lHNGt1SVlsczlWU041dytUREVnbGpSY2hWRzlSMWJrQSs0S0svUDhBOE5mQTN4VDRKOEMvQ2J4RDRSMEhWOUYrSTE5YWVJN1RXZFZ1bG5XV0lQcHQrOW10NFpEaU9KYmxMVHk5K0ZVN1F1TTg4RnJuaHZVR3VMZlNQaEg0VzhaZUZmR1Uzd3YxTCswMDFDM3U0SmIyN1c3MHNYTHdtVmwrMFhCUnBnYmlKc1NHV1BiSVNQbEFQMDlyRzFieGZwR2g2OW9laTMxNnR2cWV0eVRSYWZibEdKbmFLTXl5QUVEQXdpazhrZE9PYStBZEYrSHVwVGVBUGlOL1pTZUpOTThHM0M2SWpXZWhmRHZVTk5zeGNSWGJTVHpmMlpkM3NsemRyczJKZENJSUpFQXdYWlhyb2ZobDhPei9BTUpOOEZ0WjFiNGJ6V3VsNkw0eTFTMnRMeXcwSFVJN2RJWmJJTmEzYVdkd0huc0xjM1BBVjhSb3liOHFyQTBBZmNYaGZ4QkY0cjhPNmRyRU5uZmFmRmZRck90cnFscTlyY3hCaG5iSkU0REl3N3F3eUsxSy9Ncnc3OFA5UnRmaHJiV3Z4TjhBZU5kZDhTTjhPdE1zL0FxMitsWDB6NmJxYXd6aWROMGFuN0ZkK2VZV00wMnc3Rlg1Z0ZJcjBUeGQ4QlBFR29XUHhtOFVheG9lc2ExOFJOTTFEdzdMb0dyUVJYQmRwNE5OMHdYRTlrcThIZEtzNnlOR0RuWVZZblpnQUgxbDRzK09mZy93VDhVZkIvdysxYlVXdC9FL2l0WjIwMjNFUlpHOHBDeDN2MFRjRllMbjd4VWdjMXp2alQ5cVR3cjRIOFlhOTRkdWRIOFY2bmM2QkZETnF0MW92aCs1djdlempsajh4R2tlSld3TmdMSGpPQWErY2ZpdDhIL2k1OFY5VitLbnhPMFNDdzB1OTA3VkxWdkMybGF2bzl5ZFZrajBTUjVZVGJQNXFMR3QxTzF6Z05FMjlKbE9jRVk3M3dwOE12RlB4VytNM3hROFJyNGo4Yy9ETFFOZXNOQmxXMXRkUHRyWnJ4V3NmM2tiUGRXc2tpU1JFbU5oR1ZLTVNEZ2dZQVBmUEMveGs4SytOUEVlbjZOb21vSFVKOVEwQ0R4TmFUeFJ0NU0xaE01U09RTWU1SSs2Um5GZHRYejU4UDhBNFdKOE4vMmxOT3NOQzBhOHRQQnVqL0RXejBTeXUyaWRvQTBWOUppRXpFWWFUWmhpQ2R4ems5YStnNkFDaWlpZ0R5cjROLzhBSlJmanQvMk9kdC82ajJqVjZyWGxYd2IvQU9TaS9IYi9BTEhPMi84QVVlMGF2VmFBQ2lpaWdBb29vb0FLS0tLQUNpaWlnRDR6MUwva3VueHEvd0N4bHMvL0FFdzZWVjZ1TitLSGovVFBoejhXdmpKcVdxUjNrMFUvakRUckdHR3h0Mm5tbG1sMFBTbFJGUmVTU2VLeUkvMmd2Q2Y5aytJcnk3L3RUU3A5QXMvdDkvcHVwNmROYTNhVy9PSlZqZFFYUWtFYmx5TThWODdpSXlkV1RTUDJmS2NSU3A0R2pHVWtueS81bnBORlpQaWJ4WHBYZzN3NWU2OXJONGxocFZuRjVzMXhKbkNyd0FBQnlTU1FBQnlTUUJ5YTVUd3o4Y05COFJlSTdMUXA3SFd2RCtwNmhHOHVudzY3cHNsbjl0VkJ1Znlpd3dXQy9NVU9HQTV4Z1Z6S0xhdWtlM0t0VGhKUWxKSnM5Qm9yalA4QWhibmgzL2hXcStPL09uLzRSOG9KQko1Sjh6Qmw4cjduWDcxZG5TYWEzS2pValA0WGZTL3lld1VVVnkzamI0bGFKOFB3RHJFczBZK3dYdXBaaWlML0FMbTFqRWt4NDdoV0dCM29TYmRrT2M0MDF6VGRrZFRSVU5uZFIzMW5CY3hFbUthTlpFeU1IQkdSL09wcVJZVVZ3L2l6NHhlSC9CNjZ3YnNYbHlkTG5zN1M0V3h0bW1iN1Jjc0JEQ29ITFNIZEdTbzZDUlBXcGZCZnhhMEx4dHJWM28xdkhxV2w2M2F3aTVrMHpXZFBsc3Jnd2x0b2xSWkZHOU4zRzVTUUNRRGpJcXVXVnIyTVByRkxuNU9aWC9yL0FDWjJkRkZGU2JoUldQb0hpdlQvQUJMZDYzYldMdTB1ajN4MDY3RG9WQW1FVVV1QjZqWk1uUHVmU2s4RytMdE84ZWVHYkRYdEplU1RUcjVESkMwaUZHSURGZVFlbklOT3pJVlNNblpQditHNXMwVm5lSS9FV25lRXRCMURXdFd1Ulo2WllRdGNYTnd5c3dqalVaWnNLQ1RnZWdwTEh4SHAycGExcU9rMjF5SmRRMDlJWkxxQUt3TWF5aGpHY2tZT1FyZEQyNW9zOXg4MFUrVyt2OWY1UDdqU29vckM4YmVOOUgrSHVneWF4cmR5MXZhSzZRb3NjYlN5elN1ZHFSUnhxQ3p1eElBVUFrMGttM1pCS1NnbktUc2tidEZjUDRQK01HaStML0VFdWdtMDFiUXRkVzMrMXBwMnVXTDJrczBHN2FaSTkzRHFDUURna2pJeUJYY1UybkhSazA2a0tpNW9PNkNpaWlrYUJYYy9zZ2Y2ejR3Lzlqbkgvd0NtUFNhOHd2ZkU5anAzaVBUTkV1R2VLODFLS2FTMVlyKzdrTVcwdW03Ky90YmNGN2hXSSs2YTlQOEEyUVA5WjhZZit4emovd0RUSHBOZWpnZjRqOVAxUGkrS3BKNEtLWFNhL3dEU1dmUXRGRkZlNGZsWVVVVVVBRkZGRkFCUlJSUUFVVVVVQUZGRkZBQlJSUlFBVVVVVUFGRkZGQUJSUlJRQVVVVVVBRkZGRkFCUlJSUUFVVVVVQUZGRkZBQlJSUlFBVVVVVUFGZkx1cS84bGErS0gvWWJ0djhBMDA2ZlgxRlh5N3F2L0pXdmloLzJHN2IvQU5OT24xMVlmNG42ZnFqbHhId3IxL1JrOWVDNmZyMDN3WitMbnhHdWRmMExXcnpTdkZGMWE2bHB1cmFOcE54cUljcGF4d1BiU2lCSGFObGFMSzdnQVE1NTROZTlVVjFOSEttZkozaGY0UDZuNG04VmVGNzN4UjRmdjdYUjliOFJhLzRpdU5KWU9pV3NVcVJDMWl1L0xPME0zbGlRb3h3WEpCNkVWeS9oM3dqcWMzaVB3RkpENFU4UlcveFBzOWExS2J4RHJkMVkzSnN2TmUwdlZpa2FkZ1lwSXk3eGlNcVNFVTdlTjJEOXMwVkhJaStkbndUNFI4QytMdjhBaEROZGl0clRXby9FUytDTlh0OWNnaDhMMzFwTGUzejJ1MUVudXBycDF2SnpOODBid1JuSUxZMkt3V3ZWUEVuZ0hRL2gvZWVFRUdsK00vREt3Nk95cDR3OEsvYWI2NysxU09qVFc5M0FzVXhjT1ZTUVBJckFzR0h5a2MvVVZGSElIT3o0L1hUOVoxS1R3ZmRmRmp3MXEvaUR3VEcyc0lJb05DbGFXYTRhNGkreDNkOVkyeUVxN3dpYkdVd3JOa2hXYXB2RGYvQ1ZmRG13c0p0YTBIeFJxa21wZUNyclQ3Q0Mxc0o3MmFLYjdaUExiMnM3S0c4dVJZSllVM3lFRDkyMlR3YSt1cUtPUU9jK09MUDRTK0p0VThKK0pkVWowdldiZnhYWWVBOUZ0ZEdhVHpvSGp1RFpUSmVKRG5BRndVUGxGdnZJWEE0eWNyNDI4TFEzWGcxLytGY2VFZkVIaHJ3aWRXMDE5Y3M3N1Jyd3hYVnVxWEhtN2RPM1JUeUJaR3QvT0tNUE14L0h0YlAyTlJSeUlPZG5qbjdMMmpYK2orRGRhRncxMG1tWEdyeXphWmEzR2p5NlZIQmIrWEdDSUxhYWFXV09FdUpHVlhLbkxOaFFwV3ZHN1d4dnBQaHI4RnJxU0h4SkMya2EvckM2M2RlRnJDVzd2TE80MlgwVXJiSTRwQ0EwN0ZTU3A0ZjhhK3g2bzZib2RqbzgxL0xaV3lXejM5d2JxNTJaQWtsS0toZkhRRWhGempyalBVazArWG9MbVBraXg4SzNLNlA0cnZML0FNTCtPTmE4SzNmaWl4MUtEWEx4SmJieEpiU0xiRkpMMk9KSXhLNlJNa0tJaFFOc2VUNVNGNVh4TnBYalB4aDRCOGQ2ZHAwM2lmeEpvTXR4NGZPazYzckdnaTAxZG5YVTQzblVJWUkzbWpoUUxJSkpJc0RML2VBSnI3RW9wY2crYzRId2Y4SlkvRGZpeVh4UnFuaVRXUEZ2aUEyYmFmRmVhdDluUVc5dXpxN1J4eHdSUklOeklwSklKTzBjNHJnZEo4U3ovQlA0aS9FaE5jOE82L3FWcDRoMU9QV3RLMURSTkluMUQ3U0Rhd3d0Yk1ZVmJ5M1JvVGdQdEJENXoxeDc1UlZjdllubTdueWY0OThOK0w5WXVMRy8vd0NFUXVOSXZKOUYwTXpXR2tXN3lSV3NuOXZ3VFN3N2tHQ3lSYm1mSEdBN2ZkNXJEOE4rRC9GemZHcUtiVUJmMi9pbGZGOHQzTmZ3K0dieDNrMHNUT1ZRNmsxMHR0OW1hM0tvSWhHV1VrRFlXWEorektLWElWem55SjROK0NjdW42UjhMTG8rR3RRR3E2b05Yc2ZFcjNVY3hlUzJrczdveHhYSWY3c2ZtckFFRFlBTzBEcnpzZkJYUlYwMisvWjgwKzAweTYwWFVOTDhKNm11cldkeGFTV3NrWnhaeHpDU04xQithNkFZTVJodHJGU1FjMTlSMVJoME93ZzFxNTFkTFpCcWR6QkhiUzNQSmRvbzJka1QyQU1qbkE3c2FPU3d1ZTVlcm1maUJZemFucFdrV2x0cUZ6cEZ4UDRoMFNPTy9zMWlhYTNZNnBhZ1NJSlVlTXNwNUc5R1hJNUJIRmROV0w0bzYrSFAreG4wTC8wNjJ0YUdaN0Ivd3B2eGQvMFhiNGdmK0FQaDcvNVZVZjhBQ20vRjMvUmR2aUIvNEErSHYvbFZYcXRGZVNlc2VWZjhLYjhYZjlGMitJSC9BSUErSHY4QTVWVWY4S2I4WGY4QVJkdmlCLzRBK0h2L0FKVlY2clJRQjVWL3dwdnhkLzBYYjRnZitBUGg3LzVWVWY4QUNtL0YzL1JkdmlCLzRBK0h2L2xWWHF0RkFINW9mSGo5Zzc0dy9IRDlyS0xYZEg4YTYxb2VrYURaV3RxUGlCcmJXVU45Y1M3V2tKdEl0UGh0eTNsaVlKdWtDbkt1QklRRlVmWG43TVBoMis4SjZwOFg5SDFMWHIzeFJmMlhpdTBobTFqVVZqV2U2WWVIZEd5N2hGQzUvRFBBeVNjays1MTVWOEcvK1NpL0hiL3NjN2IvQU5SN1JxQVBWYUtLS0FDaWlpZ0FyQzhjZU05TCtIbmhMVlBFZXRTdERwdW5RbWFVeG9Ya2ZzcUlvNVoyWXFxcU9XWmdCeWEzYThSL2EwODJQd1Q0T3VYUXZwRnI0NThPejZwNkpicnFVT0hiL1pXWHlXYi9BR1ZOQUhYK0JQamw0VStJdmp6eHA0TTBpNm0vNFNMd2hKYng2dFozRUpReEdaQzZGVDBjWVVna2REOVJXZDhMZjJqUEIveG5zYlcvOEluVXRYMDI0MVM3MGdYOFZoSWJlT2EzVGU3U1BqQ0l3d0Vac0JpUUJ5YStVUEhQZ0w0bGVEL2lGOFR2R1Bnand4ckVtdGVLdkZ1bytFakxEWnlmTFozMmxhYUxYVk9uelFXMTFidURJUGxVU1M1UEJxS0g0TmVPL2gvbzh2aC80ZDZCcSttemFaNGc4V1JhSkw5bWtpaVJEb0pnc1pUSmdLRmFWVVZKQ2RwZkdEbWdEN2p1UEhlazJ2eEJzUEJqeVNEWEwzUzdqV0lZeEdkaHQ0SllJcENXNkE3N21MQTc1UHBYUCtMdmpuNFY4RStLSi9EK3FUM01lb3dqU1M2eDI1ZGYrSmpleVdWcnlQV2FKZ2Y3b3dUWHdoY2ZEKzZ1TlMxUysrRVh3NjhlZUgxSHd5dU5OMVdTKzA2K3Nacmk4YlV0TmU3Z2hhY0tXdkd0a3VmM2lFK1l3WGFXS0hIUldmdzhzNzd4OTRrdi9odjhPL0ZtaWVENTcvd0M5dkhxR2lYMXFydGJhN0pKZHZGSE9nWlVpUWhwT0FCODhoNGZjUUQ5RHFLL09Yd1A4SlBHSGlUNHNSNlo0cGoxYUR4WmQrSnRVLzRTRFVMZndoZnE5enBNcHVWQ1M2eEplaTBrczNna2pXT0tPRXNqQkFJOXlNeHp0QytHSHhyMXFiU3hyZWo2OWp4SDVId3UxbFpJWlZTRFM3STJKazFWdVBsV1lRNnNGZjdyZmFZY0hrWkFQMG51TGVLNnQ1SUo0MG1oa1VvOGNpaGxaU01FRUhxQ0s0ZjRkL0F2d044S2IyZTg4TGFCRnBsMU5iclorY1o1WjJqdDFPVmdpTWp0NVVRUFBscHRYSUhIQXI0MDhWV0hpZVA5bzZQeEpCNFIxZlRML1R2aURiaTVuc3ZDdXEzbDIramJ4QjU1MVR6REFiV1NOZ2Zza0VUYkFTV3hzZGhSMTc0SGEvNGYrRVBnM1ZXMFRVb29OVThYNmxjK09JOVMwUy8xbVNlMFNmVUJwd24wK0dhS2FhMGpNcU1JNHlGSG1KSVZjQTVBUDBWcnp2d1Y4ZlBCZnhCOFYrTy9EbWg2bTEzcXZncWRiZldJdktLaU5pSCs0VDk4Qm81RkpIUmtJcnk3NEYzbmlYNFQvc3NlSk5ZYlROYzhRWGRuTHFlb2FGb1RhRmNXVjAwSlpqYldzTms4OXhQSEVYLzFhU1B2VkhVRlZDNHJ5ejRlL0FyNG9mcy8rTHZoM3JlcWZZUEZFR3E2WGUrR1BFQjhPYVJjL2Fra3VqTmZyZDNiZWJJSkF0NFpGTWdXTlYrMHQySUFBUGVQQS83WVhnVHgxZStGWVk3UHhQb3R0NHFkWXRDMUxXdkQ5MWEyV295TkcwcVJ4M0JUeTl6SWpNb0xEY0ZPTW5pdXU4SmZIYndwNDAxRFI3VFQ1N2xXMWFmVkxXeWt1SURHa3MybjNCZ3VZZ1QvQUJobGRsSDhTSTdEaFRqeEw5bVA5bWZVSnZnOThHcnp4NzRwOFczeitIYkRUOVN0UEIyclFXdG5hNlpleHdZUU9rZHRIT3hpTEVLczBqWUlCT1NBYTVyd3Y0WjFYU2ZDUHdWMG03c0wzU2ZFWC9DNE5hMUMzZ3VZWGhtRnA1K3NTeXlGV0FQbFBiT2NOMElsUTg1RkFIMnBSUlJRQVVVVVVBRkZGRkFIbFh3Yi93Q1NpL0hiL3NjN2IvMUh0R3IxV3ZLdmczL3lVWDQ3ZjlqbmJmOEFxUGFOWHF0QUJSUlJRQVVVVVVBRkZGRkFCUlJSUUIrYi93QzAzRmRmOExRK0lkNWJhZHFHcHJwL3hOOFAzMXhEcHRuSmRUTERGcE9rdEk0ampWbUlBR2VCWG5YeG8wdlZ2aTlENHY4QUVPaWVGdGR0YlN4OEYzK2tRRyswNlcydTlTdUo1SW5XS08zZFJLVlFRc2NsUmxwQmpPRFgwenFYL0pkUGpWLzJNdG4vQU9tSFNxdlY0RmFweTFYcHN6OWR5M0JyRVlDbW5MU1VWK0Y3SGd2eEs4VFMvRkx3YkJiK0gvRGZpV2UrMFBVZFAxeVRUOVQwTzZzQmZSVzExSEpKQkc5eEdpTTVVRWhjOGxheS9GSHhLLzRXdjhVZmgzbzFoNFk4UTZYcDJuYTFGcWttdmFybzl6YXhDUkxhNUJ0TVNScVJJU1Z5YzdkdWVjNEZmUjFGYzZxSmREMlo0V2MzZHozdGZUZXp2MzBQa0ZmZ3I0Z0g3SzhmL0V3OFlIVi9MVi8rRVpKL2Q1KzJBN1BJOHJmamI4Mk0rL1NsOFFXdXVyOGFGMXVQdy9xTmxlV2ZpK0w3Uk5iYURmM053Mm03aEY1cHY5L2xHQjBJUDJlSkR0eVNjYldJK3ZhS3IyejF1am5lVnd0RlJsYXlYL2t0OWZ4UGxUdzc4THRZOFBhVjRDOFFhTm91b1czaldiWE5ZaXZyeTRTYmNMZVNMVVBKV2NIaFlkNjIyM2NBb0pVamxzbmhtOEVOZmVIN2VMUWZCZmlxRFhvL0FXdVdYaUNlL3dCUHVzM09weVdrYXFwZDF4Tks4Z2x3NlpEQmxBendCOXlVVTFYZDdreXlxbTRxS2VucDZhK1RkdFQ0djhiZURmRjE1NDUxZExoTlF0OVptYlRsOE4zbHY0YnU3NlcxaFdHSFBrWFNYTVVGcnRsRXBrV1VESXlUdURBRDNiNEMrQTE4UDNIalRXNzZ3dTdmV3RTOFNhdCsrdmpKdU5wOXRsYUVScTNDeEZTSEcwWU83UE9hOWFvcUpWWEtQS2IwY3ZoUnF1cmU3MS9IOWVuVFErWDllZ3ZuOEcrTnd1bTMyb2FucC94TnRiKzh0dE90WkxtYzI2WFZwTWtnaVJTekFXd2pQQVAzVFV2eFlnOFUvRnpVTC9YL0FBUG9tdTZKY2FMNFgxS3p0ci9VYk9UVDdtOHVMbG9kc01NY29XVDVWaGtPOGdBTTZZUFUxOUhXK2kyVnJxMTVxY051c2Q5ZVJ4eFhFeTVCa1dQZHN5T2hJM3R6MXdjZGhWMm43V3p1a1M4Qnp4Y1pTMGZiZlJ0cDMrZXZtZkdtamFCckdtK0UvR2srZzZScU56bzgybjJOckxwbHQ0WjFIUm9HbU4wUE5tOGw3cVM0bmtTSXY1dmxBZVlvQzdpYWcwdlJ0V3M5UDFmVHJ2UWRadWZBZi9DU2FmcUY3WWFiNGR2ZE9objA0MmpvNWd0R1o1UExGd2tSZUlFdVFwWXFBM1AybFJWZTNmWXkvc3VPbHBiZVhyNTdhNm84Vy9aZjBNYUxwZmowMjJpYXBvT2szbmltYTYwMjIxYTNsZ2xhMk5wYXFqcXNnREJNcXdBUDNRdTNncVFPUitHUGl6V0xEOW4rTHdScHVnK0t0SjhjcG85NWJXY3QzNGZ2SUxlSzdLeXRFVGNQRUkxRzdiaGkyTWtWOUwwVkh0THR0bzZvNE54akdNWldzbXR1amFlbmJiUStHckg0WjZ2cjN3LzhhV2RqcFdvVGJ2Qjg4VjNwbzhMM21uTGM2a0NqeEYydWJtUTNOMHJJK0pJMHdkeHkzS2l1ZzhlZUJiaUxVdkdWeDRPOE1haHBsdnFkbDRmdUJKQm9seURMcGlTWXZJQWkrVzVZS0l0OXNIU1ZrVWdEMCt4YUt2Mjd2ZjhBcit0RGsvc21ueTJ2L1ZtdE5kTi92UGovQUVQNFozL2lXejBXd2EwMVNid2ZjZU5iZVkyZHJvbDNvdHRGYkxwMXlzekpCSlBKTkhidklZMWJkc1VzV3dQbTU5cCtObWczbG5hK0JOYjByUjdqV0xMd3ByVWQ5Y2FUWXg3NW10L3M4MEc2S1BxN3grYXJCUnlRcHh6aXZWNktoMVhKcG5WVHdFS2RPVUU5WGJYMDFXOTlMOUQ1TCtLdmlYVVBqcjRxbDA3UXZET3U2WXVtZUg5ZVRUOVQxSFRiaTBHcHpUMkN4TGJ4ZVpHcFZnOGpFaHNEOXlwQlBaUEhWOTR1K0lOcnJ0ejRUMFB4TnB2bCtEN0t6TTE3cGR6YXlTT0w1R3U0WTBmeTJaeEJ2R0ZJTFpJVnVocjYxb3FsV1N0WmJHTXN2bE56YzZtc3Q3SzNTeXQyc2ZIbmgvdy9xK2phWGY2enBkanFzM2hxeDE3UTcwNmRwbmhlNzB5UGJETTMycVczdEpwNVpuTzFrOHdoVkRiTWpjUXhvOFpXZmlmeFpKck9yZjJQcTlsNFF1L0d4dXIyMTFUUWJ5NU05bU5LZ2pobGtzbzNpbWxnODVjbFFmbGJCWlRzWmErdzZLZnR0YjJKL3N5UEx5YzJuL0QrZDdhN1grWjh3ZUdkRTFLeDhNL0N1em5rdmhkdjQ1bHZOTmh1ckNTeGUzc2hiM1RPcXdTVFN5UncrWDVnVlhiSUVpQWdZQXI3WS9aQS93Qlo4WWYreHpqL0FQVEhwTmVjemFMWTNHc1d1cXkyeVNhaGF3eVFRWERaTFJwSVVMaGZUY1kwejMrVVY2Tit5Qi9yUGpEL0FOam5ILzZZOUpyc3drdWFxMzVmcWZOOFJZZjZ2Z1l4djl1UDRSYVBvV2lpaXZZUHpZS0tLS0FDaWlpZ0Fvb29vQUtLS0tBQ2lpaWdBb29vb0FLS0tLQUNpaWlnQW9vb29BS0tLS0FDaWlpZ0Fvb29vQUtLS0tBQ2lpaWdBb29vb0FLS0tLQUN2bDNWZitTdGZGRC9BTERkdC82YWRQcjZpcjVkMVgva3JYeFEvd0N3M2JmK21uVDY2c1A4VDlQMVJ5NGo0VjYvb3llaWlpdXM1QW9vb29BS0tLS0FDaWlpZ0Fvb29vQUtLS0tBQ2lpaWdBb29vb0FLS0tLQUNpaWlnQXJGOFVkZkRuL1l6NkYvNmRiV3Rxc1h4UjE4T2Y4QVl6NkYvd0NuVzFwaVByV2lpaXZKUFdDaWlpZ0Fvb29vQUs4cStEZi9BQ1VYNDdmOWpuYmYrbzlvMWVxMTVWOEcvd0Rrb3Z4Mi93Q3h6dHYvQUZIdEdvQTlWb29vb0FLS0tLQUNzL3hCNGYwN3hYb1dvYU5yRm5GcU9sYWhBOXRkV2s2N2tsamNGV1VqMElKclFvb0FaRkdzTWFScm5hb0NqY3hZNEhxVHlmeHA5RkZBQlJSUlFBVVVVVUFGRkZGQUJSUlJRQVZtWEhodlRMdnhGWmE3Tlp4eTZ2Wlc4MXJiWFQ1TFF4U3RHMHFyMkc0eFI1UFU3QlduUlFBVVVVVUFGRkZGQUJSUlJRQjVWOEcvK1NpL0hiL3NjN2IvQU5SN1JxOVZyeXI0Ti84QUpSZmp0LzJPZHQvNmoyalY2clFBVVVVVUFGRkZGQUJSUlJRQVVVVVVBZkdlcGY4QUpkUGpWLzJNdG4vNllkS3E5VkhVditTNmZHci9BTEdXei84QVREcFZYcStheEg4V1IrMzVOL3lMNlBvRkZGRmM1N0lVVVVVQUZGRkZBQlJSUlFBVVVVVUFGRkZGQUJSUlJRQVVVVVVBRkZGRkFCUlJSUUFVVVVVQUZkeit5Qi9yUGpEL0FOam5ILzZZOUpyaHE3bjlrRC9XZkdIL0FMSE9QLzB4NlRYbzRIK0kvVC9JK000ci93QnloL2pYNVNQb1dpaWl2Y1B5b0tLS0tBQ2lpaWdBb29vb0FLS0tLQUNpaWlnQW9vb29BS0tLS0FDaWlpZ0Fvb29vQUtLS0tBQ2lpaWdBb29vb0FLS0tLQUNpaWlnQW9vb29BS0tLS0FDdU8xLzROZUFQRmVyVDZycmZnYnczckdxWEczenIzVU5JdDU1cE5xaFYzTzZGamhWQUdUd0FCMnJzYUthYld3bWs5eno3L2hubjRWLzlFejhIL3dEZ2d0UC9BSTNSL3dBTTgvQ3Yvb21mZy84QThFRnAvd0RHNjlCb3F1ZVhjbmtqMlBQditHZWZoWC8wVFB3Zi93Q0NDMC8rTjBmOE04L0N2L29tZmcvL0FNRUZwLzhBRzY5Qm9vNTVkdzVJOWp6Ny9obm40Vi85RXo4SC93RGdndFAvQUkzUi93QU04L0N2L29tZmcvOEE4RUZwL3dERzY5Qm9vNTVkdzVJOWp6Ny9BSVo1K0ZmL0FFVFB3ZjhBK0NDMC93RGpkSC9EUFB3ci93Q2laK0QvQVB3UVduL3h1dlFhS09lWGNPU1BZOCsvNFo1K0ZmOEEwVFB3Zi80SUxULzQzUi93eno4Sy93RG9tZmcvL3dBRUZwLzhicjBHaWpubDNEa2oyUFB2K0dlZmhYLzBUUHdmL3dDQ0MwLytOMGY4TTgvQ3Yvb21mZy8vQU1FRnAvOEFHNjlCb281NWR3NUk5ano3L2hubjRWLzlFejhIL3dEZ2d0UC9BSTNSL3dBTTgvQ3Yvb21mZy84QThFRnAvd0RHNjlCb281NWR3NUk5ano3L0FJWjUrRmYvQUVUUHdmOEErQ0MwL3dEamRIL0RQUHdyL3dDaVorRC9BUHdRV24veHV2UWFLT2VYY09TUFk4Ky80WjUrRmY4QTBUUHdmLzRJTFQvNDNSL3d6ejhLL3dEb21mZy8vd0FFRnAvOGJyMEdpam5sM0RrajJQUHYrR2VmaFgvMFRQd2Yvd0NDQzAvK04wZjhNOC9Ddi9vbWZnLy9BTUVGcC84QUc2OUJvbzU1ZHc1STlqejcvaG5uNFYvOUV6OEgvd0RnZ3RQL0FJM1ZqVHZnVDhOZEgxQzF2N0Q0ZWVGYksrdFpWbmd1YmZSTGFPV0dSU0dWMFlKbFdCQUlJNUJGZHpSUnp5N2h5UjdCUlJSVUZoUlJSUUFVVVVVQUZlZitLZjJlL2haNDQxNjYxdnhKOE5QQi9pRFdycmI1K282cG9OcmMzRTIxUWk3NUhqTE5oVlZSazhCUU9ncjBDaWdEeXIvaGs3NElmOUViK0gvL0FJUzlqLzhBR3FQK0dUdmdoLzBSdjRmL0FQaEwyUDhBOGFyMVdpZ0R5ci9oazc0SWY5RWIrSC8vQUlTOWovOEFHcVArR1R2Z2gvMFJ2NGYvQVBoTDJQOEE4YXIxV2lnRHlyL2hrNzRJZjlFYitILy9BSVM5ai84QUdxUCtHVHZnaC8wUnY0Zi9BUGhMMlA4QThhcjFXaWdEeXIvaGs3NElmOUViK0gvL0FJUzlqLzhBR3FQK0dUdmdoLzBSdjRmL0FQaEwyUDhBOGFyMVdpZ0R5ci9oazc0SWY5RWIrSC8vQUlTOWovOEFHcVArR1R2Z2gvMFJ2NGYvQVBoTDJQOEE4YXIxV2lnRHlyL2hrNzRJZjlFYitILy9BSVM5ai84QUdxODAvYUQvQUdaZmc5b3ZnUFNyalQvaFA0SHNMaC9GdmhpMmFXMjhPV2NiTkZMcnRoRkxHU3NZSlY0M2RHWG95c3dPUVNLK29LOHEvYVcvNUoxcEgvWTUrRS8vQUZJZE9vQVArR1R2Z2gvMFJ2NGYvd0RoTDJQL0FNYW8vd0NHVHZnaC93QkViK0gvQVA0UzlqLzhhcjFXaWdEeXIvaGs3NElmOUViK0gvOEE0UzlqL3dER3FQOEFoazc0SWY4QVJHL2gvd0QrRXZZLy9HcTlWb29BOHEvNFpPK0NIL1JHL2gvL0FPRXZZLzhBeHFqL0FJWk8rQ0gvQUVSdjRmOEEvaEwyUC94cXZWYUtBUEt2K0dUdmdoLzBSdjRmL3dEaEwyUC9BTWFvL3dDR1R2Z2gvd0JFYitIL0FQNFM5ai84YXIxV2lnRHlyL2hrNzRJZjlFYitILzhBNFM5ai93REdxUDhBaGs3NElmOEFSRy9oL3dEK0V2WS8vR3E5Vm9vQThxLzRaTytDSC9SRy9oLy9BT0V2WS84QXhxai9BSVpPK0NIL0FFUnY0ZjhBL2hMMlAveHF2VmFLQU9mOEUvRDN3cjhOZEtsMHp3ajRaMGZ3cnBzMHh1WkxQUkxDS3poZVVxcW1RcEdxZ3NWUkJ1eG5DZ2RoWFFVVVVBRkZGRkFCUlJSUUFVVVVVQUZGRkZBSG4vaW45bnY0V2VPTmV1dGI4U2ZEVHdmNGcxcTYyK2ZxT3FhRGEzTnhOdFVJdStSNHl6WVZWVVpQQVVEb0t5ditHVHZnaC8wUnY0Zi9BUGhMMlA4QThhcjFXaWdEeXIvaGs3NElmOUViK0gvL0FJUzlqLzhBR3FQK0dUdmdoLzBSdjRmL0FQaEwyUDhBOGFyMVdpZ0R5ci9oazc0SWY5RWIrSC8vQUlTOWovOEFHcVArR1R2Z2gvMFJ2NGYvQVBoTDJQOEE4YXIxV2lnRHlyL2hrNzRJZjlFYitILy9BSVM5ai84QUdxUCtHVHZnaC8wUnY0Zi9BUGhMMlA4QThhcjFXaWdEeXIvaGs3NElmOUViK0gvL0FJUzlqLzhBR3FQK0dUdmdoLzBSdjRmL0FQaEwyUDhBOGFyMVdpZ0R5ci9oazc0SWY5RWIrSC8vQUlTOWovOEFHcVArR1R2Z2gvMFJ2NGYvQVBoTDJQOEE4YXIxV2lnRDh1ditDb0dzL0N6OW5yVGZDSGhYd0g4Sy9oL2FlTXRRdW90WHU1VThLMkxlVFl3eWZJakR5dWs4cWxmZFlwRlAzcSt1dmdyOEpmMmV2amg4S3ZEUGpuUlBnNThQeFlhMVpyY2VTZkROaXpRU2NyTEN4OHI3MGNpdWg5MU5kRiswZDRYMFcwOE4yZXZRYVJZUTY3ZWVMZkNGdmM2cEhiSXR6TkVuaUxUeWtieWdibVZTVGhTY0RQRmVxK0hmQytpK0ViR1N6MExTTERSYk9TYVM1ZTMwNjJTQ05wWE81NUNxQUFzeDVMZFNldEFIbjMvREozd1Evd0NpTi9EL0FQOEFDWHNmL2pWSC9ESjN3US82STM4UC93RHdsN0gvQU9OVjZyUlFCNVYvd3lkOEVQOEFvamZ3L3dEL0FBbDdILzQxUi93eWQ4RVAraU4vRC84QThKZXgvd0RqVmVxMFVBZVZmOE1uZkJEL0FLSTM4UDhBL3dBSmV4LytOVWY4TW5mQkQvb2pmdy8vQVBDWHNmOEE0MVhxdEZBSGxYL0RKM3dRL3dDaU4vRC9BUDhBQ1hzZi9qVkgvREozd1EvNkkzOFAvd0R3bDdIL0FPTlY2clJRQjVWL3d5ZDhFUDhBb2pmdy93RC9BQWw3SC80MVIvd3lkOEVQK2lOL0QvOEE4SmV4L3dEalZlcTBVQWVWZjhNbmZCRC9BS0kzOFA4QS93QUpleC8rTlYydmduNGUrRmZocnBVdW1lRWZET2orRmRObW1OekpaNkpZUldjTHlsVlV5RkkxVUZpcUlOMk00VURzSzZDaWdBb29vb0FLS0tLQUNpaWlnQW9vb29BS0tLS0FDaWlpZ0Fvb29vQUtLS0tBQ2lpaWdBb29vb0FLS0tLQUNpaWlnQW9vb29BS0tLS0FDaWlpZ0Fvb29vQUtLS0tBQ2lpaWdBb29vb0FLS0tLQUNpaWlnQW9vb29BS0tLS0FDaWlpZ0Fvb29vQUtLS0tBQ2lpaWdBb29vb0FLS0tLQUNpaWlnQW9vb29BS0tLS0FDaWlpZ0Fvb29vQUtLS0tBQ2lpaWdBb29vb0FLS0tLQUN2S3YybHYrU2RhUi93QmpuNFQvQVBVaDA2dlZhOHEvYVcvNUoxcEgvWTUrRS84QTFJZE9vQTlWb29vb0FLS0tLQUNpaWlnQW9vb29BS0tLS0FDaWlpZ0Fvb29vQUtLS0tBQ2lpaWdBb29vb0FLS0tLQUNpaWlnQW9vb29BS0tLS0FDaWlpZ0Fvb29vQUtLS0tBUEt2Mmx2K1NkYVIvMk9maFAvQU5TSFRxOVZyeXI5cGIva25Xa2Y5am40VC84QVVoMDZ2VmFBQ2lpaWdBb29vb0FLS0tLQUNpaWlnQW9vb29BS0tLS0FDaWlpZ0Fvb29vQUtLS0tBQ2lpaWdBb29vb0FLS0tLQUNpaWlnQW9vb29BS0tLS0FDaWlpZ0Fvb29vQUtLS0tBQ2lpaWdBb29vb0FLS0tLQUNpaWlnQW9vb29BS0tLS0FDaWlpZ0Fvb29vQUtLS0tBQ2lpaWdBb29vb0FLS0tLQUNpaWlnQW9vb29BS0tLS0FDaWlpZ0Fvb29vQUtLS0tBQ2lpaWdBb29vb0FLS0srZGZDSHdSK0hYeEsrTFh4eDFQeGQ0QThMK0t0U2g4VzJ0dEhlYTNvMXRlVEpFUEQra01JdzhpTVFvWjNPM09Nc1QzTkFIMFZSWGxYL0RKM3dRL3dDaU4vRC9BUDhBQ1hzZi9qVkgvREozd1EvNkkzOFAvd0R3bDdIL0FPTlVBZXEwVjVWL3d5ZDhFUDhBb2pmdy93RC9BQWw3SC80MVIvd3lkOEVQK2lOL0QvOEE4SmV4L3dEalZBSHF0RmVWZjhNbmZCRC9BS0kzOFA4QS93QUpleC8rTlVmOE1uZkJEL29qZncvL0FQQ1hzZjhBNDFRQjZyUlhsWC9ESjN3US93Q2lOL0QvQVA4QUNYc2YvalZIL0RKM3dRLzZJMzhQL3dEd2w3SC9BT05VQWVxMFY1Vi93eWQ4RVA4QW9qZncvd0QvQUFsN0gvNDFSL3d5ZDhFUCtpTi9ELzhBOEpleC93RGpWQUhxdGZuai93QUZTL2dUNDZ2SnZESHhLK0ZkeHJOdnJ0eGQyV2g2eFo2SFBKRTl5VnVWbDA2ZGdoR1dpdWNBTWVRelFrWTJacjY1L3dDR1R2Z2gvd0JFYitIL0FQNFM5ai84YW8vNFpPK0NIL1JHL2gvL0FPRXZZLzhBeHFnQzMrem44SFlmZ1A4QUJ6dzc0UFc0Ti9mMnNKbjFQVUdZczE3ZlNzWkxtWXNlVHVrWnNaNUM3UjJyMHF2S3YrR1R2Z2gvMFJ2NGYvOEFoTDJQL3dBYW8vNFpPK0NIL1JHL2gvOEErRXZZL3dEeHFnRDFXaXZLditHVHZnaC8wUnY0Zi84QWhMMlAvd0Fhby80Wk8rQ0gvUkcvaC84QStFdlkvd0R4cWdEMVdpdkt2K0dUdmdoLzBSdjRmLzhBaEwyUC93QWFvLzRaTytDSC9SRy9oLzhBK0V2WS93RHhxZ0QxV2l2S3YrR1R2Z2gvMFJ2NGYvOEFoTDJQL3dBYW8vNFpPK0NIL1JHL2gvOEErRXZZL3dEeHFnRDFXaXZLditHVHZnaC8wUnY0Zi84QWhMMlAvd0Fhby80Wk8rQ0gvUkcvaC84QStFdlkvd0R4cWdEMVdpdkt2K0dUdmdoLzBSdjRmLzhBaEwyUC93QWFvLzRaTytDSC9SRy9oLzhBK0V2WS93RHhxZ0QxV2l2RlAyY3ZDZWgrQi9GSHhzMFR3M28ybitIOUZ0ZkdjUGthZHBkcWx0Ync3dEEwZDIyUm9BcTVabVk0SEpZbnFhOXJvQUtLS0tBQ2lpaWdBb29vb0FLS0tLQUNpaWlnQW9vb29BS0tLS0FDaWlpZ0Fvb29vQUtLS0tBUEt2Mmx2K1NkYVIvMk9maFAvd0JTSFRxOVZyeXI5cGIvQUpKMXBIL1k1K0UvL1VoMDZ2VmFBQ2lpaWdBb29vb0FLS0tLQUNpaWlnQW9vb29BS0tLS0FDaWlpZ0Fvb29vQUtLS0tBQ2lpaWdBb29vb0FLS0tLQUNpaWlnQW9vb29BS0tLS0FDaWlpZ0Fvb29vQUtLS0tBQ2lpaWdBb29vb0FLS0tLQUNpaWlnQW9vb29BS0tLS0FDaWlpZ0Fvb29vQUtLS0tBQ2lpaWdBb29vb0FLS0tLQUNpaWlnQW9vb29BS0tLS0FDaWlpZ0Fvb29vQUtLS0tBQ2lpaWdBb29vb0FLOHErRGY4QXlVWDQ3ZjhBWTUyMy9xUGFOWHF0ZVZmQnYva292eDIvN0hPMi93RFVlMGFnRDFXaWlpZ0Fvb3J6cjlvcjRtM1B3WitCZmpueHZZMnFYdDlvZWt6M2R0QktDVWFVTGhONEhPM2NRVGpzRHlLQVBSYUsrU2ZpUG9uanY5blg0ZjZIOFNUOFd0ZjhYNnJhNmxwc2V1NlhxcHQyMHpWWWJxNml0NW83YUZJMU51eStkdWlLTWZ1QU52eWF2K0E5RjhZL3RLUitOL0ZyL0ZEeEg0TFcxOFFhbG9lZ2FYNGNlQ08zc0k3T2Q3ZFpibU9TTmpQTEk4YlNNcm5hRlpWQUgzcUFQcWVpdml2NFlmdEIvRXI0cEpvdDVwZHhhM0hpRzkrRm1zYWhCcDZGWTdDNzFxMjFGTFdHNEc3Z0k3S1NNbmJ0azlPYTFQZ0I0NDFPeStLWGhIdy9xL2p2eDdZNjdmMkZ6L2EvaFA0bWFWNWJhaGNMRXIrZHAxeWtLeEh5MlY5eVJTTXBqSk8zS2swQWZZRkZmUFhqcTg4UmZGajlvKzUrR3RuNHUxVHdYNFk4UCtITGJYTDU5QmtTQy8xSzR1WjU0bzBFckl4U0dOYmRpZGdCWnBGQklBNTRMVC8yaWZHSHdUOFkrSmZocmQyMS93REYvVkxQeFJwbWk2SmR6WE1GcGVOSGY2ZmMza2FYVWdRUmxvVGFPR2NLQ1k1RWJCSXd3QjloVVY4a2ZFYjlwcnhucmNuaDcvaEh2Q2R4cFBoci9oWXVqK0ZidnhMRHFzVWhrbFhVb1lMNkx5TmdKdHl3bWdFdTdMSCtCUWNpMzRKLzRLQitFL0czanJUTkh0YmJTMjB2V2IrNzAzUzVyYnhGYlhHcG1XQkptRWx6cDZqekxlR1VRT0VjbGpsbzl5cHZGQUgxWlJYeEQ0NC9hUDhBRWZ4SThPL0EzeERxRnQ0cytGWGhmeGpxRnhJMGZoZHpxbXFYZHAvWlVseEM0aWd0NVdDbVpSd0VZK1dON2JNa0x1ZUIvang4UlBoN2FuVDVmRDNpbjRqV0hpTHhaL1kzZ3lieFdrZWk2ck5iL3dCbU5jeVBjSzhFWkVTU3d6QVNQR0hLRXRodHFxd0I5aFVWODhMKzFkcUg5cXZxTCtCSkYrSGNQaVpQQ00zaVlhcWhtRjhib1diT3RwNWZ6VzYzUjhveWVZR1AzZ2hGTTBuOXJpNXVQQ045OFFOUzhCWHRsOEt4WTMrb1dYaVMzdmt1SjVZYlVPUTAxcUVYeVJNSTI4bytZK1NWRGJDd29BK2lxSytROUovNEtJYUZlYVA0Z2xtMFRUYjNVOU4wbURXNDdYdzE0bXR0WWlGdEpkUld6bTZsaFgvUm1oYWVKNVFWY0toWmxaOXBGYm1xL3RyTG8vdzUwVHhKY2FCb01iNnJyRTJrUmFoL3dsc0QrSGhzZzg0VE5xaVJNcUsvK3JVU1JJeGtCVWdBYmlBZlVGRmZPdDUrMVZyMnBIeVBDZncyazhRWDJuZUhMZnhMcjhFdXUyOEMyRU0vbStWQkJJaXlwY3pPTGVabHdVUXFGSmNic0RlK0YvN1NFM3hoK0lVMmtlRy9DVnhMNFZnMHZUOVdtOFRYTjZrU2lLOXN4YzJ5TEJ0TE01Qnd3eUFvd2M4aGFBUGJLS0tLQUNpaWlnRHlyNE4vOGxGK08zL1k1MjMvQUtqMmpWNnJYbFh3Yi81S0w4ZHYreHp0di9VZTBhdlZhQUNpaWlnQW9vb29BS0tLS0FDaWlpZ0Fvb29vQUtLS0tBQ2lpaWdBb29vb0FLS0tLQUNpaWlnRHlyOXBiL2tuV2tmOWpuNFQvd0RVaDA2dlZhOHEvYVcvNUoxcEgvWTUrRS8vQUZJZE9yMVdnQW9vb29BS0tLS0FDaWlpZ0Fvb29vQUtLS0tBQ2lpaWdBb29vb0FLS0tLQUNpaWlnQW9vb29BS0tLS0FDaWlpZ0Fvb29vQUtLS0tBQ2lpaWdBb29vb0FLS0tLQUNpaWlnQW9vb29BS0tLS0FDaWlpZ0Fvb29vQUtLS0tBQ2lpaWdBb29vb0FLS0tLQUNpaWlnQW9vb29BS0tLS0FDaWlpZ0Fvb29vQUtLS0tBQ2lpaWdBb29vb0FLS0tLQUNpaWlnQW9vb29BS0tLS0FDdkt2ZzMveVVYNDdmOWpuYmY4QXFQYU5YcXRlVmZCdi9rb3Z4Mi83SE8yLzlSN1JxQVBWYUtLS0FDc3Z4UjRaMHZ4cDRiMVRRTmJzNDlSMGZWTGFTenZMU2JPeWFHUlNyb2Nlb0o2YzFxVVVBZUU2SCt5YllXZHo0ZHQ5ZDhmZU1mR1hobnczY3czbWtlRzljdWJaclNDV0gvVU5JOGNDVFhIbEVBb0pwSEFLZ2tNUURVMnRmc3Mya3V1K0pMend6NC84WWVBOU04VFhMM3V0YU40ZnVMVmJhNnVKRkFsblF6VzhrbHZKSmdiMmhkTWtaR0crYXN2NDEvRVBYWS9IM2l6UmRGMVNiVExid244UHI3eEpQOW00YVc4bjgrR3ozSCs3R0xhNWZiM1pvei9BTStUZkEveC80eXZ0ZStHR3BlSFBFL3hLOFlhZmVXRFhQaktIeGpvYjJ1bHdSbXdlUlpMZTVsdElTWCswQ05WRVRTSzZ0endOMUFIdmQ1K3lmOFBMeTJqc1A3T3VJTkNqOElUZUNGMGFHYmJiRFRwWkkzWTV4NW5tZ3hyaVRmbmtrNWJtb2RCL1pwRm5yMmk2djRoK0luakR4cGQrSDQ1MDBMKzJKTE5CcHpTd05BMHdNRnRHWnBoRzdxSG1MNDNFNHp6WEUrRFAydXZGdnhEMG53VXVoZkNkditFaThYYVpKcituYVpxSGlHT0NLUFM0MGdEM1UweXd1VTNTM0NKR2dSbVlZWnZMNUF0YVIrMTlxZmo2R3lpOEFmRGk4OFRhdkZvOG1zYTFwdDFxa2RrK25oTHFlME50RzJ4MW51RFBhWEtxdnlJUkZrdU53b0E3VHhUK3pqYmE5cUhodlh0TzhhK0ovRHZqZlJOS1hSZitFc3NaYlo3elVMVVlKUzhTV0I0WnN1UE0vd0JXdUhaaXUwRWltK0gvQU5sdnd0b0xhTmR2cVd0NnBybGo0bEhpeTYxdlVMbU9TNzFPL0ZwTmFLYmhoR0Y4dFlaaXF4eExHcTdFMmdESVBtdml6L2dvSjRVOExlUHRVMFNXeXNJOU8wZlVMVFM5U2JVTmZ0clRWaFBPSWl4dDlOZjk1UEhGNTZpUnR5bktTQlZmWWE2VHd6KzEwbmliNHJhLzRSaThMb0k5SHVkUXRab2sxaUk2eXJXcXUzbXRwaktzbmtUQ1A5MUpHMG03ekV5cWc1QUJjdjhBOWozdy9mZUxFMUZmRnZpcXowS1B4UkQ0eWk4TFcxemJqVGsxUkxoYmhwZVlETHNlUlN6UitadHpJNUFVN1N1ajRPL1pjMDN3VHJOdWJEeG40clBoV3hudTduVHZDTFhjSzZkWlNYSG1lWmdwRUpwVVh6WkNrY3Nqb2hiSUhDNDh4c1AyeGwrSnZ3eDFUVzRkTi9zaTJ0NzdRQWx4NFk4VFd0M2RSZmE5VHQ0RGJYU05EdnRabDNnU3hOR2NvemhKQTN6TDEybGZ0WmFyZStLSVV1dmg5TFllRFg4Wlh2Z2crSVcxZU5wUHRjRTgwS1RDMjh2Smhkb2NGaTRaV0pHMWdOeEFPOTBMOW4zdzc0ZnNmaE5hMjE3cWp4L0RTM050cEJsbGpKblUyTDJXYmpFWTNIeTNKK1RaODJEMDRycHZGbnc4MDd4ajRrOEhhMWV6WFVWMTRXMUdYVTdKSUhVSkpLOXBQYWtTQXFTVjJYRGtCU3AzQmVjWkI4ZThBL3RZYW40MjhWZkRpQ1g0ZVhlbWVGUGlFOTIyZ2EvSnFjY2pOQkRheTNLUFBiaEFZbWxTTGNpQm0rVnNzUVJ0cWorMHRxL2kyeCtKbmg4VFRlUDlQK0drT2xTelhGOThPTGRMbTdHb21VQmZ0VWF4eVRlUXNRTEw1YWtGaTI0RUxpZ0RxNGYyVmRFdC9HTDZtbmlieENQRGJlSVArRXFQZzR5VzUweisxUE04N3p3VEQ1NEhuZnZ2TEV1enpNTmpqRlZySDlrSHdyRmE2bHBGL3IzaVBXZkI5eEJxRnRhZUZMeTdpWFQ5UGp2UXduRVBseEpLZUhjSjVraitXR08zSFd2TkxIOXRUVGZoL3dDQlBoL3BsejRyOE8vRUh4RnJWcGZYZi9DUmExcTBQaG15ZTF0N2t4QXpOT2cyM1IzSkdZVmpCTHh5azdGV3R5Mi9iYXZmRjhkdE40QitHdDk0dHQzOEZwNHpta2ZWWWJZUXhtVzdoTnJ3cjc1akphTXE3TXEyU2NnTGxnRHQ5Ty9aamt0OUgxQzJ2dmluNCsxVy9rZ3RyYlQ5VW0xQzNobTB5T0NWWlkvS1NHQkluWXNpaDJtU1F5S05yWlVrR3JaL3NuMm1rNlhkSFMvSC9pclMvRVY5cWt1cmFqcnRzTEFOZlN5UVJXOGlTMmh0VGFOR1k0WXdCNU9RVjNaSkxFNFBqUDhBYWswM1g3alJiYnc5RHFjMmp5djRWdjVkYjB1OGpod2RWMUdPTzN0V0R4T0dWb3R6eWdZUGxzRkJVdUdYUzBuOXF5OHZOSTFMeG5kK0E3eTIrRkZzdXFQSDRxaHZsbW5NZGlKekpOTFpoQVk0cERieUxHMjlpeEtibFRjS0FJaCt4VDRhMG5UN2F5OEwrTHZGWGc2M2ZSUjRlMVVhVFBiRTZ2Wmg1WkFKdk5nY0pJR3VKOFNRaU5sRXJBWUFYYjZwNEYrRXVoZkRuWE5kMUxSUmNRLzJ0Rll3UGFPeW1HQ08wdHhCQ3NRQ2dnYkFNN2kzUFRIU3ZuM3dyKzE4djdRR2xlSXZDbmgyWFROQThZWEhobWZ4Rm9kem9IaU8xMWt3dEN5YllyeFljZVRLSGtoM1FuY3JvWkFIT0dGZlJYd2w4ZXhmRlA0VytFZkdVRVAyYUxYOUp0ZFRFQk9URjUwU3lGUHdMWS9DZ0RyS0tLS0FDaWlpZ0R5cjROLzhsRitPMy9ZNTIzL3FQYU5YcXRlVmZCdi9BSktMOGR2K3h6dHYvVWUwYXZWYUFDaWlpZ0Fvb29vQUtLS0tBQ2lpaWdBb29vb0FLS0tLQUNpaWlnQW9vb29BS0tLS0FDaWlpZ0R5cjlwYi9rbldrZjhBWTUrRS93RDFJZE9yMVd2S3YybHYrU2RhUi8yT2ZoUC9BTlNIVHE5Vm9BS0tLS0FDaWlpZ0Fvb29vQUtLS0tBQ2lpaWdBb29vb0FLS0tLQUNpaWlnQW9vb29BS0tLS0FDaWlpZ0Fvb29vQUtLS0tBQ2lpaWdBb29vb0FLS0tLQUNpaWlnQW9vb29BS0tLS0FDaWlpZ0Fvb29vQUtLS0tBQ2lpaWdBb29vb0FLS0tLQUNpaWlnQW9vb29BS0tLS0FDaWlpZ0Fvb29vQUtLS0tBQ2lpaWdBb29vb0FLS0tLQUNpaWlnQW9vb29BS0tLS0FDaWlpZ0FyeXI0Ti84bEYrTzMvWTUyMy9xUGFOWHF0ZVZmQnYvQUpLTDhkdit4enR2L1VlMGFnRDFXaWlpZ0Fvb29vQThmOGRmQm1ieEo4V0xyWEk5eDBYeE40VHVmQ1d2K1RJc2M4TVlaNUxhZVBjQ0NSNTEwaEdDY3l4bkdGYXZSZkQvQUlTcy9EZmdyVGZERnRKTzloWWFmRnBzVWtyQXltTkl4R0N4QUEzWUF5UUFNOXEyNktBUEU3cjlsblNiVFEvaDVhK0d2RnZpVHdqcS9nZlIvd0N3Tk4xN1RYdFpMcWF4TWNTUERjTE5BOE1nYnlJbno1WUlkQVZ4eURUdlAyUC9BQTdGcCtqMnZoL3hWNHE4SUd6MFp2RDk3YzZOZHdMUHF0azBqeXN0eEpKQzVFaGtsbWZ6WXZMY0dhVERESXg3eFJRQjRwSit5enBOdDRzdk5TMGJ4ZDRwOE42RnFWOWI2bnFmaGpTYnVLS3l2cm1GSTBWMmtNUnVFRExERUpGamxVT0VHNGN0bEp2MlY5STFMeHBEcm1yZUx2RkdzV2RsZDMxOXBla1hWekI1ZW16WGNVMFV4aXVGaEYxc0MzRXV5TnBpcVpHQjhxYmZiS0tBUG4rSDlqblFiejdkUDRoOFllS1BGT3AzQ2FkYnBxZW9OWngzRVZ2WlgwVjdCRVdpdGtFdVpZRUR5U2gzSzVBWmM1cnI0ZjJkL0RjT2tXMm5DODFScmUzOFlUK05WTFN4bGpleTNVdHkwWi9kNDhuZk13QzQzYlFCdUp5VDZqUlFCOGUvQ0Q5bTd4aG9QeGMrSDkxZldlcjZKNFI4Qk5xTGFmWVhtdjIxOXA4YXpRUGJ4eFdLUndyT1UyeXN4YTZZdEdFQ0prRW12Y2ZIM3dMWHhaNDZoOFo2RjR4OFFlQS9FLzJCZEt1cjdRdnNzaTNsb3NqU0pITEZkUVRSa28wa2hWd29ZYjI1SU9LOVJvb0E4Ry80WkIwRFI3ZlJKdkN2aXZ4UDRROFJhYXQvSEo0aTArZTNtdmI5TDJjWEYyTGo3UkRKRzVlWUNRRUlwUmdOdTBjVjIvZ2Y0SmFKNEI4VUpyOWxmNnZmYWdQRDluNGNaOVR2UHRKbGd0cHA1a2xkMkc5cFdlNWszTVd3ZU1LTWMraFVVQWVIZUUvMlBmQXZnbndaZGVHZEtuMWVMVDdqeFRhZUt6SkpjbzhxejJzOEUxdmJLeGo0dG94YlJSTEhqSWpHQTJUdXAxbit5WDRZaHVOU3RMdlhmRVdwK0Q3dDlTa2k4RzNWMUVOTHRXdjFsVzYyQklsbFpXRTgyMVpKR1ZESXhVRGpIdDlGQUhnc1h3QTEvd0FBK0RmRVA5Z2VOdkV2alR4QkpvYjZEb1Z2NG12WUZ0Tk9qZkNxNVNDS0lTTW1GWnBKTjhwV1BhcEc0NTliOEFlRHJQNGQrQlBEbmhYVDJackRROU50dE10MllZSmpoaVdOU2ZmQ2l0K2lnQW9vb29BS0tLS0FQS3ZnMy95VVg0N2Y5am5iZitvOW8xZXExNVY4Ry84QWtvdngyLzdITzIvOVI3UnE5Vm9BS0tLS0FDaWlpZ0Fvb29vQUtLS0tBQ2lpaWdBb29vb0FLS0tLQUNpaWlnQW9vb29BS0tLS0FQS3YybHYrU2RhUi93QmpuNFQvQVBVaDA2dlZhOHEvYVcvNUoxcEgvWTUrRS84QTFJZE9yMVdnQW9vb29BS0tLS0FDaWlpZ0Fvb29vQUtLS0tBQ2lpaWdBb29vb0FLS0tLQUNpaWlnQW9vb29BS0tLS0FDaWlpZ0Fvb29vQUtLS0tBQ2lpaWdBb29vb0FLS0tLQUNpaWlnQW9vb29BS0tLS0FDaWlpZ0Fvb29vQUtLS0tBQ2lpaWdBb29vb0FLS0tLQUNpaWlnQW9vb29BS0tLS0FDaWlpZ0Fvb29vQUtLS0tBQ2lpaWdBb29vb0FLS0tLQUNpaWlnQW9vb29BS0tLS0FDdkZMYncvOEFGUHdQOFFQaUxmOEFodncxNFA4QUVHaStKdGFnMWVDYlZQRkYxcDF4RHQweXhzMmplSk5Pblg3MW16QmhKeUhIQUlyMnVpZ0R5ci9oSlBqZi93QkU4K0gvQVA0WGw5LzhwcVArRWsrTi93RDBUejRmL3dEaGVYMy9BTXBxOVZvb0E4cS80U1Q0My84QVJQUGgvd0QrRjVmZi9LYWovaEpQamY4QTlFOCtILzhBNFhsOS93REthdlZhS0FQS3YrRWsrTi8vQUVUejRmOEEvaGVYMy95bW8vNFNUNDMvQVBSUFBoLy9BT0Y1ZmY4QXltcjFXaWdEeXIvaEpQamYvd0JFOCtIL0FQNFhsOS84cHFQK0VrK04vd0QwVHo0Zi93RGhlWDMvQU1wcTlWb29BOHEvNFNUNDMvOEFSUFBoL3dEK0Y1ZmYvS2FqL2hKUGpmOEE5RTgrSC84QTRYbDkvd0RLYXZWYUtBUEt2K0VrK04vL0FFVHo0ZjhBL2hlWDMveW1ybi9ISHhZK01QZ0hSYmJVOVErRy9nZWEzbjFQVHRLVmJieDFlTXdsdkwyR3ppWWh0SEEyaVM0UXNjNUNoaUFUZ0gzV3ZLdjJsdjhBa25Xa2Y5am40VC85U0hUcUFEL2hKUGpmL3dCRTgrSC9BUDRYbDkvOHBxUCtFaytOL3dEMFR6NGYvd0RoZVgzL0FNcHE5Vm9vQThxLzRTVDQzLzhBUlBQaC93RCtGNWZmL0thai9oSlBqZjhBOUU4K0gvOEE0WGw5L3dES2F2VmFLQVBLditFaytOLy9BRVR6NGY4QS9oZVgzL3ltby80U1Q0My9BUFJQUGgvL0FPRjVmZjhBeW1yMVdpZ0R5ci9oSlBqZi93QkU4K0gvQVA0WGw5LzhwcVArRWsrTi93RDBUejRmL3dEaGVYMy9BTXBxOVZvb0E4cS80U1Q0My84QVJQUGgvd0QrRjVmZi9LYWovaEpQamY4QTlFOCtILzhBNFhsOS93REthdlZhS0FQS3YrRWsrTi8vQUVUejRmOEEvaGVYMy95bW8vNFNUNDMvQVBSUFBoLy9BT0Y1ZmY4QXltcjFXaWdEelQ0TCtFL0ZXZzMzeEExbnhkWjZQcDJwZUovRUNhckhZNkpxTXQvREJFbW0yTm1GTTBsdkFTeGF6ZHNlWGdCd01ubXZTNktLQUNpaWlnQW9vb29BS0tLS0FDaWlpZ0Fvb29vQUtLS0tBQ2lpaWdBb29vb0FLS0tLQUNpaWlnRHlyOXBiL2tuV2tmOEFZNStFL3dEMUlkT3IxV3ZLdjJsditTZGFSLzJPZmhQL0FOU0hUcTlWb0FLS0tLQUNpaWlnQW9vb29BS0tLS0FDaWlpZ0Fvb29vQUtLS0tBQ2lpaWdBb29vb0FLS0tLQUNpaWlnQW9vb29BS0tLS0FDaWlpZ0Fvb29vQUtLS0tBQ2lpaWdBb29vb0FLS0tLQUNpaWlnQW9vb29BS0tLS0FDaWlpZ0Fvb29vQUtLS0tBQ2lpaWdBb29vb0FLS0tLQUNpaWlnQW9vb29BS0tLS0FDaWlpZ0Fvb29vQUtLS0tBQ2lpaWdBb29vb0FLS0tLQUNpaWlnQW9vb29BS0tLS0FDaWlpZ0Fvb29vQUtLS0tBQ2lpaWdBcnlyOXBiL0FKSjFwSC9ZNStFLy9VaDA2dlZhOHEvYVcvNUoxcEgvQUdPZmhQOEE5U0hUcUFQVmFLS0tBQ2lpaWdBb29vb0FLS0tLQUNpaWlnQW9vb29BS0tLS0FDaWlpZ0Fvb29vQUtLS0tBQ2lpaWdBb29vb0FLS0tLQUNpaWlnQW9vb29BS0tLS0FDaWlpZ0R5cjlwYi9rbldrZjhBWTUrRS93RDFJZE9yMVd2S3YybHYrU2RhUi8yT2ZoUC9BTlNIVHE5Vm9BS0tLS0FDaWlpZ0Fvb29vQUtLS0tBQ2lpaWdBb29vb0FLS0tLQUNpaWlnQW9vb29BS0tLS0FDaWlpZ0Fvb29vQUtLS0tBQ2lpaWdBb29vb0FLS0tLQUNpaWlnQW9vb29BS0tLS0FDaWlpZ0Fvb29vQUtLS0tBQ2lpaWdBb29vb0FLS0tLQUNpaWlnQW9vb29BS0tLS0FDaWlpZ0Fvb29vQUtLS0tBQ2lpaWdBb29vb0FLS0tLQUNpaWlnQW9vb29BS0tLS0FDaWlpZ0Fvb29vQUtLS0tBQ2lpaWdBb29vb0FLS0tLQUNpaWlnQXJ5cjlwYi9BSkoxcEgvWTUrRS8vVWgwNnZWYStidjJyUGp0NEE4UFFXWGdyV1BGV242TjRsdHZFUGhQV0hzdFRjMm9hekhpQ3lacGtra0NwSXFyREt6YkdPd1JzV3dBYUFQcEdpdVcrRzN4TzhNL0Y3d3RINGs4SWFtTlowS1dlYTNpdmtna2pqbGVLUm81Q2hkVjNxSFZodlhLbkJ3VFhVMEFGRkZGQUJSUlJRQVVVVVVBRkZGRkFCUlJSUUFVVVVVQUZGRkZBQlJSUlFBVVVVVUFGRkZGQUJSUlJRQVVVVVVBRkZGRkFCUlJSUUFVVVVVQUZGRkZBSGxYN1MzL0FDVHJTUDhBc2MvQ2YvcVE2ZFhxdGVWZnRMZjhrNjBqL3NjL0NmOEE2a09uVjZyUUFVVVVVQUZGRkZBQlJSUlFBVVVVVUFGRkZGQUJSUlJRQVVVVVVBRkZGRkFCUlJSUUFVVVVVQUZGRkZBQlJSUlFBVVVVVUFGRkZGQUJSUlJRQVVVVVVBRkZGRkFCUlJSUUFVVVVVQUZGRkZBQlJSUlFBVVVVVUFGRkZGQUJSUlJRQVVVVVVBRkZGRkFCUlJSUUFVVVVVQUZGRkZBQlJSUlFBVVVVVUFGRkZGQUJSUlJRQVVVVVVBRkZGRkFCUlJSUUFVVVVVQUZGRkZBQlhtbXVmdERlRDlCOFRheG9Fa1hpalVkUzBlYU8ydnhvbmcvVjlUaGdsZUNLZFl6TmJXc2tlN3lwb24yaHNnT000cjB1dkt2ZzMveVVYNDdmOWpuYmYrbzlvMUFCL3dBTkxlRWYrZ1I4UVA4QXczSGlILzVCby80YVc4SS85QWo0Z2Y4QWh1UEVQL3lEWHF0RkFIbFgvRFMzaEgvb0VmRUQvd0FOeDRoLytRYVArR2x2Q1A4QTBDUGlCLzRianhEL0FQSU5lcTBVQWVWZjhOTGVFZjhBb0VmRUQvdzNIaUgvQU9RYVArR2x2Q1AvQUVDUGlCLzRianhEL3dESU5lcTBVQWVWZjhOTGVFZitnUjhRUC9EY2VJZi9BSkJvL3dDR2x2Q1AvUUkrSUgvaHVQRVAvd0FnMTZyUlFCNVYvd0FOTGVFZitnUjhRUDhBdzNIaUgvNUJvLzRhVzhJLzlBajRnZjhBaHVQRVAveURYcXRGQUhsWC9EUzNoSC9vRWZFRC93QU54NGgvK1FhK1F2OEFnb2Q0QjhOZnRhZUdmQ2x4NGMwenh0WStMdEcxQklmdFZ4OE92RUtxMm56TUZuRGY2RDh4andzZ0dlaXlBY3ZYNkpVVUFlRS9EejR0ZkRyNFgrQmRCOEphRG9IeEF0dEgwV3ppc2JXTS9EanhEdTJJb1hjeCt3Y3NjWko3a2s5NjZIL2hwYndqL3dCQWo0Z2YrRzQ4US84QXlEWHF0RkFIbFgvRFMzaEgvb0VmRUQvdzNIaUgvd0NRYVA4QWhwYndqLzBDUGlCLzRianhELzhBSU5lcTBVQWVWZjhBRFMzaEgvb0VmRUQvQU1OeDRoLytRYVArR2x2Q1AvUUkrSUgvQUlianhELzhnMTZyUlFCNVYvdzB0NFIvNkJIeEEvOEFEY2VJZi9rR2ovaHBid2ovQU5BajRnZitHNDhRL3dEeURYcXRGQUhsWC9EUzNoSC9BS0JIeEEvOE54NGgvd0RrR2ovaHBid2ovd0JBajRnZitHNDhRLzhBeURYcXRGQUhsWC9EUzNoSC9vRWZFRC93M0hpSC93Q1FhUDhBaHBid2ovMENQaUIvNGJqeEQvOEFJTmVxMFVBY3A4UGZpZG9IeFFzOVV1TkJrMUQvQUlsZDcvWjk3YjZwcE4zcHR4YnorVEZPRWVHNmlqa0dZcDRuQjI0SWNZSnJxNjhxK0RmL0FDVVg0N2Y5am5iZitvOW8xZXEwQUZGRkZBQlJSUlFBVVVVVUFGRkZGQUhCNng4YlBDK2k2OXFlalNycjE1ZjZiS2tGMk5MOE42bGZSd3lORWt5b1pZTGQwM2VYTEcyQTJRSEdhcmY4TDY4TC93RFBoNHYvQVBDSjFuLzVFcW40Qi81SHo0dGY5ak5CL3dDbWJUSzdtc3BWTE94U2ljbC93dnJ3di96NGVMLy9BQWlkWi84QWtTai9BSVgxNFgvNThQRi8vaEU2ei84QUlsZGJSVSswOGg4cHlYL0MrdkMvL1BoNHYvOEFDSjFuL3dDUktQOEFoZlhoZi9udzhYLytFVHJQL3dBaVYxdEZIdFBJT1U1TC9oZlhoZjhBNThQRi93RDRST3MvL0lsSC9DK3ZDLzhBejRlTC93RHdpZFovK1JLNjJpajJua0hLY2wvd3Zyd3Yvd0ErSGkvL0FNSW5XZjhBNUVvLzRYMTRYLzU4UEYvL0FJUk9zLzhBeUpYVzBVZTA4ZzVUa3Y4QWhmWGhmL253OFgvK0VUclAvd0FpVWY4QUMrdkMvd0R6NGVML0FQd2lkWi8rUks2MmlqMm5rSEtlSS9ITDRxYVY0dThGNmJZNlRvM2pDOHVvdkUvaDIvZU1lRE5YWEVGdHJWbGNUdmxyVUQ1WW9aR3gxTzNBQkpBUG9QOEF3dnJ3di96NGVMLy9BQWlkWi84QWtTdXRvbzlwNUJ5bkpmOEFDK3ZDL3dEejRlTC9BUHdpZFovK1JLUCtGOWVGL3dEbnc4WC9BUGhFNnovOGlWMXRGSHRQSU9VNUwvaGZYaGYvQUo4UEYvOEE0Uk9zL3dEeUpSL3d2cnd2L3dBK0hpLy9BTUluV2Y4QTVFcnJhS1BhZVFjcHlYL0MrdkMvL1BoNHYvOEFDSjFuL3dDUktQOEFoZlhoZi9udzhYLytFVHJQL3dBaVYxdEZIdFBJT1U1TC9oZlhoZjhBNThQRi93RDRST3MvL0lsSC9DK3ZDLzhBejRlTC93RHdpZFovK1JLNjJpajJua0hLY2wvd3Zyd3Yvd0ErSGkvL0FNSW5XZjhBNUVvLzRYMTRYLzU4UEYvL0FJUk9zLzhBeUpYVzBVZTA4ZzVUa3Y4QWhmWGhmL253OFgvK0VUclAvd0FpVjBmZ3Z4OW8zeEF0YitmUnBMd2l3dXZzVjFEZjZmY1dNME0zbFJ5N1dpbmpSeGxKWTJCMjRJWVlOV3E0L3dDRXYvSTNmRm4vQUxHaUgvMHphWlZ4bHpNbHF4NlJSUlJXZ2dvb29vQUtLS0tBQ3ViOGNmRUxRL2gxWldOMXJrMTFHbDlkZllyYU94MCs0dlpwWnZMa2wyckZCRzduNUlwR0p4Z0JUazEwbGVVZkhiL2tNL0MzL3NhSlAvVFBxVlhUanp6VWU1RTVjc1hMc1d2K0dpdkIzL1BIeFYvNFJ1c2YvSWxIL0RSWGc3L25qNHEvOEkzV1Ava1NvYUs5ZjZoRCtZOHY2N0xzVGY4QURSWGc3L25qNHEvOEkzV1Ava1NqL2hvcndkL3p4OFZmK0VickgveUpVTkZIMUNIOHdmWFpkaWIvQUlhSzhIZjg4ZkZYL2hHNngvOEFJbEgvQUEwVjRPLzU0K0t2L0NOMWovNUVxR2lqNmhEK1lQcnN1eE4vdzBWNE8vNTQrS3YvQUFqZFkvOEFrU2ovQUlhSzhIZjg4ZkZYL2hHNngvOEFJbFEwVWZVSWZ6QjlkbDJKditHaXZCMy9BRHg4VmY4QWhHNngvd0RJbEgvRFJYZzcvbmo0cS84QUNOMWovd0NSS2hvbytvUS9tRDY3THNUZjhORmVEdjhBbmo0cS93RENOMWovQU9SS1ArR2l2QjMvQUR4OFZmOEFoRzZ4L3dESWxRMFVmVUlmekI5ZGwySnYrR2l2QjMvUEh4Vi80UnVzZi9JbEgvRFJYZzcvQUo0K0t2OEF3amRZL3dEa1NvYUtQcUVQNWcrdXk3RTMvRFJYZzcvbmo0cS84STNXUC9rU2ovaG9yd2Qveng4VmYrRWJySC95SlVORkgxQ0g4d2ZYWmRpYi9ob3J3ZC96eDhWZitFYnJIL3lKUi93MFY0Ty81NCtLdi9DTjFqLzVFcUdpajZoRCtZUHJzdXhOL3dBTkZlRHYrZVBpci93amRZLytSS1ArR2l2QjMvUEh4Vi80UnVzZi9JbFEwVWZVSWZ6QjlkbDJKdjhBaG9yd2Qveng4VmYrRWJySC93QWlVZjhBRFJYZzcvbmo0cS84STNXUC9rU29hS1BxRVA1Zyt1eTdFMy9EUlhnNy9uajRxLzhBQ04xai93Q1JLUDhBaG9yd2Qveng4VmYrRWJySC93QWlWRFJSOVFoL01IMTJYWTB0RCtPM2hIeEQ0ZzAzUmJhVFdyZlVOU2tlRzBYVXZEdW8yVWNyckU4cklKSjdkRTNlWEZJMkMyU0ZPSzlCcnduV3YrU2xmQ2ovQUxHRzQvOEFUUHFWZTdWNXVJcEtqUGxSNkZHbzZzT1poUlJSWE9iaFJSUlFBVVVVVUFGRkZGQUJSUlJRQVVVVVVBRkZGRkFCUlJSUUFVVVVVQUZGRkZBQlJSUlFBVVVVVUFGRkZGQUJSUlJRQVVVVVVBRmVWZkJ2L2tvdngyLzdITzIvOVI3UnE5VnJ5cjROL3dESlJmanQvd0JqbmJmK285bzFBSG8ydDYvcG5oblQzdjhBVjlSdE5Lc1krSHVyNmRZWWwrck1RQlVsanExanFtblI2aFozbHZkMkVpbDB1b0pWZUpsSFVoZ2NFY0htdm03NGg2Ym9IaTM5dHp3em9QajYxdE5SMEdId1pKZitHZFAxWkZleW0xTVhoUzhkVWY1WG5TQTIyMFlKVlhrSXh5YStmL2laSG9uaC93QVIvRnp3NzRkUDltZkExdkdQaEt6OFR4NlhJSXRPdFRPNy93QnF4b1VJV09OZ2JCWndwQUhtT0NPV0JBUDBGMEh4ZG9YaW9YQjBYV3RPMWdXN2JKdnNGMUhQNWJlamJDY0hnOWZTbTZoNHo4UDZScGR0cWQvcnVtMldtM0xLc0Y1Y1hrY2NNcFBRSzVPR0o3WU5mTlB4QzhJK0N2QTM3Um53TUh3MjBqU2RFOFNYazk5QnFNSGg2R0tDT2JRVnNaV2MzQ1JBQm8xbit5K1d6REFZNFU4MTQzOEh2QjdlTS9BLzdPeDBlWHdmNGs4VTZSOE9tbGk4RitQTFNVMmM5dE5MRUh1N2FkVWRVblV3Q052a2NoSEdRb2JKQVAwUFc0aWEzRTRsUXdGZDRrRERidHhuT2VtTWQ2ek5JOFlhRDRnbmFEUzliMDdVcGxYYzBkbmR4eXNCNmtLVHhYZ1A3Ty9pUHc1Tit6WnJlazZQcEsrRS9zTnhyMWgvWUIxSkwyR0dhR2FYN1FsbktBdm1XeXUveWJWQVZTRndNVjgwL0NYdzRmQzlqK3lKNGx2TkQrSCtrd1NOcGx0SGRlRm5LZUlyNXJuVEdpVDdRREVvZUxNZ2tuQVppTnVjNEJOQUg2TFErSzlFdU5jbDBTTFdOUGsxbUZROG1uSmRJYmhGSXlDWTg3Z01lb3BrSGpEUWJyVlcweUhXOU5tMUpYYU0yY2QzRzB3WmM3bEtBNXlNSEl4eGl2Z1d6MFBSL0JmZzNTdkcxeG92aEw0amVCcmp4d21xUWVOdEprazByeGRiM3MrcWtqem81SWlaNUVsazhsNHhKR3hqVXJzQUdLZjRYL1ovMXo0NGFIOFZ0TDB6d040RXNoZC9FanhBWS9pRmZYVG5YTlBhUFZwSDh5Q0pMVE85Q3VFUDJnRDFHTXFRRDczbDhZYURCcTM5bHlhM3BzZXA3Z24ySnJ1TVRiaU1nYk03c2tFY1k3MXNWOEU2MThGZFYrTS94RS9hVTBLdytIWGdIeEVtcGE2bW5ueFI0cXVuVzkweDMwZXlBYUdKTFIyYlp1RWk3Wm9qdkp4dHh1cnBmRy94TStLUHdwaStKMzJUeG5iWFdpL0R2UzlEMDIyaHZ0TWpjM056ZFc4VVV0N2RTOE41Y1RQOW9LcmduREFzRkdDQWZhTlF3M2x2Y1hFOEVVOGNrMEJBbWpSd1dqSkdRR0hiSUlQUGF2amJ4eDhhZmlOOEsvRVdzZUJCNCt0dkZEWFRlR2toOGI2aHBsckgvWWo2bmZUMjh2bXh3aElYWHlvTjhPNGNHUlE1WlNDY3J3UDhRUEV2dy84QWoxNGswMjQ4WTIzaUwrMGZpWnBQaC9WTllhMGhoTnpibnc3TktzVGhRRVNRU3h3b1RIdHl5NHdOeFdnRDdrb3I0ODA3NDdlTlBpWjQvdGZDT2xlTm9QREdsWDNpZnhOYXA0bXRiTzFuazhuVGpickRad2lWR2lMTVpwSFoyVm1Ld050UDhRNDd4WiswMThWcjdVZFVzL0RtdHg2amIrRi9DRm5yYmE5b1Z2cE1lbTZ4UEtiZ2Zhcms2amRRdEhabnlGSCtqWklMU0hmanl3d0I5NlZTdmRhMC9UWlZpdTcrMnRaR1R6QWsweW9TdTVVM0FFOU56b3VmVmxIY1Y0TjhDL0hIeEErSlh4azhmejZ6cnR2cC9oWFFEcGx2YitHcld6aGtiejduU0xPNmwzM1F5V1ZKSm0yN2V1NDVZcnRBOGcvYU8xV2ZWTkwvQUdtZFllOGdzTlMwSFVmQzJoNmZjYWhreFdkdWtsbGVDUmx5QUVhYTdsWnNITENNWlB5akFCOXkwVjhiZUpmaWw4V1BCK3JlT1BCT21lTnJQeHRxRmxMb0VsbHJVa09uMkY4RGV5WEF1TENFT0Z0WHVSRmJDU0lTQURFb0RGaVZ6VThML0dqeDk0KzhXZkR6d1hEOFNicnd6UGVMNG1nMXE5MVRRTEdEVlZuc0pMUHlvREhtUzNFeUxjTVdlTU5HNmhpRkJ3VkFQdFNpdmx6NGNmdE4rUGRVK0JjWGltNzhBWHZpYjdMbytyM2NuaXJUNXJTRFQ3dVN5ZTdTSmhibWY3UVB0QXRvbUd5TmxIMmhjSEFKSG5uaXI0Ny9BQlArSFB3Ly90aVA0aDJmam02MTc0YTZ2NHhTU0xTN1dLUFJibTJqdG1oZUFScjg5dXpYSmoyemIyTFJnN3Z2QUFIM0hOTWx2RThzcnJIR2lsbWR6Z0tCeVNUMkZKQlBIZFF4elF5TE5ESW9kSkkyREt5a1pCQkhVRVY4V2ZGTHhsOFNWdC9pTDRRMVQ0cVdHa1RlRmZBWC9DUlh0MVBvdHRHbXN5M1J2QTBZVTVNZHJDc0NSQW9mTUxTQXM3RVlQQ3ArMGQ4Vk5FOFAzMXI0Vml1TFRTdkFQaGp3K1lJVy9zZUxUNzU1dE9nblpyK2E5dW9wMGlZeUdKVGJEZ29UbG0rUUFINkkwVjgyK0J2aU44VDcvd0FVL0ZIWDJ0N3p4bm8raGVJSlBEK21lQ2RJaHNiV2RSNU5wTTF6SmRUeVJoaW5tT2dVTUJoaVR2TzNiOUQ2VGR6MytsMmR6ZFdVdW0zTTBLU1MyVTdvOGx1NVVGbzJaQ3lrcVNRU3BJT09DUnpRQjVyOEcvOEFrb3Z4Mi83SE8yLzlSN1JxOVZyeXI0Ti84bEYrTzMvWTUyMy9BS2oyalY2clFBVVVVVUFGRkZGQUJSUlJRQVVVVVVBZVhlQWYrUjgrTFgvWXpRZittYlRLN211RzhBLzhqNThXdit4bWcvOEFUTnBsZHpYTFA0bWFMWUtLaHVMeTNzekNKNTQ0RE5JSW94STRYZTVCSVZjOVRnSGdlbE1YVXJSdFFld1c2aGErU01TdGJDUWVhRUp3R0s1empQR2FnWlpvcXZmNmhhNlZhdmRYdHpEWjJ5WTN6WEVnUkZ5Y0RKSndPYWRhM2tGOUFzMXROSGNRc1NCSkU0WlRna0hrZWhCSDRVQVRVVlUxUFZySFJiUnJyVWJ5M3NMVlNBWnJxVlkwQlBBQlppQlZMUy9HV2dhNWRmWnROMXpUZFF1ZHBieWJXN2psZmFPcHdwSnhRQnNVVVZEOXNnKzFtMTgrUDdWczgzeWQ0MzdNNDNiZXVNOFpvQW1vb3FuL0FHellmYnZzZjI2MisyYi9BQy9zL25MNW0vWnYyN2M1enMrYkhwejBvQXVVVVVVQUZGRkZBQlJVTjFlVzlqQ0pibWVPM2kzS20rVndxN21ZS3E1UGNzUUFPNUlGVFVBRkZGRkFCUlJVS1hrRWwxTGJKUEcxekVxdkpDcmd1aXRuYVNPb0IydGc5OEgwb0Ftb3FFM2x1dDR0b1o0eGROR1pWZzNqZVVCQUxCZXVBU0JuM0ZUVUFGY2Y4SmYrUnUrTFAvWTBRLzhBcG0weXV3cmovaEwvQU1qZDhXZit4b2gvOU0ybVZyVDNaTWowaWlpaXVnZ0tLS0tBQ2lpaWdBcnlqNDdmOGhuNFcvOEFZMFNmK21mVXE5WHJ5ajQ3ZjhobjRXLzlqUkovNlo5U3Jhai9BQlkrcU1xMzhPWG9TVkJlWDF0cDhheVhWeEZiUnM2eHEwemhBV1k0VlFUM0o2Q3A2K1J2MnlMYlVQaTk0dTAvNGNhUm91dTY3Rm8rbFhHdjNmOEFZRFFoN1hVSlVrZzB0cERKTkVBcXVMaVhBWWttTk9NVjlKT1hKRzU4L0NQTTdIMW0xNUF0MGxxWjR4Y3Voa1dFdU41VUVBc0Y2NEJJR2ZjVTMrMGJRNmdiRVhVUDI0UitjYmJ6QjVubDV4djI1enR6eG5wbXZtSDRZL0ZDSDRqL0FCaytGSGl1L2VMVDd5OStIMnJSMzBNckJCQmV4MytueDNFWFBkWlk1Ri80RFhOL0YzWElQQTM3WWFmRS93QzJxbWplSC9EK2pXV3J6SytZaHAxN2Q2akJKSTJPMGM0dFpDZXdqYXMzVlZybzA5azcyUHJtNjhTYVRZL2EvdE9xV1Z2OWpLQzU4MjRSZkkzL0FITitUOHU3dG5yMnFiUzlZc05hdHpjYWRlMjkvQnUyK2JheXJJdWZUS2tqTmZtNy9aZW82anAveFMxelViQ0xVZFk4WmFuNEc4UVNhWHFiN0lTdDFxOTAxdmF5SGErMUZnOGlKdmxiRzFqdFBTdnJENFAvQUFpdmZBM3hZMWJ4anFPaWVFZmg5RnJHbHc2UEY0YjhLM0praXZKbzVKSlJjU3NZSUEwb1Vzb0N4NTI3c3NjQUtvVlhKN2YxcU9WTlJXLzlhSHRGejRzMFN6MWlIU0xqV05QZzFXYm1PeGt1a1dkODlOcUU3ajFIUVZxMThUL0Q3dzc4TS9FSDdIdmlmeFQ0OXN0TXVQRmJSYWxQNG8xVytXTWFuYjZ0SEpLQ29rYjk1SElqcXF4S0NNQUp0SFBMdE4rTVh4YjhPL0QvQU1TYTNxL2lDSzFmd3I0YjhQeHlhYmVhY2p1ZFF2Yk9GWnA3cVE0WUpESklaV1ZjRWxYQk8wWUo3Ylp0Ymg3TGRKN0gyaXQzQTEwOXNKb3pjb2l5TkNHRzlWWWtLeEhVQWxXQVBzZlNwYStHdkdueEU4WmZDUDRsL0VHYTA4VVIrT05mbDB6d3BvOE9zSlpXc1QyY2QxZjNnSmFQZkhBWEhtc1Uzc2lmdll0NXdDVDBhL0ZyNHQzVTJuZUZFMWs2SnFVL2phMDBJYXZyRnRwbHpmcmF5NlpkWE1xVHdXYzBrS1NxOEtzaCtUSVpNcmpkazlzdG1oZXhlOXo2dDFqeFhvbmgyYTJoMVhXTlAweVc1YmJCSGVYU1JOS2ZSUXhHNC9TdFd2bGY0ZCtFL0F2aW54aDhjcFBpbmE2VHJuaUN4MWY3SmQzSGlTS0VtSFIxdElXdG5qRERFVUxabGNsQW9NaGM5UURXQmFmRXZXZitFYjhRUStDUEhGejRQOEkrQXZCVmpyV2t3NjNZeFhGMXE4VWtNMGtiM1RUcVhFQVNHT01DUGErU1NXQndLZnRlNkQyZlJIMlBSWHlIcjN4ZStLRTF2OFJmRmtYaUtQUXJEd2pkNklVOE1uVElKUktMaXhzWjdxQ2FaaHZ4dXVYQ2xDckE1eVNNQWEvL0FBdUR4enAveGdtaTFQV1prOE4zbXVYMmk2WU5QczdLODB1ZG80Sm1qZ2FSSCsxUVhpdkVkNGtWb3pzWlFCa0duN1ZkaGV5ZmMrcGFLK1FOYy9hWDhVUmZDZndKcXVuNjdhUzY1cVB3cTFueFZxQmpoaGMvYjdleXRYaGtLNHdvRXJ6L0FDZ0JTVklJK1hGVmZGbmpqNHllR0kvR3UvNGtRU3Q0ZThBd2VPRHQwSzJIbVhMZmFnMW1NcnhibjdJM1ArdCtjZlB4eXZiTG9oK3hmYyt5YUsrTk5hL2FOK0p1b2VNUEZHbzZSYXoydWtlSDljc05KajAxenBNV256cEtsczdtNW11Ym1PNkVzbm50NVhrcHQ0akdKRHVBOXAvWisxL3hoNHl2dkhPcytJdkVNVjdwVnQ0bDFiUnRMMHFDeGppRnZCYTMwc1NPOGcrWjNJVGIyR0FPQ3hKcW8xRkoyU0psVGNWZHM5Y1c4Z2U2a3RWbmphNWpSWkhoRGplcU1XQ3NWNmdFcXdCNzdUNlZBbXRhZEpwcTZnbC9hdFlOamJkTE1waU9XMmpEWng5N2pyMTRyNVU4VWZFRFV0SitHbnhyMWpTVXVMcnh6NGs4WVQrRDlIZ2hBTndzaXJIYVc2UmhpcWdJZ211UUNRUG1aaVJrbXZObzdnZkQvd0NCdnhVK0ZjdWlhcjRZMDdSZFQwZlc5QjAvWFdpKzBEVGJyVWJmZVAzVWtpNFM1anVPUXg0a1hPT2xRNjF1aGFwWDZuM3pmYWphYVpHa2w1ZFEya2J1STFlZVFJQ3g2S0NUMVBwUmM2amFXYzF2RGNYTU1FdHcyeUdPU1FLMHJZemhRVHljZGhYenYrMnI0ZHN2aXA4TXZEbmhlMjFOSTMxVHhUcDFtTG0xbUcrM2R6SXFTQXFlQ3JZWWZTdkhUNDh2Zmp4OFd2Z3Y0dHZGZTMvNFJUV0xEUWIyMkJ3cWExY1d0MUpxTVpBNEppK3pXeWovQUs2TlRsVjVaY3RoUnA4eXZjKzN0UDhBRldpYXRkdGEyT3NXRjdkS0NURGIzU1NPQU92eWc1NHJVcjRXK0JQd04xcjRpZkRuNGZYdHI0UDhHZUhJZFAxeGRYSGpTM3VHZlc1a2cxQjNkQkdMVlFwa0N0R2QwenJ0UElQUWZkTlhUazVxN1JFNHFMc21jNXJYL0pTdmhSLzJNTngvNlo5U3IzYXZDZGEvNUtWOEtQOEFzWWJqL3dCTStwVjd0WGk0MytLZXZnLzRRVVVVVndIYUZGRkZBQlJSUlFBVVVVVUFGRkZGQUJSUlJRQVVVVVVBRkZGRkFCUlJSUUFVVVVVQUZGRkZBQlJSUlFBVVVVVUFGRkZGQUJSUlJRQVY1VjhHL3dEa292eDIvd0N4enR2L0FGSHRHcjFXdkt2ZzMveVVYNDdmOWpuYmYrbzlvMUFIWStPL2h0NFQrS0dqcnBYakR3MXBQaWpUVWZ6VXRkWHNvN21OSHdSdlVPRHRiQkl5T2VhbDBmd0I0WThPK0UvK0VYMHZ3NXBPbStHdkxlSCt4N1d5aWpzeWo1M3FZVlVKaHNuSXh6azVyZm9vQTQzd0Q4R2ZBUHdyZTlmd2I0SzBEd3JKZTRGeStqNmJEYXRNQVNRR0tLQ1FDVGdIZ1o0cXY0aStCUHczOFhlSGRKMERXL0FYaHJWTkQwZ1kwN1RiclNZSHQ3SVlBeERHVjJ4akFBd29BeHhYZFVVQWM3YS9EcndwWXg2V2x0NFkwYTNUU3JlYTAwOVl0UGlVV2NNMjN6b29RRi9kbysxZHlyZ050R2M0ckg4SWZBZjRhZkQ3VmwxWHd0OE8vQ25oclUxVW9MM1I5RXRyU1lLUmdqZkdnYkJIdlhkVVVBY05COENmaHhhK05wUEdNWGdMdzNINHNrazg1dGJYU1lCZUdUL25wNXUzZHY4QTlyT2ZldXEwZlFOTDhQUlhNV2xhYmFhWkhjM010NU9sbkFzUWxubFl2TEt3VURjN3NTek1lV0pKSkpxL1JRQlEwN1FkTTBlNjFHNnNOT3RMSzUxS1lYTjdOYndMRzkxS0VXTVNTc0JsMjJJaTdteWNLbzZBVkJONFQwTzRiVjJsMGJUNVRyQ0NMVWk5cWhOOGdUWUZtNC9lQUo4dUd6eHgwcldyeUg5c0NHNW0vWlQrTC8yTyttMDZlUHducWN2bndLck50UzJrZGsrWUVBT3FsQ1J5QXhLa0VBZ0E2WFJmZ1g4T2ZEZmhIVS9DMmxlQS9EZW5lR3RVSmEvMG0yMHFCTFc3Snh6TEdGMnVjQWZlQnhnZWdxT0w0QS9ES0h3bmMrRjQvaDU0V1R3M2N2SEpQcEs2TmJpMm1kUHVPOGV6YXpMMllqSXI1ajhTZkZuNGhhUG9meEluMDc0a3c2TEQ4TFBDbW42akJaM1dtV3NwOFJTdlkvYVRKY2twdVdGMnhicUxmeXp2VmprbkMwZUlmajU4U2JLMytKL2pBK01yWFRJL0J2aW5UZEt0dkFzbW5XMGh2RXVJTEZudDVaY2Vidlo3bVZZMlFyaG8yenZBd29COU56ZkJmNFgrSS9Ddi9DUFNlQnZDZW8rSElMeHAvd0N5L3dDeXJhUzBqdWwrUm44clp0RWd3Vkp4bmdnK2xQMTc0UDhBdzA4ZlhlbW5XUEJ2aGpYN2p3NFZ0clA3WHAxdk8ybTRWSFdKQVZQbGdLWTJDakF3Vk9PbGZNUGczNG5lTC9FL2p2VlBCZW1lSzlOK0YybXg2cjR5MWFUV3JUU2JQZGV0WjYwWUZpS3lKNWZDT1paNU1lYSs0SGVwTE5YcG53dTErL3VQMmk5T25TK3M5U3RmRm53NHM5WjFTNjAxWFMxbnZJTGhZb3JtTlg1VVRSM0xnWjVLd0lEbmFLQVBmN0hROU8wMisxQzlzOVB0YlM4MUdSWnIyNGdoVkpMcDFqV05Xa1lETGtJaUlDMlNGVURvQlhJWC93QUc5QTFUeHRyK3VYOXJiYWxZZUlMQzFzOVcwWFVMVkxpMXU1TGFRdmJ6bFhCRzlRN0tlRG5iRjA4c1o3MmlnRGhMUDREZkRYVC9BQWJmK0ViVHdCNFp0ZkMyb1MrZGQ2TkJwTUNXazhuSHp2RUUybGh0WEJJeU5veDBGY3I0aS9aTytIUGlieEI0Um11dkN1Z1A0WThONmJxR24yL2haOUhnYXdKdXBiV1F5aU1ydFZrTnJ4aGVmTVk1OWZaYUtBS3VuNlpaNlRwMXZwOWphUVdWaGJ4ckREYTI4YXh4UlJxTUtpcUJnS0J3QU9LNDdRZmdMOE5mQzl0cnR2cEh3LzhBREdtVyt2Um1IVm9iWFNMZU5MK001ekhNb1RFaUhjM3l0a2ZNZU9UWGQwVUFjajR5K0VQZ1g0aTMybTN2aXJ3Ym9QaVM3MDNQMktmVnROaHVYdDg0eUVMcWRveUFjRHVBZTFWOVcrQ1B3ODE3V2RFMWJVdkF2aHkvMVBSSTQ0dE12TGpTb0hsc2tqNWpTSml1VVZEeW9HQXA2WXJ0cUtBS1dtNkhwMmpTWHI2ZnA5cll2ZlhCdTdwcmFGWXpjVEZWVXl5YlFOemxVVWJqazRVRHNLdTBVVUFmT3ZoRFZ2aUxZL0ZyNDR4K0VmQ3ZoZlhOTlBpMjFhUzQxdnhMYzZiTXN2OEF3aitrWlFSeDZmY0FydENIZHZCSkpHMFlCUGEvOEpKOGIvOEFvbm53L3dEL0FBdkw3LzVUVWZCdi9rb3Z4Mi83SE8yLzlSN1JxOVZvQThxLzRTVDQzLzhBUlBQaC93RCtGNWZmL0thai9oSlBqZjhBOUU4K0gvOEE0WGw5L3dES2F2VmFLQVBLditFaytOLy9BRVR6NGY4QS9oZVgzL3ltby80U1Q0My9BUFJQUGgvL0FPRjVmZjhBeW1yMVdpZ0R5ci9oSlBqZi93QkU4K0gvQVA0WGw5LzhwcVArRWsrTi93RDBUejRmL3dEaGVYMy9BTXBxOVZvb0E4cS80U1Q0My84QVJQUGgvd0QrRjVmZi9LYXZncjQxZkdEOXBid3orMjFlYVg4S2RNaDFIWGJyVDdLZlgvQ09sNnZQcnVqUlNsQ3NiVHRQYldxMlplRklDU3V6T1ZQbVpjcVAxS3FHRzBndDVaNVlvWTRwSjNFa3pvZ0JrWUtGRE1lNTJxb3lld0E3VUFlTGZBYTg4UmFoZC9FTzU4VzZkWmFSNGtrMTYyYS9zZE91VGNRUXkvMkxwbVZTUXFwSS9EamtaYkc0K3IxdzNnSC9BSkh6NHRmOWpOQi82WnRNcnVhNVovRXpSYkh6dCsyaEw0aGgwZjRWTjRUZ3NianhJZkhkaXRndXB1eVd3bE50ZGdOS1YrYll1ZHhDOGtMZ2Ntdkt2aDc0Nkh3eCtEZmppUzV1N25UL0FJK0h4RlphUjRydkpyU1BVYis5dnJpNFNPMmEyUjJpak1Fc0w0dGd4U0dNSDVzN1gzZmFHcDZIcHV0TlpOcU9uMnQrMWpjTGQyclhVS3lHM25VRUxMSHVCMnVBekFNTUVCajYxaStKUGhkNE44WVRhaE5ydmhQUTlabTFHMFN3dkpiL0FFNkdaN2kzUi9NU0dSbVVsa1YvbUNuZ055T2VhVjlMQWZGK3FlSnZGL3hrczlMOE5lS3RZdllaUERueFcwM1NqL2FGcHBrMXpORzFpbHdxM1MyNGt0akpISXpqOTM4dlFNTnkxTDhCZmoxci9oancxcm1uNjFkcDRGOFBlR2RBMXpYTkorMVdpM1k4UTdMMjc4NjVKVTdoSGJNRUJ0MDJ5UDVpc1cya0N2c0xRZmczNEI4THlLK2plQ1BEdWt1cjI4aXRaYVZCQ1EwQWNRTU5xRERSaVNRS2VxaDJ4akpxOU44TnZDTnhiMkVFdmhiUlpJTlArMGZZNG4wNkVyYmVlR1dmeXh0d25tQjNENHh1RE5uT1RUNWtGajV5K0Izakx4QjhVdmlKNGcrSG54TnNKZkUyakh3OVlhL0ZhZUw5TjByemxra25sVW55TFI1STFpSVZHUlpmM3E3VGtuSU5lYmZDWFRiYnducHZndlJ2QnR2b2ZnRFd2Rm5qenhWcFUvakcyMGExa3ZiYTF0cnU5a1MwZ01pRk43K1ZHaWh3eXFzWkFVa0tLK3gvQ0h3WThBZkQ2N2d1dkMvZ253OTRkdW9JNUlZNTlMMHVDMmtSSkNyU0tHUlFjTVVRa2Q5bzlLbjF2NFQrQ2ZFbmhpZnczcXZoSFE5UThQejNMM2ttbDNHblJQYk5PN3RJOHhqSzdmTVoyWmkrTWxtSnprbWxjTEh5L29IeGYrSkhqUHg3NFI4RG40aDJ1aFc4dDM0cnNaL0V0dnBscTAyckxwczlySERMRWtpdEVrZzgyWlh3cFErVktRbytVcnkxcCswejR6dVBEamVLVS9zUTYvSjRXZ3RQK0VoL3MyTUlBZkVjbW5mMmdUOS95UEtIMnJ5dDJ6SnoweWErbVBGUDdML2dIeGY0aDhJVDZoNGIwUzQ4TmVHdE12dE10ZkRFMmt3U1dBRnpKYk9IV01qYWhRMjNHRi81YUhwMzcxL2g5NFdrdG50MzhOYVExdStualNXaWF3aUtteUdjV3hHM0hrOG45MzkzbnBUdWdPVitEOTNxOEY3NHAwUFYvSGx0NC9tMHE3aFZid1dzVUYzYkNTQkg4bTRFQ0xFVzUzcVZVSGJJdTRkQ2ZsYXlrMUx4VllmQkxYckR4S25oZnhKNHErSS9pUzV1dGFrZ2pta2hmeU5TdGtpQ1Nnb1pFZ2hpdGtEQWdGRTRPTUg3VjhHK0JmRGZ3NzBWZEg4SzZCcG5odlNsY3lDeTBtMGp0b2Q1eGx0aUFEY2NESjZuRmNqYS9zK2VEWkxIWE5MMXZROU04VDZEZjZ2Y2F6YmFYck9ueFhNVmhOY0xtNEVXOEhBZVJwcE9tUVpuR2NZQVZ4bnpQZWZIVDR1WG1raXhzZkVqYXRGb3Q1cjF0ZWE1NFl0Tk1rMU8vaHM1NG80YjAyZDB5eHZicVROSE1MY2g5NmpidEI1bDhTZnRFZU9OUjBiNHFlTXRGK0pXbldlbGVETkUwZlhOTTBoZEloQ2F0OXAwNk81S1RlWm1aSTVuSldNSXl1ck1RV2JHSytwTlgrQlB3MzEvUTlGMGJVdkFQaHEvMGpSYy93Qm1XRnhwTUR3V1dlb2lRcHRRSGpJQXdjYzFoV1g3TlBnZi9oWm12ZU50VzhQNlBydXEzMXphWEZnMS9wY01qNlY1RnRIQXF3T3dKVUh5bGJqR0RqMEJwM1Fqa1BqUjhkdkcvaGJ3YnFUMjNnNjg4RU5McXVtYVJhZUs5YW5zcm15aVc3dllyWnJyeW81MmNDTlpDNEVxb003Yzl4WEJlSlBpZDhWZkQzaWJVdmgvcHZqcURWYnVIeFRvT2x3K0xyN1NiWnBWaXZyZTRrdUlKSVlsU0pwSWhGSElwVlZ5SmtEWjVKK3RkYzBMVGZFMmozbWs2eHA5cnF1bDNrWmh1Yks5aFdhR2FNOEZYUmdRd1BvUldENGIrRXZnandmbzFucE9oK0VORDBqVExPN0YvYjJsbnAwTVVVVnlCZ1Rxb1hBa3djYi9BTDN2U3Vobng3OFQvRzNqRHhsb2QvTHFmaiszL3N6UmZpZG9maFkrR1p0T3Q0NXJ2N05xZG1mdExTS0E2elN1aG5BWEVmbGNCZTQyL2hyKzBaOFUvRjNqN1FOVnViZTVoOFBheDR2dnZEMG1rM2Y5andXRUZ0RExjUkFRdjlxKzNQZHA1S3lPclJiV0htYlVDN1dQMURxbndYOEFhMzRzUGlqVWZCSGgzVVBFaDhvblZyclM0SmJyTWJLMFo4eGxMWlJrUXFjNUJWY2RCVXRsOEkvQSttK09ManhuYWVEOUR0dkYxd0NKdGNoMDZKYjJUSXdjekJkeEpIQk9lUU1HaTZFZUtmczZmRTM0cDYxOEcvQUhpZnhEcDkvOFJyM3hqYlJYYzl6bzBXbjZmYjZERVFnVXVzc3FQS1dERnlVRDhvd0NxQ29QbVB3VjhRZU5iWFMvQTN3OXNQaUZjYUwvQU1KSDRnOFpYbHg0Z21zYk9XNlg3RnFyb0xTM1Y0akZ2bGFWNTJMb3hBREJBRndGKzJkRjBYVHZEZWsybWw2VFlXdWw2WmFSaUczc3JLRllZWVVIUlVSUUFvSG9CaXVVMXI0Ry9EbnhKcHQvcDJxK0EvRGVvV0YvcURhcmQyOXhwVURwUGVNQUd1WEJYNXBTQmd1Zm1JNm1pNEh6UDRIK00veEcrS1hpTFFmRDgzeEhzZkJrSC9DUDZ6ZnphMWE2WmF1ZFNheDFWN09LN2pTY01xUlNSS0pYQTdINWRvSVljMTRaL2FTOGErSzVOSjFLSTZUNFkxZnhicFBneTJ2UEVVZW1SYnJKYnliVkJKY0F5RExxM2tJc0tTbGxScmtIQnkyZnByeEYrekQ0QzhYZU50SzFuVy9EZWlhdG8rbDZLTkdzdkQxN3BNRXRuYkFUTElza2FzQ3FGUU5nQVVjRWpweFhiNnQ4TmZDT3UyZW9XbXBlRnRGdjdYVWJXR3l2SWJuVDRwRnViZUVzWVlwQVYrWkl5N2xWUENsaVJqSnAzUUh6OXJtcmF6cHV1ZkMzVVpQRjluNDAxM1MvaURONFdrMVcydDBnbHVMRzRzNVRQYlRyR3F4K2FqUnhTTjVZQzV0bE9BUVFQcVd1QlQ0TCtIclBYUEJjK20yZHJvK2grRXZ0TTJtNkRwdHJIQmFSM1VzWmlFKzFRQUNrYjNDZ0FZL2Z1VGtnWTc2cFl3cnhqd3pxM3hIc2ZpSDhWWS9DWGhUd3RyZW1IeEZiczl4clhpYTUwNllTL3dCajZibFJGSHA5d3BVRGFkMjhFa2tiUmpKOW5yai9BSVMvOGpkOFdmOEFzYUlmL1ROcGxhVTkyVElwZjhKSjhiLytpZWZEL3dEOEx5Ky8rVTFIL0NTZkcvOEE2SjU4UC84QXd2TDcvd0NVMWVxMFYwRUhsWC9DU2ZHLy9vbm53LzhBL0M4dnYvbE5SL3drbnh2L0FPaWVmRC8vQU1MeSsvOEFsTlhxdEZBSGxYL0NTZkcvL29ubncvOEEvQzh2di9sTlIvd2tueHYvQU9pZWZELy9BTUx5Ky84QWxOWHF0RkFId3Ivd1VDOGZmRjd3MThBMDFXNTB6UWZCV3MydXRXVGFIZjhBaFh4dmZUMzh0OHpNZ2hTRCt6SVZuRFF0UG1OcEZCQUorWXFGTlg0SCtPdjJoUEhHZy9ER2Y0NCtGYlBSVlh4RVRwK295RDdMcVYzblI5U3liaTBVYlkrL09JendCNVp6dXI3dW10SUxtU0I1b1k1WGdmekltZEFURyswcnVYUFE3V1laSFppTzllWGZIYi9rTS9DMy9zYUpQL1RQcVZiVWY0c2ZWR1ZiK0hMMEpLcFd1aDZkWTZsZmFqYmFmYTIrb1gvbC9hN3VLRlZsdU5pN1U4eHdNdnRCSUdTY0RnVmRvcjZjK2NPSjFyNEhmRGp4S0VHci9EL3d0cW9TYWE0WDdib3R0TnRsbWJmTTQzSWNNN2ZNeDZzZVRrMWN0ZmhSNElzZEp1Tkt0dkIzaCszMHU0dEZzSnJLTFM0RmhsdGc3dUlXUUp0TVllV1JnaEdNeU1jWlkxMVZGVHlyc1Z6UHVZZHo0RjhOM2swMDF4NGUwcWVhYjdNWkpKTEtKbWY3TTVlMjNFcno1VEVzbWZ1RWtyZzFmMURROU8xYTZzTG05MCsxdkxqVDVqY1djMXhDcnZiU2xHUXZHU01vMjEyWEl3Y01SMEpxN1JWV1FyczR6VVBndjRBMWZ4ZEg0cXZ2QkhoNjg4U3h1c2k2dFBwa0wzUWRjYlg4d3J1M0RBdzJjakhGYjl4NFowV2IrMW1uMHF3ZisxWXhIcUxTV3lIN1lnVFlGbXlQM2dDWlhEWjQ0NlZxVlIxNy9rQjZqLzE3U2Y4QW9KcFdTNkR1MzFPRzhKL0QzNFNKcG1wYUg0YThPK0RqWVgxdUlMNncwMnp0V1M0aERNd1NWRUh6b0dkeUEyUUN4OWE2RHcvOEwvQi9oUFM3RFRkRjhLNk5wZW42ZmRHK3RMYTBzSW8wdDdncXlHWkFGK1dRcTdMdkhPR0l6ZzE4ay9zMy9BdldQRjNnUDRFK0lZL0IzZ3p3ZmI2RkZZNnVmRTJsM0RTNnhxVVl0bVZvblVXc1lRU2lUOTV1bGtIcGs0WWJudzcrSlh4UjhYK0QvZzFiNnY4QUVDSFRkUitJc00rb1M2eGE2UmJLYkdPQzNWMHRZRmtWa2FhWGZ1TFNLd0hsdnRVY1Z6eHFLeWJqL1dodktEMVNrZlNuaTM0UStCdkgycVdtcCtKdkIyZytJTlJ0QUZndXRUMDJHNGxqQU9RQXpxU0JubkhUUE5QOFVmQ253VjQzMUxUZFI4UStFdEUxeS8wM0gyTzUxSFQ0cDVMZkJ5QWpNcEtnSG5BN2pOZk9maGI0ditQdmlCck9tZUY1L0c5cDRTaHRZTmZ1RzhXdzJGdS85dERUOVFGb2pLa29hTkUyWmtsMmpKL2dLTHpYT2VLLzJrdmlmTnFIaWk2MEs0U2UwOEthWnBkd2s5a3VtUTZUcWtseGFSWER6WE1sOWN4WEVjRWhrS0o1SXl1MGtsbStXaDFJV3ZZU3B6dmE1OWhYWGcvUWI2UFZZN25ROU51RTFhUkpkUVdXMGpZWGpvcUlqVEFqOTRWV09OUVd6Z0lvSFFWa0g0YitCZEU4VjNQalkrR3RCc2ZFYktmTzE5cktHTzV3UnRKYWJHN2tIQk9lUndhOE9mNHdlTmRQK05nWFZ0V2tzL0NFL2lEK3hiUmJLMnNyM1RHSmd5TGU0a1J4ZDI5MkpRMlNRMFdBQmpCelhuR29mRzd4eTN3NjhUcDR3MUdIVWIzVVBDMHVzV1ZsZGFYcDk3bzEySTdpM1V6Mk04TE41bHZ0bVhNZHloZkxvUWVDS2JxUjdBcWN1NTlZNmI4RWZoM283WDdXUGdQd3padGZ4elEzWmcwaTNRM0Vjd0FtUjhKOHl1QUF5bmhnT2MxdGFsNFQ4T1hFT295MytqYVhKRmRhZi9aMTdKYzJzWldheVhlZklsSkh6UWp6SlBrYjVSdmJqazE4NVMvRXo0aTJtdFQrSkpQRmtjbWgyL3hLajhJcjRmR21RQ09TeWx2STdiYzgyUE04MURMdUJVZ1lRQmd4Sk5VdkFmeG04YStKTmErRWVzWDNqTFQ3alR2SGVzNmhhWHZoRVdFQ3RZd3cyOTI0aVIvOVlURzBVYXlseVNXSXh0QjJrOXBIYXdlemx2YytoN2o0VitCdFk4VGFkNHJtOEo2RGVhOWFSb0xQV0dzSVh1SWtVZkpzbDI1QUFQeTRQR2VLNkxUTkhzTkZpbWkwK3h0ckNPYWVTNmxTMWhXTVNUU01Ya2tZS0JsMllsbVk4a2trODE1Yit5MWMzSC9DcnJqU3BXTWxwb092YXZvZGhLVG5kWjJ0L1BEQUI3SkdpeGoyanIxNnRvMmF2YmN5bGRPMXppOUorRkdpNlQ0ejFyWHhiMjl5ZFJ2WXRWanQ3aTNSL3NkK3NCdDVMbUZqeWpTUWlOR3hqN3JIUHp0V3I0aStIdmhieGhKTSt2ZUd0SDF0NXJiN0ZLMm8yRVZ3WHQvTVdUeVdMcWNwNWlJKzA4YmxVNHlCVy9SVDVWc1R6UGM0dncvOEUvaDM0VGtNbWgrQXZER2pPWm9yZ3RwK2oyOEI4Mk1reFBsRUh6SVdZcWVveWNZeld4YitCZkRWcTI2SHc5cFVMZjJpMnI1anNvbFAyNWdRMTF3dit1SVpnWlB2RUU4ODF1VVVjcVhRT1o5eWxvK2k2ZjRkMDJIVDlLc0xYVExDSFBsMnRuQ3NVU1pKWTdWVUFESkpQQTZrMWRvb3BpT2Mxci9rcFh3by93Q3hodVAvQUV6NmxYdTFlRTYxL3dBbEsrRkgvWXczSC9wbjFLdmRxOEhHL3dBVTl2Qi93Z29vb3JnTzBLS0tLQUNpaWlnQW9vb29BS0tLS0FDaWlpZ0Fvb29vQUtLS0tBQ2lpaWdBb29vb0FLS0tLQUNpaWlnQW9vb29BS0tLS0FDaWlpZ0FyeXI0Ti84QUpSZmp0LzJPZHQvNmoyalY2clhsWHdiL0FPU2kvSGIvQUxITzIvOEFVZTBhZ0QxV2lpaWdBb29vb0FLS0tLQUNpaWlnQXFDK3NiYlZMSzRzN3kzaXU3TzRqYUdhM25RUEhLakFobFpUd1FRU0NEd1Fhbm9vQTRHOC9aLytHT29YR2dUM1B3ODhMM0UzaCtOSXRKZVRSN2RqWUloM0lzT1UrUlZiNWdGd0FlUnpXSjRYL1pvOEU2SDhRdkV2amJVZEQwblgvRStxNjQydDJtcVgrbVF2ZGFhVGJXOEFpaGxJTEFEN1B2QkJHREkzNCtzMFVBY1o0ZytDM3crOFdXTVZuclhnYnczcTFwRGZTNm5IYjN1a3dTb3QzSzVlV2NLeUVlWTdFc3o5V0pKSk9hazBINGIyZWlmRUR4QjR1YWRyalVOU3RMVFRiZVBZRWpzYkszRE1rRVlIckxMTklXNHp1UmVpQ3V2b29BS0tLS0FDaWlpZ0Fvb29vQUtLS0tBQ2lpaWdEeXI0Ti84QUpSZmp0LzJPZHQvNmoyalY2clhsWHdiL0FPU2kvSGIvQUxITzIvOEFVZTBhdlZhQUNpaWlnQW9vb29BS0tLS0FDaWlpZ0R5N3dEL3lQbnhhL3dDeG1nLzlNMm1WM05jTjRCLzVIejR0ZjlqTkIvNlp0TXJ1YTVaL0V6UmJCUlJSVURDaWlpZ0Fvb29vQUtLS0tBQ2lpaWdBb29vb0FLS0tLQUNpaWlnQW9vb29BS0tLS0FDaWlpZ0Fyai9oTC95TjN4Wi83R2lIL3dCTTJtVjJGY2Y4SmY4QWtidml6LzJORVA4QTZadE1yV251eVpIcEZGRkZkQkFVVVVVQUZGRkZBQlhsSHgyLzVEUHd0LzdHaVQvMHo2bFhxOWVVZkhiL0FKRFB3dC83R2lUL0FOTStwVnRSL2l4OVVaVnY0Y3ZRa29vb3I2YytjQ2lpaWdBb29vb0FLYkpHc3NiSTZoMFlZWldHUVFlb0lwMUZBRlRTZEpzZEEwdTAwM1RMSzMwN1RyU0pZYmV6dElsaWhoalVZVkVSUUFxZ2NBQVlGWVd0ZkN6d2I0ajhLVzNoalZQQ21pMy9BSWN0ZHYyZlNiaXdpZTFnMmdoZGtSWGF1QVNCZ0RHVFhVVVVyTFlkMmNscTN3aThEYS9vZWxhTnFmZzNRTlEwZlNTRHArbjNXbVF5UVdlQmdlVkdWMnB4eDhvRk8xejRUK0NmRTJ2YVpyZXIrRWREMVBXTk1DclpYMTNwOFVzMXNGT1ZDT3lrcUZQSXgwUElycTZLT1ZkaDh6N25McjhMUEJxK05HOFhqd3BvbzhWc3UwNjE5Z2krMmROdit0MjdzN2VNNXpqanBWUFMvZ3I4UHRFR3JEVC9BQU40ZHN4cTRLNmdJZEtnVVhhbHR4V1VCZm5HNzVzSGpQUFd1MG9vNVYyRG1mY3lHOEg2QzBMUXRvbW1tSnI0YW1ZemFSN1RkaHc0dUNNZjYwT0EyLzcyUURuTmVTYUgreS9iNlg4VG92R2R6ckZsZVgxbmMzVjdaU3g2RGJXOTIwOHNjc1NOZDNNZUd1UkZIUElxZ2hlb0xGaU0xN2xSU2NWTGNGSnJZNTM0ZWVDTFA0YytETkw4TzJNa2x4RlpvMis1bXg1bHhNN0dTYVo4Y2I1SkhkMnh4bHpYUlVVVlMwVmtMZlVLS0tLQkJSUlJRQVVVVVVBYzVyWC9BQ1VyNFVmOWpEY2YrbWZVcTkycnduV3YrU2xmQ2ovc1liai9BTk0rcFY3dFhnNDMrS2UzZy80UVVVVVZ3SGFGRkZGQUJSUlJRQVVVVVVBRkZGRkFCUlJSUUFVVVVVQUZGRkZBQlJSUlFBVVVVVUFGRkZGQUJSUlJRQVVVVVVBRkZGRkFCUlJSUUFWNVZxSHdMdjhBL2hMdkUrdmFEOFQvQUJoNFMvNFNLOWkxQzkwL1M0TklsdC9QUzB0N1FPaHVyQ2FRWml0WXNqZVJrRWdETmVxMFVBZVZmOEtiOFhmOUYyK0lIL2dENGUvK1ZWSC9BQXB2eGQvMFhiNGdmK0FQaDcvNVZWNnJSUUI1Vi93cHZ4ZC8wWGI0Z2Y4QWdENGUvd0RsVlIvd3B2eGQvd0JGMitJSC9nRDRlLzhBbFZYcXRGQUhsWC9DbS9GMy9SZHZpQi80QStIdi9sVlIvd0FLYjhYZjlGMitJSC9nRDRlLytWVmVxMFVBZVZmOEtiOFhmOUYyK0lIL0FJQStIdjhBNVZVZjhLYjhYZjhBUmR2aUIvNEErSHYvQUpWVjZyUlFCNVYvd3B2eGQvMFhiNGdmK0FQaDcvNVZVZjhBQ20vRjMvUmR2aUIvNEErSHYvbFZYcXRGQUhsWC9DbS9GMy9SZHZpQi93Q0FQaDcvQU9WVkgvQ20vRjMvQUVYYjRnZitBUGg3L3dDVlZlcTBVQWVWZjhLYjhYZjlGMitJSC9nRDRlLytWVkgvQUFwdnhkLzBYYjRnZitBUGg3LzVWVjZyUlFCNVYvd3B2eGQvMFhiNGdmOEFnRDRlL3dEbFZSL3dwdnhkL3dCRjIrSUgvZ0Q0ZS84QWxWWHF0RkFIbFgvQ20vRjMvUmR2aUIvNEErSHYvbFZSL3dBS2I4WGY5RjIrSUgvZ0Q0ZS8rVlZlcTBVQWVWZjhLYjhYZjlGMitJSC9BSUErSHY4QTVWVWY4S2I4WGY4QVJkdmlCLzRBK0h2L0FKVlY2clJRQjVWL3dwdnhkLzBYYjRnZitBUGg3LzVWVWY4QUNtL0YzL1JkdmlCLzRBK0h2L2xWWHF0RkFIbFgvQ20vRjMvUmR2aUIvd0NBUGg3L0FPVlZIL0NtL0YzL0FFWGI0Z2YrQVBoNy93Q1ZWZXEwVUFjVjhNZmhpdncxajhSeVNlSTlZOFZhbHIrcGpWYi9BRkxXeGFyTThvdGJlMVZRdHRCREdxaUsxaUdBbWM1Skp6WGEwVVVBRkZGRkFCUlJSUUFVVVVVQUZGRkZBSG5Pb2ZCMjRsOFRhOXJPbGVQUEV2aDA2MWN4M2wxWjZmRnAwa0huSmJ3Mis1ZlB0SlhHVXQ0OGpkaklKQUdhYi93cVhYditpcytNdi9BWFJ2OEE1WDE2UlJTc3V3SG0vd0R3cVhYditpcytNdjhBd0YwYi93Q1Y5SC9DcGRlLzZLejR5LzhBQVhSdi9sZlhwRkZGbDJBODMvNFZMcjMvQUVWbnhsLzRDNk4vOHI2UCtGUzY5LzBWbnhsLzRDNk4vd0RLK3ZTS0tMTHNCNXYvQU1LbDE3L29yUGpML3dBQmRHLytWOUgvQUFxWFh2OEFvclBqTC93RjBiLzVYMTZSUlJaZGdQTi8rRlM2OS8wVm54bC80QzZOL3dESytqL2hVdXZmOUZaOFpmOEFnTG8zL3dBcjY5SW9vc3V3SG0vL0FBcVhYdjhBb3JQakwvd0YwYi81WDBmOEtsMTcvb3JQakwvd0YwYi9BT1Y5ZWtVVVdYWUR6ZjhBNFZMcjMvUldmR1gvQUlDNk4vOEFLK2ovQUlWTHIzL1JXZkdYL2dMbzMveXZyMGlpaXk3QWViLzhLbDE3L29yUGpML3dGMGIvQU9WOUgvQ3BkZS82S3o0eS93REFYUnYvQUpYMTZSUlJaZGdQTi84QWhVdXZmOUZaOFpmK0F1amYvSytqL2hVdXZmOEFSV2ZHWC9nTG8zL3l2cjBpaWl5N0FlYi9BUENwZGUvNkt6NHkvd0RBWFJ2L0FKWDBmOEtsMTcvb3JQakwvd0FCZEcvK1Y5ZWtVVVdYWUR6Zi9oVXV2ZjhBUldmR1gvZ0xvMy95dm8vNFZMcjMvUldmR1gvZ0xvMy9BTXI2OUlvb3N1d0htLzhBd3FYWHYraXMrTXYvQUFGMGIvNVgwZjhBQ3BkZS93Q2lzK012L0FYUnYvbGZYcEZGRmwyQTgzLzRWTHIzL1JXZkdYL2dMbzMvQU1yNjNmaC84UDA4QlJhMFRyV3BlSUwzV0wvKzBidSsxVVc0bGFRVzhOdUFCQkZFZ1VSMjhZNFhPY2trNXJxNktMSmJBRkZGRk1Bb29vb0FLS0tLQUN1UStJL3c0ZytJMXJveVByT3BhRGRhVGY4QTlvMnQ1cFhrR1ZaUEltZ0lJbmlsUXFVdUpQNGM1d1FSaXV2b3BwdE82RTBtck04by93Q0ZFNmovQU5GUzhaZjkrTkgvQVBsZlIvd29uVWYraXBlTXYrL0dqLzhBeXZyMWVpdGZiVmY1bjk1bjdHbi9BQ284by80VVRxUC9BRVZMeGwvMzQwZi9BT1Y5SC9DaWRSLzZLbDR5L3dDL0dqLy9BQ3ZyMWVpajIxWCtaL2VIc2FmOHFQS1ArRkU2ai8wVkx4bC8zNDBmL3dDVjlIL0NpZFIvNktsNHkvNzhhUDhBL0srdlY2S1BiVmY1bjk0ZXhwL3lvOG8vNFVUcVAvUlV2R1gvQUg0MGYvNVgwZjhBQ2lkUi93Q2lwZU12Ky9Hai93RHl2cjFlaWoyMVgrWi9lSHNhZjhxUEtQOEFoUk9vL3dEUlV2R1gvZmpSL3dENVgwZjhLSjFIL29xWGpML3Z4by8vQU1yNjlYb285dFYvbWYzaDdHbi9BQ284by80VVRxUC9BRVZMeGwvMzQwZi9BT1Y5SC9DaWRSLzZLbDR5L3dDL0dqLy9BQ3ZyMWVpajIxWCtaL2VIc2FmOHFQbkw0UDhBdzkxL3g3NFR2OVQxSDRuK0tvN2lEeERybWxLdHZiYVNxK1RaNnJkMmtSSU5pZm1NY0NGajBMRWtBRGdkdC93b25VZitpcGVNdisvR2ovOEF5dnAzN05QL0FDVHJWLzhBc2MvRm4vcVE2alhxdEh0cXY4eis4UFkwL3dDVkhsSC9BQW9uVWY4QW9xWGpML3Z4by84QThyNlArRkU2ai8wVkx4bC8zNDBmL3dDVjllcjBVZTJxL3dBeis4UFkwLzVVZVVmOEtKMUgvb3FYakwvdnhvLy9BTXI2UCtGRTZqLzBWTHhsL3dCK05ILytWOWVyMFVlMnEvelA3dzlqVC9sUjVSL3dvblVmK2lwZU12OEF2eG8vL3dBcjZQOEFoUk9vL3dEUlV2R1gvZmpSL3dENVgxNnZSUjdhci9NL3ZEMk5QK1ZIbEgvQ2lkUi82S2w0eS83OGFQOEEvSytqL2hST28vOEFSVXZHWC9malIvOEE1WDE2dlJSN2FyL00vdkQyTlA4QWxSNVIvd0FLSjFIL0FLS2w0eS83OGFQL0FQSytqL2hST28vOUZTOFpmOStOSC84QWxmWHE5Rkh0cXY4QU0vdkQyTlArVkhtR2pmQXorei9GV2hhNWYrTi9FdXZ2bzF4SmQydG5xQ2Fla0htdmJ6VzVadkl0STNPRW5rd04yTWtFNXhYcDlGRlp5bEtUdkozTGpGUlZvcXdVVVVWSlFVVVVVQUZGRkZBQlJSUlFBVVVVVUFGRkZGQUJSUlJRQVVVVVVBRkZGRkFCUlJSUUFVVVVVQUZGRkZBQlJSUlFBVVVVVUFGRkZGQUJSUlJRQVVVVVVBRkZGRkFCUlJSUUFVVVVVQUZGRkZBQlJSUlFBVVVVVUFGRkZGQUJSUlJRQVVVVVVBRkZGRkFCUlJSUUFVVVVVQUZGRkZBQlJSUlFBVVVVVUFGRkZGQUJSUlJRQVVVVVVBRkZGRkFCUlJSUUFVVVVVQUZGRkZBQlJSUlFBVVVVVUFGRkZGQUJSUlJRQVVVVVVBRkZGRkFCUlJSUUFVVVVVQUZGRkZBQlJSUlFBVVVVVUFGRkZGQUJSUlJRQVVVVVVBRkZGRkFCUlJSUUFVVVVVQWVWZnMwLzhrNjFmL3NjL0ZuL0FLa09vMTZyWGxYN05QOEF5VHJWL3dEc2MvRm4vcVE2alhxdEFCUlJSUUFVVVVVQUZGRkZBQlJSUlFBVVVVVUFGRkZGQUJSUlJRQVVVVVVBRkZGRkFCUlJSUUFVVVVVQUZGRkZBQlJSUlFBVVVVVUFGRkZGQUJSUlJRQVVVVVVBRkZGRkFCUlJSUUFVVVVVQUZGRkZBQlJSUlFBVVVVVUFGRkZGQUJSUlJRQVVVVVVBRkZGRkFCUlJSUUFVVVVVQUZGRkZBQlJSUlFBVVVVVUFGRkZGQUJSUlJRQVVVVVVBRkZGRkFCUlJSUUFVVVVVQUZGRkZBQlJSUlFBVVVVVUFGRkZGQUJSUlJRQVVVVVVBRkZGRkFCUlJSUUFVVVVVQUZGRkZBQlJSUlFBVVVVVUFGRkZGQUJSUlJRQVVVVVVBRkZGRkFCUlJSUUFVVVY1aDhjOWExelQvQVBoQ0xEUTlkdXZEcjZ4cnpXVnplV01OdkxONUs2ZmV6N1ZFOFVpREx3UjVPM09BUUNNMVVZdVRVVjFKbEpSVGt6MCtpdkNmN0Y4WS93RFJWL0ZYL2dGby93RDhnVWYyTDR4LzZLdjRxLzhBQUxSLy9rQ3UzNmxWT1Q2M1NQZHFLOEovc1h4ai93QkZYOFZmK0FXai93RHlCUi9ZdmpIL0FLS3Y0cS84QXRIL0FQa0NqNmxWRDYzU1BkcUs4Si9zWHhqL0FORlg4VmYrQVdqL0FQeUJSL1l2akgvb3EvaXIvd0FBdEgvK1FLUHFWVVByZEk5Mm9yd24reGZHUC9SVi9GWC9BSUJhUC84QUlGSDlpK01mK2lyK0t2OEF3QzBmL3dDUUtQcVZVUHJkSTkyb3J3bit4ZkdQL1JWL0ZYL2dGby8vQU1nVWYyTDR4LzZLdjRxLzhBdEgvd0RrQ2o2bFZENjNTUGRxODEvYU1IajJQNE9lSXIzNFpYNHN2R3Vud2kvc0ltdG83aGIzeW1EdmFsSFUvd0N0UldRRVlJWmxJWVZ5ZjlpK01mOEFvcS9pci93QzBmOEErUUtQN0Y4WS93RFJWL0ZYL2dGby93RDhnVWZVcW9mVzZSODMvd0RCTUw0MGZGZjlvQzY4VGF6clQyR2kvRHZTYjNVcEJZNmRaZ0RVTlYxQytsdjVjeXlGM0N3ZWU0Q3F5OFN4WjNFRW45QnErYS9CbndwMUQ0ZDZUTnBuaHJ4LzRnMFd3bXU1NzZTM3ROUDBaRmFlYVF5U09SOWc2bG1Qc0JnREFBQTN2N0Y4WS84QVJWL0ZYL2dGby84QThnVWZVcW9mVzZSN3RSWGhQOWkrTWY4QW9xL2lyL3dDMGY4QStRS1A3RjhZL3dEUlYvRlgvZ0ZvL3dEOGdVZlVxb2ZXNlI3dFJYaFA5aStNZitpcitLdi9BQUMwZi81QW8vc1h4ai8wVmZ4Vi93Q0FXai8vQUNCUjlTcWg5YnBIdTFGZUUvMkw0eC82S3Y0cS93REFMUi8vQUpBby9zWHhqLzBWZnhWLzRCYVAvd0RJRkgxS3FIMXVrZTdVVjRUL0FHTDR4LzZLdjRxLzhBdEgvd0RrQ2oreGZHUC9BRVZmeFYvNEJhUC9BUElGSDFLcUgxdWtlN1VWNFQvWXZqSC9BS0t2NHEvOEF0SC9BUGtDait4ZkdQOEEwVmZ4Vi80QmFQOEEvSUZIMUtxSDF1a2U3VVY0SnArb2VMdkRmeEY4QlcxejQ5MXJYdFAxZlZaN0c3c2RTdE5PV05rR25YazZrTkJheHVHRWtFWjRiR01nZzVyM3V1V3BUbFNseXlPbW5VVlJjMFFvb29ySTBDaWlpZ0Fvb29vQUtLS0tBQ2lpaWdBb29vb0FLS0tLQUNpaWlnQW9vb29BS0tLS0FDaWlpZ0Fvb29vQUtLS0tBQ2lpaWdBb29vb0FLS0tLQUNpaWlnQW9vb29BS0tLS0FDaWlpZ0Fvb29vQUtLS0tBQ2lpaWdBb29vb0FLS0tLQUNpaWlnQW9vb29BS0tLS0FDaWlpZ0Fvb29vQUtLS0tBQ2lpaWdBb29vb0FLS0tLQUNpaWlnQW9vb29BS0tLS0FDaWlpZ0Fvb29vQUtLS0tBQ2lpaWdBb29vb0FLS0tLQUNpaWlnQW9vb29BS0tLS0FDaWlpZ0Fvb29vQUtLS0tBQ3ZLUGp0L3lHZmhiLzJORW4vcG4xS3ZWNjhvK08zL0FDR2ZoYi8yTkVuL0FLWjlTcmFqL0ZqNm95cmZ3NWVoSlJSUlgwNTg0RkZZWGp6eGxwL3c4OEZhNzRuMVY5bW5hUFpUWDA1enlValFzUVBjNHdCM0pGZUtlSHYybnRadnZnZlA0cjFid3pEcEhpN1RmRWRwNGQxZlFYbkxMYXl6MzF2Q0NHeGsvdWJtT1VjZFRpb2xPTVhabHFEa3JvK2lLSzhkL2FoK08xMyt6MzRJMGZ4SGE2S05kanVOWWlzcnVEZVZhTzI4cWFhYVZNRGxsU0ZpQjNxdjQ2L2FJUGh6NDcvRFg0ZmFWcDBPcTIzaWRKSjc3VXZPSUZuRzBNMGxxVkErOFpmczF4MTdSbWgxSXAyZjlYR29TYXVqMnFpdm1Idy8rMDU0NVBoandsNHkxdnc1NFpQaFB4RHJNT2pwRHArcVQvMm5DWnJ2N0trZ2hlSGJMaHNGa1ZzNE9SME5iZHA4YlBpZDQ0MFBXdkdQZ2J3ZG9Xb2VETEM1dVliRzMxTFVKWWRTMW1PM2thT1dXRUxHWTRnelJ1SXc1SmJBSjJBMVB0WXZZZnM1SStnNks4cDhQL3RRZkRqWDROQi80cUNPeXZkWTBhSFhvck81aWNQRlp5UnlTZWJLd1VvaXFJcEF6RnRxbFFDZm1YT1JvbjdWM2d6eEY0MDFDenN0WHRWOE02ZDRlYlhMM1ZyeU9hMU1JRXlvdVZsUlNZMlZ0eXNBUTM4T2FyMmtPNVBKTHNlMjBWNWt2N1NudzJYdzFlNjlONG5qc3ROc2JpRzF1bXZyV2UybGdrbUdZUThNa2F5S0hIM1dLNGJzVFhBNm4rMGw0azhTZU52RU9rL0QvVGZEZXB4NkhZV3Q2Tk0xNi9uc05VMWN6MnkzS0xiUW1MTVkyT3E3cEYrL3VVaGNFMG5VaXVvMVRrK2g5RjBWNXhybjdRWGdyd2ZKcHRyNG0xUStIOVV1cktHK25zYm1DU1J0UGprNERYVHhxeVFMdTNMdmtaVkpVNFBGTGZmdEVmRHpUZkdWeDRWdWZFc1NhOWJYY0ZqUGFpM21ZUXpUR0lRcTdoQ2lielBFRkxFQWtrQS9LMks1NDl5ZVdYWTlHb3J6L1V2aTlvOGZqK3g4TldtcmFZWm83dWEwMVNPNmFaSklYV3orMUJZMkNHTm1FWlIyM09vVkQ2NEZVOUgvQUdsUGhycnVsNnRxVnI0cGdTdzB1Mlc5dUxpNnQ1clpEYnMyMUpvaklpK2RHellWWGozS3hJQUpKQW81NDl3NVpkajB5aXVYOEIvRXp3MzhTN083dVBEdW9tOCt4eWlHNmdtdDViYTR0M0tobEVrTXFySW1WSVlibEdRY2pOZWErS3YyaXI3VFcxaUhROUFqMW0rbDhTeCtFUEQ5cTg1aUY3ZnJDWkxtV1Y4SHk0SXNTQWtLV3pBL0IzTFE1eFN2Y2FpMjdIdVZGZUoyUHhtOFUrQS9IRnA0ZCtLV21hTHA5dHFlbjNlb2FmcnZoK2VhVzJKdFU4eTRnbGprUU9yckZsMVlaREJXNEJHSzFaUDJxUGhhbWtXV3ByNHJpa3NyNHpmWnBZN1M0Y1NyRUZNc294R1Q1Szcxek4vcXhuRzdnMHZhUjZzT1NYUkhxOUZlS2VGZjJxdkIwbnc5OEY2MzR0MVMzMEhWZGYwTzMxdWF4aGltdUVzNFpGQk1zcklqZVRDRzNLSkpkcS9LZWVEWGM2YjhZUEIrc2ZFQzk4RTJPdHhYbmlpeVJaYm5UNElwSE1LTkVrcU03aGRpaGtrUXFTY05rZ1pJSUFweGV6QndrdWgyVkZGRldRYzVyWC9KU3ZoUi93QmpEY2YrbWZVcTkycnduV3YrU2xmQ2ovc1liai8wejZsWHUxZURqZjRwN2VEL0FJUVVVVVZ3SGFGRkZGQUJSUlJRQVVVVVVBRkZGRkFCUlJSUUFVVVVVQUZGRkZBQlJSUlFBVVVVVUFGRkZGQUJSUlJRQVVVVVVBRkZGRkFCUlJSUUFVVVVVQUZGRkZBQlJSUlFBVVVVVUFGRkZGQUJSUlJRQVVVVVVBRkZGRkFCUlJSUUFVVVVVQUZGRkZBQlJSUlFBVVVVVUFGRkZGQUJSUlJRQVVVVVVBRkZGRkFCUlJSUUFVVVVVQUZGRkZBQlJSUlFBVVVVVUFGRkZGQUJSUlJRQVVVVVVBRkZGRkFCUlJSUUFVVVVVQUZGRkZBQlJSUlFBVVVVVUFGRkZGQUJSUlJRQVVVVVVBRmVVZkhiL2tNL0MzL3NhSlAvQUV6NmxYcTllVWZIYi9rTS9DMy9BTEdpVC8wejZsVzFIK0xIMVJsVy9oeTlDU2lpaXZwejV3ODArUFh3djFENHgrR2RLOEt4M2NkbjRmdWRWdDU5ZVpiaVNHNGxzb2laZkpoWkJrTThxUWduY3VGMzRPY0N2SXZISDdLUGlheXZ2Rnc4QzZ0YjNtbmVJZjdGMUdhTHhack41UE8ycDZmcUVVb2N6TWtyZVhKYlJpTW5KSU1VWXdRY3I5VVVWbktuR1dyTkkxSlIwUjRiNGs4QS9FWDRyUDRZaThZNlQ0UjB5eTBieEJiNm5KRHBtclhONkxxM0Z2ZFJUSXdrdFlzTisrandPUVFYeVZ3TjNHL0RIOWxUeFY0TjFMd3BxR3I2NXB1cjMyaWVKWTV4Yzc1Ti93RFl0cnBkelkyTUF5bnpUQXptUjg0WE1rbUdQR2ZxU2lsN09MZDN1UDJqU3NqeFA0QmZzeCtGL2hUNFowZWJVdkN2aG1ieHhhdE84K3ZXZGlqenV6ek80WVROR3NtZHJLTThkTWRLNS9RZmhoOFhQaG40UjFYNGZlRDM4TDNmaGlhZTdPaytJTlN2cmlLOTBxM3VKWGtLUGJKQ3l6dEVaVzJFU3hoZ3FnaGEraks4VzhGL3RETjRnL2FHK0lmdzExTFRZZE50dkQwRVZ4cCtwK2FjWGlpQzNsdWd3UENtUDdYQjA3UG1rNHdqWmJkQnFVcFhlNXl5L3NrdlplRmZHL2hYVHRWaHROSTFid0ZwdmcvVDc0N211WTVMY1hna2xsVUFEWTV1SWlRcmZOaHhnY1o1L3dBYy9zNC9FdjQwUHJ0NTRxUGhYdzVjeitITFRSN09EUkwrNmxEWEZ0cUVWNnJ5UytURTZSTzBSWENaYU1ISUpKNDZuNEwvQUxZV2ovRUR3THJIaW54TmEvOEFDTjJpK0k1ZEcwZTFnaW11N25VSWZzc04xQklzTWFOSXp2RE52S3Fwd0JtdTkxYjlwTDRjYUxwdWozMXg0bFY0Tll0cDd1d1cxczdpNGt1STRYQ1RGWTQ0MmZLTTN6TGpjdUdKQUN0alBscFNXK2hkNnNYdHFlVDZEK3pMNGx1N3R0WTFXMDB2VGRTazEvUXI1NEp2RXVxYTdJYlRUN2g1bURYTjVrbGlaSDJSckdpcjNZN3ZsMmZqRDhGL0dIeEExYnhIWTMzaGp3TDQvd0JDMU03dEl2OEF4TEkxcGUrSDh3cWpJaGl0WkdsVU9yU0t3a2pmTWhVdGdBMTZIcm43Um53NjhPNmZwZDllZUpZbXM5UzA4YXRield0dFBjcUxJamk1a01TTjVVWFg5NUp0WElJendhVHh0KzBkOE4vaDFxRTFsNGg4VTIxaE5CQkhjenNzVXMwY0VjbWZLTWtrYU1rWmZIeUt4QmYrRUdxNWFhVnJpNXFsNzJQQnZFbjdIL2pCYnJVTGV6MUczOFdXK3ZlSDlOMFhVcjdWdkUycmFac2t0cmI3TkxOTGJXamhiMUpFK2J5NUhVN2l3TFlZbXZUWC9aeGx2UEJmeGU4UFhGemF3TDRzdm83clNicUJuYVMwTU5oWncyOGtoWVpEeHoydm1BQXR4dE9ja2dkemYvSFR3THBmalllRTdueEJERnJuMmlLemFQeVpUREhjU0FHS0I1d3ZsSks0WmRzYk9HYmNNQTVGYzdKKzFyOEowdW10aDRzV1M0M3lSSkhEcDkxSTA4c2I3SklvZ3NSODJSVDFqVGN3SEpHT2FPV2xIcUhOVWwwT0h0LzJYZGYxYnd6NFp0ZkVPcmFmTHJOeFBydDk0cXZySnBGODY0MUt6bXR5YllGUVNzWWtqUmQyMGhJbDc4VlY4U2ZBUDRsZkViNFhwNFo4UXllRmRJbjBheTArMzB0dEl1YmttOG10Ym1HYmZMT0k0NWJhTnhBaTdJaXhRdHZERW9vcjFuVlAyaWZoNXBPZzZGck0zaVNPV3cxeUI3clR6WjIwOXpMTkNtUE1sOHFOR2RVVElEc3lnSVRoaURWZnhKKzAxOE12Q2N5UjZsNHJ0MTMyRUdxaDdXM211WS9zY3hZUjNKZUpHVVFuYWN5RTdSa1pJM0RKeTA3Ymh6Vk94bWZzL3dEd24xYndEcUhpclhOZHNyYlQ5VTF4cmFQN1BGNGgxSFhKRmhnVndubVhWNjI1am1XVEFSRUFHQVMzYno2eCtEL2lEVXJQVzlLMGk3aDB6eG40TjhmM2ZpelJwOVNSL3N0L0JlTkxNRWxkQVc4dDB1cmlGbVVGbGFFOEhHRDEzaUg5cVhUdEwxanh0YjIyblNTV1hndTkwOWRXdTVvNVZSN0s0Q0NXZU5pZ1Q5MFpBK056YjBSaXZVR3ZkYWFqQ1NzdW45Zm1KeWxGM2ZYK3Z5UG5ueEo4SWZpQjhZZFlmVy9HY1hoL3c5SnBlaGFwcHVoNlJwT29UM3FOZDNzSGtQYzNFN3d4NFZVRzFVV05pQkk1TGZ3MUpxSHdkOGQrRmRjOE5hdDRSVHc1cU1zUGc2SHdqZjJXcjNFc0VGdDVaRExjUUZJWDNya3NHaklUY0ZqK1lZNCtncUtyMmFKOW96NHRoL1kzOGE2QnBHbjJ0bkpwZXN5M3ZoSFRmRGVwcTNpblZ0S3Q3V2ExaWtqYVR5N1RaOXRoWlpUKzZsOHNnZzRJRHRYMEg4SC9BSVJ6L0RIeEw0NXUya3Mzc2RadU5PTmlMY3VaRWh0dE50clRiSnZ5UWQ4RGtEYy9EREp5VFhwOUZFYVVZdTZDVlNVbFpoUlJSV3BrYzVyWC9KU3ZoUi8yTU54LzZaOVNyM2F2Q2RhLzVLVjhLUDhBc1liai93Qk0rcFY3dFhnNDMrS2UzZy80UVVVVVZ3SGFGRkZGQUJSUlJRQVVVVVVBRkZGRkFCUlJSUUFVVVVVQUZGRkZBQlJSUlFBVVVVVUFGRkZGQUJSUlJRQVVVVVVBRkZGRkFCUlJSUUFVVVVVQUZGRkZBQlJSUlFBVVVVVUFGRkZGQUJSUlJRQVVVVVVBRkZGRkFCUlJSUUFVVVVVQUZGRkZBQlJSUlFBVVVVVUFGRkZGQUJSUlJRQVVVVVVBRkZGRkFCUlJSUUFVVVVVQUZGRkZBQlJSUlFBVVVVVUFGRkZGQUJSUlJRQVVVVVVBRkZGRkFCUlJSUUFVVVVVQUZGRkZBQlJSUlFBVVVVVUFGRkZGQUJSUlJRQVVVVVVBRmVVZkhiL2tNL0MzL3NhSlAvVFBxVmVyMTVSOGR2OEFrTS9DMy9zYUpQOEEwejZsVzFIK0xIMVJsVy9oeTlDU2lpaXZwejV3S0tLS0FDaWlpZ0FyNWUrS243TFBpenhucS9qTFZkRDEzVHRGMVRXZkVBdUlMc3ZKdlRTNTlKaDArK2hiQ2NTa1JtUk1aRzZPSWxoemo2aG9xSlFVMVpseGs0dTZQbHpXUDJiZkd1a3phbXZodTUwLyt4Ymp4WE5xNDBTMTEyODBacHJKdE10YlNHTnJ5M2hhV0l4dkF6R05PSFVnRnY0YTF2MmYvd0JucnhUOE10ZThMWE91VGFQSmJhRFllSUxGV3NicWVaNXZ0K3B3WGtUZ1NvQ05xcktqYm5ZNUNuYzI0N2ZvMmlwVktLZHluVWsxWStPTlUvWk8rSTl4NEYwandtdXFhWGQ2ZEg0U0dnT2tmaUMvMCszc3JyZk9YdURGQkVQdHlGWll3STVtUlYySGc3alhGZkZuUi9GSGhQd3o0LzhBaDNiTm9OenJ2ald5MHBadE9tRjVKZExjcloyMW9Wc2lMZmJkeG55RlBtRm92Sk80c0NCWDM1UlVPaXJhRnFzNzZueWxxWDdLdmlLYjRpNjloYkxVdkN1dCtLWS9Fc3Q1ZCtKOVdoTnVCSkZNOEoweUYxdHBwQkpFTmtyTU1EYVdWdGdCN1B3TCt6L3EvaGR2aFdiaVhTblBoVFZ0YzFHODhsbk84WHYycnl6Rm1NWllmYUYzWjIveFlKNys5VVZhcFJUdVE2a21ySHlGTCt5aDQxMEdUdzNxdW1TMk9yNnBaNmJxR2szVmxENHAxVFFvMVdiVVpidUdaTGl6VVBJQUpkcnhPb0J3TUhLZzExM2gvd0RaaDFUdzM0UThkYUhhVGFQSEhyWGdDeThKMkt4UE9JNHJtS08rV1JtRW5tT3NKYTdqMi9QSTJGYkk0R2ZvK2lrcU1VTjFaTStWZmlSOEovRStoK0RmaVRvdmwyT294ZVBkTjBuUUxFMnNzalhFZDM1Q1djcGFNeGhmS1dNUE41bS9JQ044dkZmVThNSzI4TWNTWjJJb1Zjbkp3QmluMFZjWXFMMElsSnlXb1VVVVZaQVVVVVVBRkZGRkFIT2ExL3lVcjRVZjlqRGNmK21mVXE5MnJ3bld2K1NsZkNqL0FMR0c0LzhBVFBxVmU3VjRPTi9pbnQ0UCtFRkZGRmNCMmhSUlJRQVVVVVVBRkZGRkFCUlJSUUFVVVVVQUZGRkZBQlJSUlFBVVVVVUFGRkZGQUJSUlJRQVVVVVVBRkZGRkFCUlJSUUFVVVVVQUZGRkZBQlJSUlFBVVVVVUFGRkZGQUJSUlJRQVVVVVVBRkZGRkFCUlJSUUFVVVVVQUZGRkZBQlJSUlFBVVVVVUFGRkZGQUJSUlJRQVVVVVVBRkZGRkFCUlJSUUFVVVVVQUZGRkZBQlJSUlFBVVVVVUFGRkZGQUJSUlJRQVVVVVVBRkZGRkFCUlJSUUFVVVVVQUZGRkZBQlJSUlFBVVVVVUFGRkZGQUJSUlJRQVVVVVVBRkZGRkFCWGt2N1FUVDJqZkQzVWswN1V0UXRkUDhSdFBkRFN0T252cFlvMjB5L2lEbU9CSGZidmxqWE8zQUxETmV0VVZVWk9NbEpkQ1pSNW91TDZuei84QThMTTA3L29CK012L0FBak5ZLzhBa1dqL0FJV1pwMy9RRDhaZitFWnJIL3lMWDBCUlhvZlhxblpIRjlUcDkyZlAvd0R3c3pUditnSDR5LzhBQ00xai93Q1JhUDhBaFptbmY5QVB4bC80Um1zZi9JdGZRRkZIMTZwMlFmVTZmZG56L3dEOExNMDcvb0IrTXY4QXdqTlkvd0RrV2ovaFptbmY5QVB4bC80Um1zZi9BQ0xYMEJSUjllcWRrSDFPbjNaOC93RC9BQXN6VHY4QW9CK012L0NNMWovNUZvLzRXWnAzL1FEOFpmOEFoR2F4L3dESXRmUUZGSDE2cDJRZlU2ZmRuei8vQU1MTTA3L29CK012L0NNMWovNUZvLzRXWnAzL0FFQS9HWC9oR2F4LzhpMTlBVVVmWHFuWkI5VHA5MmZQL3dEd3N6VHYrZ0g0eS84QUNNMWovd0NSYVA4QWhabW5mOUFQeGwvNFJtc2YvSXRmUUZGSDE2cDJRZlU2ZmRuem5wWHhsMERYTFY3blRyRHhWZlc2VHpXclMyL2hEVm5WWm9aV2lsakpGcjk1SkVkR0hVTXBCNUZYUCtGbWFkLzBBL0dYL2hHYXgvOEFJdGRYK3pUL0FNazYxZjhBN0hQeFovNmtPbzE2clI5ZXFka0gxT24zWjgvL0FQQ3pOTy82QWZqTC93QUl6V1AvQUpGby93Q0ZtYWQvMEEvR1gvaEdheC84aTE5QVVVZlhxblpCOVRwOTJmUC9BUHdzelR2K2dINHkvd0RDTTFqL0FPUmFQK0ZtYWQvMEEvR1gvaEdheC84QUl0ZlFGRkgxNnAyUWZVNmZkbnovQVA4QUN6Tk8vd0NnSDR5LzhJeldQL2tXai9oWm1uZjlBUHhsL3dDRVpySC9BTWkxOUFVVWZYcW5aQjlUcDkyZlAvOEF3c3pUditnSDR5LzhJeldQL2tXai9oWm1uZjhBUUQ4WmYrRVpySC95TFgwQlJSOWVxZGtIMU9uM1o4Ly9BUEN6Tk8vNkFmakwvd0FJeldQL0FKRm8vd0NGbWFkLzBBL0dYL2hHYXgvOGkxOUFVVWZYcW5aQjlUcDkyZk90bnIvL0FBbDN4TytHNjJHaWVKWTBzZFp1THU2bjFEdzNxRmxCREYvWmQ5RUdhV2VCRUdYbGpVRE9TV0dLK2lxS0s0NnRWMXBjMGpxcDAxU2p5b0tLS0t4TlFvb29vQUtLS0tBQ2lpaWdBb29vb0FLS0tLQUNpaWlnQW9vb29BS0tLS0FDaWlpZ0Fvb29vQUtLS0tBQ2lpaWdBb29vb0FLS0tLQUNpaWlnQW9vb29BS0tLS0FDaWlpZ0Fvb29vQUtLS0tBQ2lpaWdBb29vb0FLS0tLQUNpaWlnQW9vb29BS0tLS0FDaWlpZ0Fvb29vQUtLS0tBQ2lpaWdBb29vb0FLS0tLQUNpaWlnQW9vb29BS0tLS0FDaWlpZ0Fvb29vQUtLS0tBQ2lpaWdBb29vb0FLS0tLQUNpaWlnQW9vb29BS0tLS0FDaWlpZ0Fvb29vQUtLS0tBQ2lpaWdBb29vb0FLS0tLQUNpaWlnQW9vb29BS0tLS0FDaWlpZ0Fvb29vQThxL1pwLzVKMXEvd0QyT2Zpei93QlNIVWE5VnJ5cjltbi9BSkoxcS84QTJPZml6LzFJZFJyMVdnQW9vb29BS0tLS0FDaWlpZ0Fvb29vQUtLS0tBQ2lpaWdBb3J5V3ovYW0rSGVvV2tGMWEzbXZYTnJPaXl4VFErRmRWZEpFWVpWbFlXMkNDQ0NDUFdwditHbXZBZi9QWHhGLzRTV3JmL0l0YWV6bi9BQ3Y3akwydFArWmZlZXFVVjVYL0FNTk5lQS8rZXZpTC93QUpMVnYvQUpGby93Q0dtdkFmL1BYeEYvNFNXcmYvQUNMUjdPZjhySDdXSDh5UFZLSzhyLzRhYThCLzg5ZkVYL2hKYXQvOGkwZjhOTmVBL3dEbnI0aS84SkxWdi9rV2oyYy81V0h0WWZ6STlVb3J5djhBNGFhOEIvOEFQWHhGL3dDRWxxMy9BTWkwZjhOTmVBLytldmlML3dBSkxWdi9BSkZvOW5QK1ZoN1dIOHlQVktLOHIvNGFhOEIvODlmRVgvaEphdC84aTBmOE5OZUEvd0RucjRpLzhKTFZ2L2tXajJjLzVXSHRZZnpJOVVvcnl2OEE0YWE4Qi84QVBYeEYvd0NFbHEzL0FNaTBmOE5OZUEvK2V2aUwvd0FKTFZ2L0FKRm85blArVmg3V0g4eVBWS0s4ci80YWE4Qi84OWZFWC9oSmF0LzhpMGY4Tk5lQS93RG5yNGkvOEpMVnYva1dqMmMvNVdIdFlmekk5VW9yeXY4QTRhYThCLzhBUFh4Ri93Q0VscTMvQU1pMGY4Tk5lQS8rZXZpTC93QUpMVnYvQUpGbzluUCtWaDdXSDh5UFZLSzhyLzRhYThCLzg5ZkVYL2hKYXQvOGkwZjhOTmVBL3dEbnI0aS84SkxWdi9rV2oyYy81V0h0WWZ6STlVb3J5djhBNGFhOEIvOEFQWHhGL3dDRWxxMy9BTWkwZjhOTmVBLytldmlML3dBSkxWdi9BSkZvOW5QK1ZoN1dIOHlQVktLOHIvNGFhOEIvODlmRVgvaEphdC84aTBmOE5OZUEvd0RucjRpLzhKTFZ2L2tXajJjLzVXSHRZZnpJOVVvcmhmQnZ4czhKZVB2RUIwVFNMclVmN1UreXlYZ2cxRFJyMngzUW84YU95dFBDaXRocFl3UUNUOHc0cnVxaHhjZEdpbEpTMVRDaWlpa1VGRkZGQUJSUlJRQVVVVjVwcm43UTNnL1FmRTJzYUJKRjRvMUhVdEhtanRyOGFKNFAxZlU0WUpYZ2luV016VzFySkh1OHFhSjlvYklEak9LQVBTNks4cS80YVc4SS93RFFJK0lIL2h1UEVQOEE4ZzBmOE5MZUVmOEFvRWZFRC93M0hpSC9BT1FhQVBWYUs4cS80YVc4SS84QVFJK0lIL2h1UEVQL0FNZzBmOE5MZUVmK2dSOFFQL0RjZUlmL0FKQm9BOVZvcnlyL0FJYVc4SS85QWo0Z2YrRzQ4US8vQUNEUi93QU5MZUVmK2dSOFFQOEF3M0hpSC81Qm9BOVZvcnlyL2hwYndqLzBDUGlCL3dDRzQ4US8vSU5IL0RTM2hIL29FZkVEL3dBTng0aC8rUWFBUFZhSzhxLzRhVzhJL3dEUUkrSUgvaHVQRVA4QThnMGY4TkxlRWY4QW9FZkVEL3czSGlIL0FPUWFBUFZhSzhxLzRhVzhJLzhBUUkrSUgvaHVQRVAvQU1nMGY4TkxlRWYrZ1I4UVAvRGNlSWYvQUpCb0E5Vm9yeXIvQUlhVzhJLzlBajRnZitHNDhRLy9BQ0RSL3dBTkxlRWYrZ1I4UVA4QXczSGlILzVCb0E5Vm9yeXIvaHBid2ovMENQaUIvd0NHNDhRLy9JTkgvRFMzaEgvb0VmRUQvd0FOeDRoLytRYUFQVmFLOHEvNGFXOEkvd0RRSStJSC9odVBFUDhBOGcwZjhOTGVFZjhBb0VmRUQvdzNIaUgvQU9RYUFQVmFLOHEvNGFXOEkvOEFRSStJSC9odVBFUC9BTWcwZjhOTGVFZitnUjhRUC9EY2VJZi9BSkJvQTlWb3J5ci9BSWFXOEkvOUFqNGdmK0c0OFEvL0FDRFIvd0FOTGVFZitnUjhRUDhBdzNIaUgvNUJvQTlWb3J5ci9ocGJ3ai8wQ1BpQi93Q0c0OFEvL0lOSC9EUzNoSC9vRWZFRC93QU54NGgvK1FhQVBWYUs1VDRlL0U3UVBpaFo2cGNhREpxSC9FcnZmN1B2YmZWTkp1OU51TGVmeVlwd2p3M1VVY2d6RlBFNE8zQkRqQk5kWFFBVVVVVUFGRkZGQUJSUlJRQVVVVjVscC83UmZnM1Z0UHRyNnhpOFUzdGxkUkxQQmMyL2czV0pJNVkyQVpYUmhhWVpTQ0NDT0NEUUI2YlJYblgvQUF2cnd2OEE4K0hpL3dEOEluV2Yva1NqL2hmWGhmOEE1OFBGL3dENFJPcy8vSWxBSG90RmVkZjhMNjhML3dEUGg0di9BUENKMW4vNUVvLzRYMTRYL3dDZkR4Zi9BT0VUclA4QThpVUFlaTBWNTEvd3Zyd3Yvd0ErSGkvL0FNSW5XZjhBNUVvLzRYMTRYLzU4UEYvL0FJUk9zLzhBeUpRQjZMUlhuWC9DK3ZDLy9QaDR2LzhBQ0oxbi93Q1JLUDhBaGZYaGYvbnc4WC8rRVRyUC93QWlVQWVpMFY1MS93QUw2OEwvQVBQaDR2OEEvQ0oxbi81RW8vNFgxNFgvQU9mRHhmOEErRVRyUC95SlFCNkxSWG5YL0MrdkMvOEF6NGVML3dEd2lkWi8rUktQK0Y5ZUYvOEFudzhYL3dEaEU2ei9BUElsQUhvdEZlZGY4TDY4TC84QVBoNHYvd0RDSjFuL0FPUktQK0Y5ZUYvK2ZEeGYvd0NFVHJQL0FNaVVBZWkwVjUxL3d2cnd2L3o0ZUwvL0FBaWRaLzhBa1NqL0FJWDE0WC81OFBGLy9oRTZ6LzhBSWxBSG90RmVkZjhBQyt2Qy93RHo0ZUwvQVB3aWRaLytSS1ArRjllRi93RG53OFgvQVBoRTZ6LzhpVUFlaTBWNTEvd3Zyd3YvQU0rSGkvOEE4SW5XZi9rU2ovaGZYaGYvQUo4UEYvOEE0Uk9zL3dEeUpRQjZMUlhuWC9DK3ZDLy9BRDRlTC84QXdpZFovd0RrU2ovaGZYaGYvbnc4WC84QWhFNnovd0RJbEFIb3RGZWRmOEw2OEwvOCtIaS8vd0FJbldmL0FKRW8vd0NGOWVGLytmRHhmLzRST3MvL0FDSlFCNkxSV2Q0ZDhRV0hpencvcG11YVZQOEFhdEwxTzFpdmJTZll5ZVpESWdkRzJzQXd5ckE0SUJHZVJXalFBVVVVVUFGRkZGQUJSUlJRQVVVVnpmamo0aGFIOE9yS3h1dGNtdW8wdnJyN0ZiUjJPbjNGN05MTjVja3UxWW9JM2MvSkZJeE9NQUtjbWpjRHBLSzh5LzRhSzhIZjg4ZkZYL2hHNngvOGlVZjhORmVEditlUGlyL3dqZFkvK1JLdjJjK3hIUEh1ZW0wVjVsL3cwVjRPL3dDZVBpci9BTUkzV1A4QTVFby80YUs4SGY4QVBIeFYvd0NFYnJIL0FNaVVlem4yRG5qM1BUYUs4eS80YUs4SGY4OGZGWC9oRzZ4LzhpVWY4TkZlRHY4QW5qNHEvd0RDTjFqL0FPUktQWno3Qnp4N25wdEZlWmY4TkZlRHYrZVBpci93amRZLytSS1ArR2l2QjMvUEh4Vi80UnVzZi9JbEhzNTlnNTQ5ejAyaXZNditHaXZCMy9QSHhWLzRSdXNmL0lsSC9EUlhnNy9uajRxLzhJM1dQL2tTajJjK3djOGU1NmJYTGZFbjRuZUdmaEQ0V2s4U2VMOVRHamFGRlBEYnkzendTU1J4UExJc2NaY29yYkZMc28zdGhSa1pJcm0vK0dpdkIzL1BIeFYvNFJ1c2YvSWxjOThRL2lkOE4vaWg0RjE3d2xyMWo0cXVkSDFxemxzYnFNZURkWTNiSFVydVUvWk9HR2NnOWlBZTFIczU5ZzU0OXpuUDJVL2p0NEE4UXdYdmdyUi9GV242ejRsdWZFUGl6V0VzdE1jM1FXelBpQzlaWm5rakRKR3JMTkV5NzJHOFNLVnlDSytrYS9QWC9nbmo4TmZDL3dDeVg0WjhWM0hpTmZFRjk0dTFuVUhoKzFXL2c3V0dWZFBoWXJBRnphL0taTXRJUm5vMFlQS1Y5ZS84TkZlRHYrZVBpci93amRZLytSS1BaejdCeng3bnB0RmVaZjhBRFJYZzcvbmo0cS84STNXUC9rU2ovaG9yd2Qveng4VmYrRWJySC95SlI3T2ZZT2VQYzlOb3J6TC9BSWFLOEhmODhmRlgvaEc2eC84QUlsSC9BQTBWNE8vNTQrS3YvQ04xai81RW85blBzSFBIdWVtMFY1bC93MFY0Ty81NCtLdi9BQWpkWS84QWtTai9BSWFLOEhmODhmRlgvaEc2eC84QUlsSHM1OWc1NDl6MDJpdk12K0dpdkIzL0FEeDhWZjhBaEc2eC93RElsSC9EUlhnNy9uajRxLzhBQ04xai93Q1JLUFp6N0J6eDducHRGZVpmOE5GZUR2OEFuajRxL3dEQ04xai9BT1JLUCtHaXZCMy9BRHg4VmY4QWhHNngvd0RJbEhzNTlnNTQ5ejAyaXZQdEQrTzNoSHhENGcwM1JiYVRXcmZVTlNrZUcwWFV2RHVvMlVjcnJFOHJJSko3ZEUzZVhGSTJDMlNGT0s5QnFXbXRHVW1uc2ZHL3doLzVKTjRLL3dDd0paZitpRXJyYTVMNFEvOEFKSnZCWC9ZRXN2OEEwUWxkYlhyUzNaNU1maFFVVm0yM2liUjd6VkpkTXQ5V3NaOVNoLzFsbkhjbzB5WTlVQnlQeEZhVlNVRkZSUlhVTThrMGNjc2Nra0xCSlZWZ1NqRUJnR0hZNElQUFlpcGFBQ2lzK1B4RHBVMnJTYVhIcWRtK3B4cnVleVdkRE1vNjVLWjNBZmhXaFFBVVVVVUFGRkZSWFYxRFpXMHR4Y1N4d1c4S0dTU1dWZ3FJb0dTeEo0QUE3MEFTMFZUL0FMWXNQc2h1dnQxdDltRCtVWnZOWFp2M2JkdTdPTTd1TWV2RlQvYklQdFp0Zk9qKzBoUE5NTzhiOWhPTjIzcmpJSXo3VUFTMFZGSmRRd3pSUXZOR2swMmZMalpnR2ZBeWNEdmdlbERYVUszU1d4bWpGdzZHUllTdzNsUVFDd0hYQUxEbjNGQUV0RkZGQUJSVWNOekRjZVlJcFVsTWJtTjlqQTdXSFZUam9lUng3MUpRQVVVVVVBWGZoai95WDdSZit4WTFiLzByMHl2bzZ2bkg0WS84bCswWC9zV05XLzhBU3ZUSytqcTRxL3hJN0tId3NLS0tLNXpwQ2lpaWdBb29vb0FLOHErRGYvSlJmanQvMk9kdC93Q285bzFlcTE1VjhHLytTaS9IYi9zYzdiLzFIdEdvQTlWb3JIVHhsb0Vtdk5vYWE1cHJhMm8zSFRWdTR6Y2dZem55ODd1bnRXeFFBVVZERGVXOXhjVHdSVHh5VFFFQ2FOSEJhTWtaQVlkc2dnODlxbW9BS0t5bDhWNkkydk5vZzFqVHpyU3A1amFhTHBQdEFYR2R4anp1eGp2aXRXZ0Fvb29vQUtLZ3U3NjMwK05aTHE0aXRvMmRZdzB6aEFXWWhWVUU5eVNBQjNKb2UrdDQ3eUswZTRpVzZsUnBJNEdjQjNWU0F6QmVwQTNESjdaSHJRQlBSUlVNZDVielhNMXZIUEhKY1E3VExFcmd2SHVHVjNEcU00T005Y1VBVFVVVVVBRkZGWjZlSU5Ma3ZJclJOU3MydXBua2lqZ1dkQzd2SC9yRkM1eVN2OFFIVHZRQm9VVm4zbmlEUzlQdVpMZTYxS3p0cmlPSDdTOFUwNkk2eGJ0dm1FRTVDN3VOM1RQRldycTl0N0ZVZTVuanQxZVJZa2FWd29aMklWVkdlcEpJQUhjbWdDYWlvTHErdHJKb1Z1TGlLQnBuOHVJU3VGTWpiUzIxYzlUdFZqZ2RsSjdVNjF1b0w2MWl1YmFhTzR0NWtFa2MwVEJrZFNNaGdSd1FSM0ZBRXRGRkZBQlJSUlFCNVY4Ry93RGtvdngyL3dDeHp0di9BRkh0R3IxV3ZLdmczL3lVWDQ3ZjlqbmJmK285bzFlcTBBRkZGRkFCUlJSUUFVVVVVQUZlVWZzK2Y4a0QrR3YvQUdMT20vOEFwTEhYcTllVWZzK2Y4a0QrR3Y4QTJMT20vd0RwTEhXVlRZcU81MzlGRkZjNVlVVVVVQUZGRkZBQlJSUlFBVVVVVUFGRkZGQUJSUlJRQVVVVVVBRkZGRkFCUlJSUUFVVVVVQUZGRkZBSEsvczYvd0RKdnZ3eC93Q3hYMHYvQU5KSXE5Q3J6MzluWC9rMzM0WS85aXZwZi9wSkZYb1ZkcGtGRkZGQUJSUlJRQVVVVVVBRmVVZkhiL2tNL0MzL0FMR2lULzB6NmxYcTllVWZIYi9rTS9DMy9zYUpQL1RQcVZiVWY0c2ZWR1ZiK0hMMEpLS2l1THlDMU1Rbm1qaE16aUtQekhDNzNJSkNqUFU0QjRIcFRGMUcwYStleVc1aE42cUNWcmNTRHpBaE9BeFhPY1o3MTlPZk9GaWlvTDNVTFhUYmZ6N3U1aHRZZHdYekpuQ0xrbkFHVDNKSUZPdGJxRzloV2EzbWpuaVlrQ1NKZ3luQndlUjZFRWZoUUJMUlVONWVXK24yc2x6ZFR4MjF2R056elRPRVJSNmtuZ0NxK2s2OXBtdlJ5UHBtbzJtb3BHZHJ0YVRyS0ZQb1NwT0tBTDFGRlJYZDVCWVcwdHhjelIyOXZFcGFTYVp3cUlvNmtrOEFVQVMwVVVVQUZGRkZBQlJVVnJlUVgwQ3oyMDBkeEMyUXNrVGhsT0RnNEk5d1IrRlMwQUZGUkxkd05kUGJDYU0zS0lzalFoaHZWV0pDc1IxQUpWZ0Q3SDBxV2dBb3FHOHZiZlRiV1c2dTU0clcyaVhmSk5NNFJFVWRTU2VBS2xWZzZobElaU01nam9hQUZvb3FwZmF0WTZiL0FNZmw1YjJ2N3RwZjM4cXA4aTQzTnllZzNMazlzajFvQXQwVVVVQUZGUkc2aFc2VzJNMFl1R1F5TER1RzhxQ0FXQTY0QllEUHVQV3BhQU9jMXIva3BYd28vd0N4aHVQL0FFejZsWHUxZUU2MS93QWxLK0ZIL1l3M0gvcG4xS3ZkcThIRy93QVU5dkIvd2o0MytFUC9BQ1Nid1YvMkJMTC9BTkVKVmI0M1htczZkOEhQRzkxNGVNbzF5SFJidVN5YUFaa1dVUXNWS0R1d1BJSHFCVm40US84QUpKdkJYL1lFc3Y4QTBRbGRiWFJMZG5MRFpIeVY4UVBEUHc4MFQ5bkh3cHJmZ1N5MDZQeEtadE5md3pxVmlFL3RDNHZwSm9oZ3lENTVHY00vbWdrNUcvSTRyV2srSjNqNGFYcWwvUDRzdHJLSFZQSHR6NFIwNlQrell2TDBxM2p2Wms4OTJQOEFySkNzWGxydStYTEprRTVOZTVhUDhJL0EvaC94Skw0ZzB2d2ZvV25hN0lXWjlTdGRPaGp1Q1d6dU84TG5MWk9Ubm5QTmFkOTRKOFBhcG9sOW8xM29XbTNPa1gwcnpYVmpMYVJ0RFBJNzczZDB4aG1aeVdMRVpKNTYxanlzMjVrZkpWdjhRdkdIZy94WjRwMExTZFZtMTdWdGQ4ZC8yYmNhN3B0dFpMY0ZJZEh0M0NScGNQSGJDYytXcUVzZHZ5U2JWSktyWFkrRWZpVjhTZkduaWJ3TDRmZlc3ZlEvdEZ4cnE2amRmWjdLNnVMcUN5bXRCRmtReVN3eFRmdm1Sd3JFQWhqdEIyNDl3UHdnOENudzNjZUgvd0RoRGRCR2hYRHBMTnBxNmJDSUpIUlZWSFpBdUN3VlZBWThnS1BTdGJTZkJ1Z2FESHBrZW02SnAxZ21tUXlXOWl0dGF4eC9aWTNLbVJJc0Q1RllxcElHQWRvejBvNVgzQnlYWStRN1hTZE04TCtHZFA4QUZNMmwrSFBHM2hPYnhXdC9ENHEwNTMwL3hKRGRTNmh4NWlQR2ZOZEpIOHRrRG9TZ0kyNEZkOW8veFU4YWFoY2FWNHFIaU9HVzExRHhySjRZYndhTE9FTGIyNjNVdHV6R1hIbStlcVJmYURsdHUzSTJEZzE3VkQ4SmZCRnY0cWZ4Tkg0UTBOUEVUdjVyYXF1blJDNUwvd0Ivek51N2QvdFp6VU9vZUVmaC93Q0ZmRXplTWI3U2ZEdWthL2NONVoxeTRnZ2h1SkdJMjQ4NGdNV0k0NjVJR0tPVm9mTW1lSVdQN1FIaUs2K0hYdzB2UnJOdEpyZXMrRTlWMWJVRldHSXMwOXZhQjFiYmo1TnNwT1FBQVNDRDBxL3AzaWo0Z2FoZCtFTkMxVDRoUWFIY2FwNGNuOFQzT3RSNlpiS3J1cGdIMlNOSkFWRVVZa1ozWTVrSVlZWlIwOVgvQU9FRitHWGhXZVhVRDRmOEthUk5xWG1tUzZhenRvV3VmTVhFdVd3TjRaV3czcUc1NjFlOFNlRS9BM2lmUTlOR3Y2UjRmMVRSN05rTmovYUZ2Qkxid25oVjhyY0NxOUFCajZVV2ZjVjEyUG0zeE4rMEY4UnByL3hIY2FOT2sxcjRaMDdUWjFtczEwNkxTOVJrbnRvNTJsdUh2TGlPZU9GeTVSUEpHUmpKTEg1YTlxK1BsMjF4b2ZnelNKbGFLejE3eFBwMWhmSm5JTU81cG1pWWorRnpDSXo2aDhkRFhVZUl2QUhnYlZOZDBqVmRjOFA2RGRhdmFzc09uWGQ5YVF0Tkd3T1VTSm1HY2c4Z0RvZVJWZjRuV2ZoN3hOb01tajZwcmxubzkyazhOM2FYTWs4YXlXdHpESWswTW9WaU1sWFZDUjNCd2VEVHM3TzdDNjAwUG1IeDM0THVmR25qenhkOERMYVdhMGp2Tlp2UEdrVTBURk5sdkpaaG84RWRBTlNsRGUrdzB6U3ZqUHIyc2FMcmZ4UzBlMGxqMVR4QnFXaGVEYmVReFJHU3lDd2lXN0tMTzhjVzc3UmNUUkx2Y0p2VmMraCt1NW8vRGxqY1A0cm5YUzRMZzJxMno2NDRqUmpiaGl5eG1ZOCtYdVlrTG5HVG5yV2ROby9nWi9CZHhaeVdYaC8vQUlSTy9acEpvVEZCOWh1R2tiY3pNTWJHTE44eFBVbm5yVTh2bVBtOGo1bVh4VjQzOFlmRWp3Wm8ycWErZkRtb1dPdjZocDl0ck4ydW16YWg1UjAxSldqbGh0NUpiZFp3eFpSbkFLRlcyWjROM3ducW5qVDRuL0Uzd21FOFd4NlpxbHBwZmliVGo0a3NkUGhrL3RDM3Q5VHRJVW1TSndZMUxzaUZzQWo1WDI0REFqM2lINGJmQzdVdkN0bHBFWGhyd3BkK0hZNVdTMXRGc3JhUzJXVi92YkJqYnZiSE9PVGl1cTB2d2xvZWlmWURwMmphZllIVDdackswTnRhcEdiZUJpcGFLUEFHeENVUWxSZ0VvdkhBcDhyN2h6THNmTW5objQwZU4vaVJvWnVENHV0UEJjMmkrRExYeERjT2xqREtOU3VKRGNCM1lTZzdiZERiRElqMnRtVDd3d0tkcUh4dDhlNjM0WjhaK0xZOWJnOEszSGhMUzlPdXg0VU5sRk45dm5uc29ibDBtWndaQXJ2TVlFOHBsT1V5U1R4WDBEcXZ3ZjhBQXV1UTZWRnFQZ3pRTDJIU1J0c0k1OU5oZGJWYzUyeGdyaEJrQTRIR1FLdGF6OE5QQ1BpTHhCWTY3cXZoalNOUzFxeDJpMTFDNnNZNUo0ZHB5dTEyWEl3ZVJ6d2VSUnl5N2k1bzlqNTkrSG54QjErMStPV3IrRjVVYncxNGUxSHhUZnovQU5xdWtjMzlwWGFXOXUzOW5LVGtSZkp1Y3VSbHdoVkNDQ2EzUDJpTmYxYndUOFZ2RGZpZlRyNmFRNlQ0UDhSMzhla2lPTXhYRWtDMmo3V08zZGh5VXpnNUFpRzNHV3o3bmNlRDlCdWxLemFKcDB5bTlYVWlKTFNOaDlyWEcyNDVIK3RHQmgvdkRBNXFYVlBET2thNWVXRjNxT2xXVi9kYWU3U1djOTFicEk5dXpMdFpvMklKVWtjSEhVVStWMnNMbVY3MlBJL2hsNHE4VlczeEMwTFE5VjhXeGVON0hXL0RjbXVTWEVkbkRBTEdSSllVUVJtSURNTWdtY0tIM1BtSW5jZWNlM1Z6bmhMNGNlRlBBTFhqZUd2RFdrK0gydkdEWERhWlpSMjVsSXpqZHNBempKeG5wazEwZFVycmNsdTVkK0dQL0pmdEYvN0ZqVnYvQUVyMHl2bzZ2alB4SnJIeEQwSHhwRmUvQzdRTkw4UytNby9DMnJmWk5QMWU2TnZDL3dEcGVtWk9lQXpEakNsNHdlZm5HTUh4ZjlpbjRzZnRCK012Mmh2aUtQSDFqRHFYeEJzZE1qUzI4TitMZGR1dEJ0N094ZWY5N0xiV2tOalBISU42VzYrYmhUZ3I4MG04a2NkZjRrZGRENFdmcHBSWGxYL0NTZkcvL29ubncvOEEvQzh2di9sTlIvd2tueHYvQU9pZWZELy9BTUx5Ky84QWxOWE9kSjZyUlhsWC9DU2ZHLzhBNko1OFAvOEF3dkw3L3dDVTFIL0NTZkcvL29ubncvOEEvQzh2di9sTlFCNnJSWGxYL0NTZkcvOEE2SjU4UC84QXd2TDcvd0NVMUgvQ1NmRy8vb25udy84QS9DOHZ2L2xOUUI2clhoUGgrNTFlemwvYWN1UEQ4WmwxNkxYekpwOGFydUxYSThNYVFZaGp2bDl0ZEQvd2tueHYvd0NpZWZEL0FQOEFDOHZ2L2xOV1QremxjNjVlZUtQalpMNGswN1Q5SzFwdkdjUG4yZWwzOGw5YngvOEFFZzBjTHNtZUdGbnl1MG5NYTRKSTVBM0VBK1pkWjhIL0FBa2gvd0NDZCtuK0xkRnM5UGw4YVNhTmI2aHAzaUNBSTJ1eStKbkNsV000L2V0Y203TzExM0U0M0xqYnhYWTZ0OFpmaTFZd2VNdFN1L0dkaHBOc3ZqZXg4QjJNTDZUQzhHbEc0TmkwMS9OSWNHUmtFczBjYUVoTjBpbDkzRzM2YXRmZ1I4TjdIeHUzaksyOEErR29QRmpTR1k2M0hwTUMzbm1IT1pQTkNidDV5Y3RuSnoxcmIxRDRmK0dOVzBmV2RKdmZEbWszZWw2MUkwMnAyVTFsRzBOOUl3VU04eUZjU01RaURjMlQ4aStnb0ErRmJ6NHFlUGZobjhSUGlKb0dqNi9ONHQxL1hQSHVsZUhwdkVtbldkZ2wya1kwVVQ3VWpua2l0UHRQN29SZk93VElZN1MyRXJ1dkJ2eGQrTVhqM1h2QlBoSi9FVVBoZTR1ZkVHdWFkZTZwTmE2YmUzdHhaMmNGdk5FWFMybW10NHJrTks4VEFOZ2JTMndaVVY5SndmQVg0YVd2aEc4OExRL0Qvd0FNUStHN3dvYm5TWTlJdDF0cHluM0dlTUp0Wmx3TUVqSXh4VzFvSHc1OEtlRmJUUnJYUnZET2thVmI2TWtpYWJIWjJNVVFzbGsvMWdoMnFQTDMvd0FXM0c3dm1nRDRQMXJROUk4SitEZGM4ZTNPaStFdmlaNEZrOGJTYXRMNHFzSGswbnhocDE1L2FuQ1lraWJ6cElaUDNRUVBFV2pVS0Z3ZWV3MHZ4aDRwK0h0djhTclRUUEdHdFh1dWVJUGl2Tm8xamEyR2wyTnplbkZpazhpV3dtTVVDT1kxR1h1R01hckZ3cFp1ZnFodmdUOE4zOGNONHlid0Q0YWJ4YTBnbU90dHBNQnZESU1ZazgzYnUzOEQ1czU0NjFMNGcrQ1h3ODhWL3dCcy93QnRlQmZEbXJmMjFORGNhbjlzMHFDVTNzc0tsWVpKdHluekdSV0lWbXlRQ1FPdEFIeDk0RCtJdmpmNG4vRWY0V2F6cXZpVzZ0dFIwZSs4WTZTMXVrRmt4dS9zaGoyZWQ1SWVNeWxDcVA1TGJNeGtwakpycm9mMm9QRlY1NEQrRVYzWmVKdEJHdWE5OExkVjhUNnBOcWZsUjJpNmhEYTJSaG1uWlIrNWlFMHR4dUM0SHlzRDkzajZWMC80Sy9EN1NaclNXeDhEZUhMS1MwdkYxRzJhMzBxQ013WFN4aUpaMHdueXlDTlZUY09jS0IwRlJhRDhEUGh2NFh1N3U2MGJ3QjRYMHE2dkZtUzRtc3RIdDRubVdZQVRLektnSkRoUnVCNGJBem1nRDQ3OFpmRXp4VHFudzE4UWFmOEFFRFZkVkdvZUdmRUhnN1g3eTExNndzWVpMRzBrMWVQekprdWJGMmdudHN3c1ZiQ3VnamN2a0VFZGgrMTU4U3J6d2Q4VTVQRXZoSFViWnRmOEtmQzd4RnEzbUtFbkZzWkxqVHhiczZuSXc1amZBUFVJM29hK2hQaC80TitFbWgyZXVlRlBCV2orRHJXMm5ETHEyamFMQmFnU0FncVZ1SW94eU1NVnc0NkhIVGlzbnhSK3k3NER2dmhINDI4QmVGUEQyaitBYlB4Vll5V1Y1ZGFEcGNNRGZNcEFkbFFMdks3amdFOFo0eFFCNFA4QUVMNC9lUDhBNFM2OXFuaFllUDhBVC9Gc21xYVpvZDNCNGxuMHkzamc4UHlYK3FSMlRTdXNXMUhnOHVScFl4SVMyWS9tWndjMWlEeDk0bytIUHhFK01HbXhlT3JqeEw0cXZkZThOYUJaNm5wV2oya3VvWERTV2s4eGdXSm5qdFVuQ0xKKzhrSWpDakpYUEZmWG1qZkJQNGVlSGRCMXJSTks4QytHOU4wYld5VHFlbjJ1a3dSd1gyY2crZEdxQlpPQ1I4d1BXcWNQN1BQd3V0L0N0ejRaaStIUGhXUHc5ZEdNM0dscG8xdUxlWXhrbU5uVFpoaXBaaUNlUVdKSFdnRDVQOEsvRUR4cDhWdkdud2JtMXp4RmZXTjdvSHhOMXJRWlI1V250TmRKRHBGektvdURBSGc4M2FYZ2J5VzJmT3hHSENsV2ZDbjlxUDR1K0xJL0MvaWJVSXJpRFN2RmR2cTByYWZmalJvYlN4RUZyY1RSZllSSGROZXl5UlBDaVNyUEVjaG5KV1BiZy9YMW44RC9BSWRhZkJGQmErQXZETnRCRmVXK294eFE2UmJvc2QxQW9TQ2RRRXdKSTFBVlhIS2dZQkFwK2wvQmY0ZjZING0xYnhGcDNnanc5WTY5cXlQSHFHcFcrbVFwY1hTdnpJc2poY3NHUDNnVDgzZk5BSERmQm54UjQwdC8yWTdYeHg0djExZkZmaVBVTkJYeEVxVzFoSGF4MisreVNWYldORSs4QXdKM01TU1hQUWJWWDVGOGRhVGM2RG92N0wvalhTSjVOUTFmd3I0RzFEeDVQTkFTVzFGekxwVnhxYkh1elR3M042ZmRwQlg2TjJHbFdXbGFYYjZaWldkdlo2ZGJRcmJ3V2R2RXFReFJLb1ZZMVFEQ3FGQUFVREFBeFhEZkRmNFQrR1BCZmgreThQd3BZNjMvQU1JL0ZjNlhZeVhWdkZKY2FmWVRzc2dzZDNKRVlqRUNZT042UlJsZ1NNMEFmQS9qRHhiTDRnK0xueE4rTWRxYlhWTEx4RjRGMXVQUTQ3KzJTNnRIMHl4MVhTcldCL0prQlYxbGtXNW5HNGNpWmVPQlhwWHhOK0lmaW40aVhtaWF6ZmVOck8wMFczK05XbGVHb2ZCUnNZVmtSTFRXSWtSekwvcmZPZnlmT0lKMmVXMkF2UTE5a044S2ZCTGFmYjJCOEhhQWJHMnNHMHFDMk9tUWVWRlpGa2MyeXJ0d3NKYU9OakdQbHlpbkhBcXBkL0JQNGUzL0FJeWJ4ZGRlQmZEbHo0cFo0cERyVTJsUVBkNzRtVm9uODBwdTNLeUlRMmNnb3VPZ3dBZkhDL0VMeFY4VXRVK0EvakRYUEd0bmVXZmlEeFZxODhQZytPd2hpZlN2SjAzVTQwUVNMKzhabzBPeVh6Q2ZuZGR1MERCNXJ3WDhmUGlib3Z3djhKK0gvQ0J2TkwwN3dmOEFDdncvckt6UVI2UjludXBwclJ6dnZaTlF1b1dTMVh5VlFtMytjSGVTNCtSVDkxMmZ3UDhBaDNwL2lxNThUMjNnUHczQjRqdVp6Y3phdEhwTUF1bmxLdWpTR1hadTNGWkpBV3praDJ6MU5SNjU4Q1BodDRtWFFFMWJ3QjRaMUpQRDhTUWFTbDFwRUVpMkVhNDJ4d2dwaU5CdFhDcmdEYU9PQlFCOG9lT1Ayc3ZpWDRSOFhIUkpwTE9DNDArK3NmR21xUm1HS1FSZUVYdDdSYnVJT29LbG83bWVjQ1lISkVJNVBOUitLUDJsUGlUZmVDN0hWTkoxN1U0ZFF1UERkLzQzK3k2VHBXbXFscnBzdDFOL1pyWGM5OUlpQ0FRSWdaWWxhZG0zSEk0ejlwYXA0SDhPYTVlM3Q1cVhoL1M5UXU3N1QyMG02dUxxeWpsa3VMSmlTMXJJektTMEpMTVRHY3FTeDQ1cko4UWZCcndENHN1TkZ1TmI4RWVIZFhuMFJCSHBjbDlwY0V4c1VHTUxEdVUrV293TUJjQVlIb0tBUG1PNC9hRytKZDFaK092SGR0cWRxdWcrRWZoOXBuaXBmQzhPbm80djd5NzArNWxLUE9mM2lReHZHajRYNWp0eHVBeUc2ejltYjRxZkVueEI4U0g4UGVNSmJ6VU5LdS9EVWV1SmQ2dWRGaXVZNXpNaUFRUmFkZFRGcldSWkNWYVZjZ3hFRjIzY2ZRSGh2NGVlRnZCdHBKYTZCNGIwblJiYVMzanRKSXRQc1lvRmVHTU1JNDJDcU1vb2Q4S2VCdmJIVTFVOEIvQ1h3VDhMVnZsOEhlRWRFOEtpK2NTWFEwZlQ0clh6MkdjRjlpak9NbkdlbVRqclFCeTN3Yi81S0w4ZHYreHp0djhBMUh0R3IxV3ZnejlvSHgxKzBKNEh2dmpsUDhEdkN0bnJTdDR1aE9vYWpHUHRXcFdtUEQyallOdmFNTnNuYm5FaDVJOHNZM1ZaL3dDQ2Z2ajc0dmVKZmdFK3EyMmw2RDQxMW02MXE5YlhML3hWNDN2b0wrSytWbFF3dkIvWmt5d0JZVmd4R3NqQUFnL0tXS2dBKzZxSzhxLzRTVDQzL3dEUlBQaC8vd0NGNWZmL0FDbW8vd0NFaytOLy9SUFBoLzhBK0Y1ZmYvS2FnRDFXaXZLditFaytOLzhBMFR6NGYvOEFoZVgzL3dBcHFQOEFoSlBqZi8wVHo0Zi9BUGhlWDMveW1vQTlWb3J5ci9oSlBqZi9BTkU4K0gvL0FJWGw5LzhBS2FqL0FJU1Q0My85RTgrSC93RDRYbDkvOHBxQVBWYThpL1o5dkxmL0FJVWY4TkxUejQvdFI4TGFiS0lONDM3UHMwUTNiZXVNbkdhc2Y4Sko4Yi8raWVmRC93RDhMeSsvK1UxZkdYaWlENG5YMG53M3RQaFdzQ2E1TjhGb0RjM0J1UEp1bHRsa3RtZExNbEdVWE1oQVJHWWJWTEZ1b0ZaelYwVkUvUUd5MUt6MUx6L3NsMUJkZVJLMEV2a3lCL0xrWDd5Tmc4TU1qSVBJcUxVZGMwN1IyUVgrb1d0a1hWblFYRXl4N2xVWllqSjVBSEo5Qlh4Ny93QUxUMGpSL0FQdzI4UGZBcTkxTFJ0RXV0RnY5WWxzTkhzTENTK2pXQ1NKSlpMeWZVWlZpaTJUU1NMUG5mTTduZ2pCWStUL0FCTTFmVi9pNzREMW40aWE1cUN0ZjMzd0hmVUhzbzdTSHlZNVppNnkrVXhReUlHWWJ1R3ovQ1NWR0t3NVNybjZVVm1heDRtMGZ3NllocXVxMk9tR2JQbC9iTGxJdCtNWnh1SXpqSTZlb3I1UVA3UmZqYlZQQ0hpR2ZVTlF2ZkN2amk1OFlXL2htMzhFNmZwZHBkMytsQmxhV05JM2xrV0dXYTRnVXplZksva0tNaFZKUTdzclY5V0h4eS9ZNStPR3BlUDlGMC9YZkVmZzYyOFM2WFlhanF0bFl6WHR2NVZuNWl1WHQ5MEtUS1NvWXdFTHVpQkhJbzVRdWZZK2orSXRLOFFSeVBwZXAyZXBKR1FydFp6cEtGSjZBbFNjVm9WOFdXTjlmZUY3N1hkQThDNjNvZndnMDd3eDRDMDN4Uk9iRFE3TXRyZHhMSGNaa24zcHpCRUxZSzJ6YTVNcCtjY1ZuYXgrMFI4VE5ROE4vRTN4a2ZHTmo0UWw4R2FEb3V1UmVFSk5PdDVoUFBjNmJGY3kyazd1REpzZVZtaVF4bFdERS9NUUF0SEtGejdldDd5QzdhWVFUeHpHRnpGSUkzRGJIQUJLdGpvY0VjSDFGVFY4Y2FQOFRQRjNpRDRxWDNnclN0WnRQaDFiYXQ0cDF1VzUxdTAweTBOd3h0YkxUblMyeEloamVWemN1elNTS3psTGNnSGpLK24vQUJDK0ptdGFOK3hoNG84YVdldVdldjY5YStGTHU1ZzEzUllqSGIzRXl3dUV1b2xQUmNnU1lHUndjRWpCcFdHZTVXZDViNmhiclBhengzTURaQ3l3dUhVNEpCd1J4d1FSK0ZUVjhmOEFpcnhkNGw4R3llTnZEZmhEeHZaZUF2RGZ3cDhGV0dvMkZtZFBndVJxK2JlWnQ4N1Nnc0xjQ0JJLzNKVnl6T1MvM1FjM3hEOGZQaW5idy9GUHhNK3UyZWdhWG9NL2gvU3JQUlo5TWprV3d1TlNzOU9hYTR1WmlkelIyNzNqdUZHTWtFTVN1QUh5Z2Zaa2Q1YnlYVXRzazhiM01LcThrS3VDNksyZHBJNmdIYTJNOWNIMHFhdno5OFNmRTd4djhIL2l4OFdJYkR4UXZqZnhEZlQrQy9EeTY1RFpXVVU5cEhjUHFURXRHenhXeG01S3B2WkV6TkZ1emc1N0xTL2k3OFl0ZTFEUXZCaTYvd0Q4STlxVno0NGswQTYxcVZycFY1cUgyTWFOTmV1bHhCWnpTMjhkeWtpZkxncUNQS0xKZ3NwT1VWejdKdnI2MjB5em11N3k0aXRMV0ZTOGs4N2hFUlIxTE1lQVByVXlzSFVNcERLd3lDT1FhK1V2Mm9ybnhMOFJ2aG5Ib09yK0h0WThGMkVQalR3NVpDK3YyMDI4aTFxS1RWWVlpNGlSNXRxcWZMbDJ5b21jcXBCRzlhNWJ3biswVDhVOVkrSVZwZXJiWFMrSFpQSFUzaE50S3VmN0d0OVBTMWl1SHQyWlhhNlc5YTdBVHp0dmxiV0FLcW1DSG81Um4ydlZPKzFpdzB2L0FJL2I2MnMvM2J6ZnY1VlQ5Mm1ONzhuN28zTGs5QnVIclh3eDhQZjJzdml2ZWFab1BqalU5TXU3elI5Y3M5WXZaTkN1djdIaHQ0VnRyUzR1STQ3RHlybzNzc3F0QXNjaXpSOUdZNGoyZ1Z3M3gyMXJ4SnJYaHRkVDhRL0VDeDhhejZwOEhmRUdyb2xuWXcyNjJMVHZweFpVOHZsb1NWQVRmbDh4UGtuT0Fjb3JuNldVVjhlK0pQalI0NitGdDk0dDBlKytJbHY0eVIvRCtsNnBaYXhhYUxieVRXTjdlWHd0WTdhS0dKbzBsV1lNV2hNcmNGY3U3THljblJmMmdQaVhkVGFsNEp2ZFp1ZEUxSC9oTjlQOE9ONGsxbTIwMlMvMHkydU5PYTZZU3BhczlvWnpKRjVTY0ZSNTZobExEQk9VWjlwTmVRTGRKYW1hTVhMbzBxd2x4dktBZ0ZndlhBTEtDZmNldFRWOERmRlg0dmVNL2h6OFJORjFuVE5Zcy9pQnFPbWVIUEVXbDMzaXEwdEYyYVZaSnF1bGllK3VMWk5xelBiS0NIamh3R1pjNFVCZ1BVUDJxUEZYaWJVdjJiZmlmbzF2cHV0SFJyZndqTGR3L0VGYm5UV3R0VnhicEl3V0tPVHpGOHdNNmxoQ2dHR0trZktTY29ybjFUUlh4cjRyK01IeEgwbXgrSit1NmY0N2ozZkRlL3NOSXR2REUrbldoZnhBejI5cElaYmw5Z2RHdVd1V1NMeURHcWxRY055S2wvNFhYNC90ZFExanhNZkhkbmVXdW4vRkQvaEM0ZkJxNmRiZ1hGcEpmUjIrMXBRUE5Gd2tjcGxWZ3dYYkdOeXRrbWpsR2ZYOXJlUVg4QW10cDQ3aUZpUUpJbkRLU0NRUmtlaEJIMUZGdmVXOTIweXdUeHpOREo1VW9qY01ZM3dEdGJIUTRJT0Q2aXZpL3dDSC93QVVQR0hpZXowZnc3cC9pL1MvaGRwMXJvbXRlSUpOU3R0SnRCRmR5eGF4Y3dlV1kzVFlzVWFJSkpTZ0RzWmdkNm5KUHEvd3gxaThIN1IrclJ4WEZyZFdQaVR3THBIaUcvYXlWbGhOK0pacmZ6MERZWUNXRlkxR1JuYmJMbnBTc0I2cit6ci9BTW0rL0RIL0FMRmZTLzhBMGtpcjBLdnlZL2FZK01YN1UvZ2Y0QytBcmZ3eG9yZUd2aGFQQyttQStKdkRMdGNYYngvWTQ5eHVKZ045b0J4eXFyZ25Ba2V2dS80YitJUGl0RDhPL0N5ZUhQQmZnUFZQRHk2VmFycHQ5TDhRcitaN2kxRUsrVklaRzBiTGxrMm5jZVRuSnJzTWozaWl2S3YrRWsrTi93RDBUejRmL3dEaGVYMy9BTXBxUCtFaytOLy9BRVR6NGY4QS9oZVgzL3ltb0E5Vm9yeXIvaEpQamY4QTlFOCtILzhBNFhsOS93REthai9oSlBqZi93QkU4K0gvQVA0WGw5LzhwcUFQVmFLOHEvNFNUNDMvQVBSUFBoLy9BT0Y1ZmY4QXltby80U1Q0My84QVJQUGgvd0QrRjVmZi9LYWdEMVd2S1BqdC93QWhuNFcvOWpSSi93Q21mVXFkL3dBSko4Yi9BUG9ubncvL0FQQzh2djhBNVRWeEh4QTFiNGkzM2k3NFpSK0x2Q3ZoZlE5TkhpR1pvN2pSUEV0enFVelMvd0JrNmhoREhKcDl1QXUwdWQyOGtFQWJUa2tiVWY0c2ZWR1ZiK0hMMFBPLzJ2cE5laTBuNFlud3ZEWlQrSVQ0MnNsc1YxRjJXMkVwdHJvQnBDdnpiVnp1SUhKQXdPVFhsdmdYeG8zdzgrRi9pYUtTNXZMTDQ2WEhpVzAwanhQY20xaXY5UnZyeWFUOXdiWlpXamlFRWtBUDJmZVZpalhPUVNyWit3OVMwWFQ5WWF6YS9zTGErYXpuVzZ0bXVZVmtNRXlnaFpFeUR0Y0JtQVljNFkrdFl2aVQ0WCtEdkdVdDdMcjNoVFJkWm12YmRMUzVsdjhBVDRwbm1oUjk2UnV6S1NWVi9tQ25nSGtjMTlCS20zTG1UUENqVVNYSzBmSS8vQ1NlSi9qRzNnZlQvRXVxWE1VdmgvNHRIUm5qdTdiVDVwcDFqMGw3cU5yZ1FoNFBOalpuVDkwZHZPY2JsQlZmZ2Y4QUhEWFBEZmgzV3JIV0xwZkJXZytITkMxcld0SysxV3EzUTE3WmVYWG5YQktuY0V0MkNEeUUyeU52REZ0cEFyNnowWDRVZUNmRGNrY21rK0Q5QjB0NHBZcDQyczlOaGlLU1JSTkZFNjdWR0dTTjNSU09Rck1vNEpGV3BmaDc0Vm50N0dDVHd6bzhrTmo1L3dCa2phd2lLMi9uQmxuOHNiZmw4d080YkdOd1k1emsxS3BTVHZmVXQxSTJ0YlErS2ZpUDhVdkd1dmZDajR6K0UvRk11bzNjUytCb05hdC83Y3Q5UGd1MGVXYVJHQVN5a2RWaVlCQ3F5bnpCZzVKelhhZU9QaDM0cytGOWo0cytMZW5lRi9CZnd2dmZEZmhEVllvTFh3bkw5cmJVSm1XT1NOcmpkYXdKc2lhSEtydFlrc2VRT0Q5RWFiOEIvaHJvOXE5dFkvRDd3dmFXMGtFbHM4TU9qMjZvOFVoVnBJMkFUQlZpaUVnOEhhUFN1djFiU0xIWDlMdTlOMU95dDlTMDY3aWFHNHM3dUpaWVpvMkdHUjBZRU1wSEJCR0RRcUw2c1Bhcm9qNXYxYnhIOFJWOGFYSGcyOCtKMXZvRnpvdmhVZUpycldFMGkxSDIrV1dlNFh5eEhJckt0dEFzS2c3ZjNoRWd5NFBKOForTEh4bThhL0dEOW5YNG9hcnFQaU96OEdRYVg0WjAxTG53dzlsR3h2bnZiQ0M0bGRuZk1pQmpjR09JS1JneG5kbmtWOXMrTXZoYjROK0lqV0xlS2ZDbWkrSTJzV0xXcDFXd2l1ZklKeG5adlU0QndNZ2RjRDBxRHhKOEhmQWZqTFZvZFUxL3dYNGYxelVZWURheDNXbzZaRFBJc0pCSGxoblVuYmdzTWRQbVBxYUpVNU5OSi8xL1gzaEdwRldkanhyWFBqeHJlbDZiNG1SdFp0WWRUdGZpZnB2aGl6aGFPTGY5am1uc3Q4VzNISk1VczVESDVzY2c4Q3NPeCtOM2pTeDhGNmo4UnJ2eGJZWGNyUDRnU0w0ZVNXVWFsRFlKZG1PR0tSRjg0ekw5blJwUzVLa00yMEw4dWZvUy93RGhKNEgxVHhRM2lXOThHNkJlZUltTVRIVnJqVElaTHJkR3l0R2ZOSzdzcXlJUWM1QlJjZEJWalQvaHI0UjBueFJmK0pMTHd2bzFuNGh2d1Z1OVdnc0lrdXJnSHFIbEM3bXp4bko1d0tya25mY25uaGJZK1JQK0doUGkxb25nblg3KzR1NUpwNXZCcitJYlM2MWhOSFV3WFFsZ1ZEYncyZHpLNzJyQ1pobVpkd0tyOHhMRUQ2QitMZXIrSi9oYit6QjQzMU81MTJUWHZGV21hRGYzQzZ0RmFwYkh6aWtqSTZ4cHdxeDdseDFPMk1Fa25KUFY2SjhGZmg5NGJzOVd0Tks4RCtIZE90ZFg0MUNDMjB1Qkk3c0E1QWxVTGh3Q1NjSEk1TmROcm1pMlhpVFJkUTBqVXJkTHZUcisza3RibTNrKzdMRTZsWFEreFVrZmpSR0VrbmRoS2NXMVpIeTk0bThVK0lmQ01uakh3NzRVOFpXZmdqdzk4TWZCOWpmMlZvYkNHNEdxNWdtYmZNMG9MQ0FDQlkvM1JWeXpNUy9RR2xyWHh5K0pWblkvRnJ4WkpxMXJwV20rR290SnRiTFFaZE9SeGEzTjdZV01ra3R4TG5jMGNFbDB6N1Jna0srU1FBQjdwRDhGZkJWMVllRTlQOFdhVG8vakhXOUR0VmcwL1V0Y3NJSmJ3cEZ0QWNGZ1RrZklXSzhianV3TWl1dXV0RDhQeHZmeFhPbjZhcjYrL2wza2NzTVlPb3NJZHUyUUVmdlNJbzl1RG41RXgwRkwyY3U5aDg4ZTF6NHU4YmZFYnhwOEovaTU0dmpzL0ZLK050ZHY3UHd0b2Nlc3dXVm5GTlp4WEYxcURITWJQSGJtVGsrWHZaVi9mUmJzNE83cmROK0tueFoxelVORjhJcnJuOWc2aGNlTTVORE9zYWpiYVpkMzMyUWFSTGVNdHhEYVN5d1IzQ09ueTRLZ2p5eXlZTEtmb2ZUUGdmOEFEclJkRHY4QVJyRHdKNGJzOUsxQ0ZiZThzNE5KZ1NLNWpWbWRVa1VKaDFET3pBTm5CWWtkYTB2RC93QU5mQ1BoUFQ5THNkRjhNYVBwVm5wY3ozTmpCWjJNVWFXc3pveVBKR0F2eU95dTZsaHlRN0FuazBsU2xmY2JxUnRzZURmdE5YSGlMeDU0RVh3OXFXZzZ0NFYwMkh4Zm9ObU5UdkcwNjZnMWlKOVVoaTNDSlhsS3JrcEx0a1JNL0twQkc1YTVud3Y4ZlBpWnEzankxdkZ0N2thQS9qV1h3czJtWEg5a1FXSzIwYzcyN0ZYYTVXOE4wQW5uYmZMMm5CVlV3UTFmVytxYVBZYTNieHdhalkyMS9ESE5IY3BIZFJMSXF5eHVIamtBWUhESzZxeXQxQlVFY2lzT1A0V2VEWWZHaitNSS9DbWlwNHJkZHJhMnRoRUx3NVhhZjN1M2RuYjh1YzlPT2xWS25KeXVtVEdwRzFtajVLOEIvdFJmRSs3MDNSUEdlcGFkZFhlbGExYWF0ZVNhTGMvMlRGQkV0dGF6enh4MlhsM0p2SlpGYUZZNUZsajZNeHhIdEFyalBqWnEvaUhXUEQ2NmxyL2pxeThZVGFsOEp0ZDFSRXRMT0tCYkpwbjA4c0U4djcwUktnTHZ5MlkzeVRuQSs1OUcrRmZnenc3NG92OEF4SnBYaFBSZE44UVg0WVhlcVd0aEZIY3o3amx0OGdYY2R4d1RrOGtjMW42WjhDdmh2b3EzeTJIZ0R3eGFDK2psaXVoRG85dXZueHlsVEtqNFQ1bGJZbVZQQjJya2NDczNSbTQyY2kxVmluZEk4SDhSZkYveHI4TmJ6eFRwTjU0K3QvRnF0b1dtYWxaNnJhNlJidkxaWGwzZWkyanQ0b28yUkpGbUJMUmVhM0JYTHNWNU9aby94MCtJdDFOcUhnNjgxZTQwYS84QStFenNQRDU4UWF2YjZmSmZhZGJ6MkRYTENSTFl2YW1ZeVIrV25CQTg1UXdMREIrazlQOEFnejRCMG5RdFgwU3g4RStIclBSOVhiZnFPbndhWEFrRjRjNXpLZ1hENDdaQnhVTVB3TitITnZwRjVwVVBnUHcxRnBsNUJIYlhObkhwTUN4VFJSc1dqUjFDWVlLek13ejBKSkhOVjdPZmNubmgyUGxUNG5mRmJ4ZjhQL0gyajZ2cDJxMm5qdlVOTjhQNi9wdDc0bXRiVmRtbVdhYW5wb212WjdkTm9tZTNVRVBIRGdNeTV3b0RBZlZuaFB4VnJONXJrV2p5YURxV282SEhaUlN3K05wTHF4TnJxUk1hTnVXS0tUekFXTE56NVNyOHB4d1Z6c2FYNEE4TWFIYjJrR25lSE5Kc0liTzBrc0xhTzFzWW8xaHRwR1ZwSUVDcU5zYk1pTXlEZ2xRU09CV2xvK2oySGgvUzdYVE5Lc2JiVE5OdEkxaHQ3T3poV0tHRkFNQkVSUUFxZ2RBQmlyakJ4ZDdreW1wS3lSa2ExL3lVcjRVZjlqRGNmK21mVXE5MnJ3bld2K1NsZkNqL0FMR0c0LzhBVFBxVmU3VjQrTi9pbnE0UCtFZkcvd0FJZitTVGVDdit3SlpmK2lFcnJhNUw0US84a204RmY5Z1N5LzhBUkNWMXRkRXQyY3NmaFFVVVVWSlFVVVVVQUZlQi9HYncyZkZIeG84T0hUSlBET3QrSU5OMFM1a2o4TCtMcmVUN05MQkxOR0d1SUpnakJKUVlnaCtWaUZia0FISjk4cm52R0h3NzhMZkVLM3Q0UEZIaHpTL0VNTnUrK0ZOVHM0N2dSc2VwWGNEak9PY2RhVWxkRGk3TStXL0JkcjRTOFVlSVBoSHBkeDRaczdIUnJIVVBGRnBOb3VvVFIzOW5CUEdWM3JCSXloWGhEazdQbEdCeGdZckIrSXZnclJ0Y2grSXZnM3c1TkRCOFA3L3hmNFlzSVlOTUFGclozazA2cGVwQnQrVVlEUU15cjBkbUdBYSt1ZFcrRlBnbnhCcFduNlpxbmc3UU5TMDNUd3dzck83MHVDV0cyM1kzZVdqS1FtY0RPMERwV2piK0MvRDlucE5ucGNHaGFaQnBsbk5IY1cxbEhaeHJEQktqQjQ1RVFMdFZsWUJnUU1nZ0VjMW55R25PZkhkOTR5di9BSXZlTVBoVnFlcHUwY3ZnalZ0TjB2VlUzRUovYlVzN3gzUVAvWE5iVEl6MnVRYXV5YU5MNHkrSm5nanhNTks4T2F4Y2VMYmJ4QnJpUStLUVRhL1pUSnA4Vm93K1J2bSt6UlFFY2Z4UCtQMXBKNEY4TlN4M01iK0h0S2VPNnZQN1JuVnJLSWlXNndCNTdEYjgwbUFCdlB6WUhXcW5pSDRXK0RQRjF0cDl2cnZoSFF0YXQ5T2pNVmxGcUdtd3pwYklRb0t4aDFJUVlWUmhjZmRIcFJ5TU9kSHlWNE44UDJ1cmVDdE04S0RVUEROcnErbi9BQkMxR1cxMGU0Z2t1dkRXb3plUTg0dFlXVURaR2lYRzVRM1NXSmh0SkFBZjRwamcvc1RYL0RrWGdqU05MMStEeDk0ZGsxRFJMWFVCUG9kNU5OSkVGMkh5UjVRa1ZBSkZNUkl6dUliZHo5YTMzdzE4SmFsNFZYd3pkZUdOSG44T29RVTBsN0dJMnFrSElLeGJkb0lKSnlCMXAybGZEbndwb1dqMjJsYWQ0WjBpeDB5MnVFdkliTzNzWWtpam5RZ3BNcWhjQ1JTb0lmcUNBYzBjZ2M2UG5YeGQ4SU5UOEgrQi9pMTQxdU5LOE8rQnBENGVqdWJMUi9DOGpTd1IzbGcwdHpEZHU1aGlCbDM3RkcxT2k4azVyNmgwaTZsdnRKc3JtZUx5SjVvRWtraS91TVZCSy9nVGlzang5NE1nK0lIaHVYUXJ5ZG9kT3VwWWplUm9vSnVJVmtWM2dPZWl5QmRqZDlyTUJnbkk2S3JTc1EzZEJSUlJWRWhSUlJRQVVVVVVBWGZoai95WDdSZit4WTFiL3dCSzlNcjZJYTBnYTZTNmFHTTNNYU5Ha3hRYjFSaXBaUWVvQktxU08rMGVsZk8vd3gvNUw5b3YvWXNhdC82VjZaWDBkWEZYK0pIWlErRmhSUlJYT2RJVVVVVUFGRkZGQUJYbFh3Yi9BT1NpL0hiL0FMSE8yLzhBVWUwYXZWYThxK0RmL0pSZmp0LzJPZHQvNmoyalVBZXEwVVVVQUZGRkZBQlJSUlFBVjQzKzJOcUd0NlYreTc4Uzd2dzlKZVE2bkZvMHhFdW41KzBSdzhDZDRpT1E0aTh3Z2pvUURrZGE5a3BHVVNLVllCbFlZSUl5Q0tBUG1XNjhKL0Fid0hkL0NiVi9CK2phZmI2Nm9sYndyL3dpS1JwYzZoQXRsTThxek5HTXkyNWpCTHMrUnZLSE81aG56alIvajk4VGJMd0I0SDhhU2VPYlB4TzNqendwckd1UzZQRHB0dEhENGZrZzA1N3VKb0dVZVk2eFNpTzNrRXpTWmFSVDh1Q0Q5WGVEZmdwOFB2aDFyTjdxL2hYd1A0ZDhONnJlQWk0dmRLMHVDMm1sQk9TR2RGQklKR2NkTTgwelJQZ2Y4T3ZEZXBhNXFHaytCUERlbTMydVJ5UmFwY1d1bFFSdmVwSWN5Sk1RdnpxeEpMQTVERTVPYUFQbWE0K0xueGM4RTI1dDd6eHhwR3ZhcDRnK0hFbmltd2ZWN0szMDYwMDNVVXVMT0VSSklvR1luKzJnRHppMkdSY3NGWWdXdkIzN1FIalRUOWU4TWVIdGQxM1ZJOVJieDVhYU5xMXA0bjBxd3Q3MjNzN2pTcnk0amlhVzBacmFWWG1naktTUmJXeGhXR1R6OVQzM2dEd3hxa1lqdlBEbWszYURUMzBrTFBZeE9CWk9WTDIzSy82bGpHbVkvdW5ZdVJ3S3dMYjRBL0RLejhGemVENGZoOTRZajhLenlpNG0wVWFSQjlra2xHTVNORnMyczR3UG1JendPYUFQbm14K012eEQrS1h4RDBudzE0WjhjVytpYWJmK0xmRkdseTZyYTZkYlhNaVdsZ2tQa0xDSFVvWERzUnVZRUVFNXpnVnh1bWZ0TC9GM3dMOE5mRFBqM1gvRUZuNHdsMTd3ajRoMVE2RkhwVVZ0Ylc5eHB5STBFcU1uNzA3eHVNcXN4SHpIWUVBQXI3UzBINGErRWZDeHNqb3ZoWFJOSU5rMHIydjJEVG9ZUElhVlZXVXB0VWJTNFJBeEdNaFFEbkFxYTE4QmVHYkdQVFk3Ync1cE52SHBrYzBOaWtWakVvdEk1ZjhBV3BFQXZ5SytCdUM0RGQ4MEFmRkZ4KzBSOGF2RHZoUHhRc3Q5SkpldDRhc3RaMC9VdkVNZWllWkJkUzM5dkJpTzMwKzZtTDJra2M3RldrWGNwaUkzc1dHUGNQQzlqcm5nbjlxYlF0SnZ0Y2J4SmRhNzRHdXA5YnYvQUxNbHI1ODlsZndpMm1NVWZ5SjhsOU5HTVpKVkZ5VHR6WHBuaHo0Ri9EandmcGVwNmJvZmdMdzFwT242cElrdDlhV2Vrd1JSWFRJMjVESW9URGJXNVhQUThqRlhkUDhBaDdiV3Z4TTFqeHRjWFVsM3FWNXA4R2xXMGJLRlN6dFkyZVJrVDFhU1J5ek4zQ1JqK0RKQU9zb29vb0FLS0tLQUNpaWlnQW9vb29BOHErRGYvSlJmanQvMk9kdC82ajJqVjZmRGFRVzBrN3d3eHhQTy9tU3NpQUdSOW9YYzJPcDJxb3lleWdkcTh3K0RmL0pSZmp0LzJPZHQvd0NvOW8xZXEwQUZGRkZBQlJSUlFBVVVVVUFGZU5mcys2SHByZkI3NFo2d2RQdFRxNitFZE50QnFIa3I5b0VCdDRuTVhtWTNiQ3dEYmM0eUFhOWxyeWo5bnova2dmdzEvd0N4WjAzL0FOSlk2eXFiRlIzSnRVK0JmdzMxeWFPWFVmQUhoaStrUy9rMVJXdU5IdDNQMnlUYjVseHluK3NiWW01K3AycmtuQXE1Wi9DUHdOcCtremFWYmVEUEQ4R21UMnN0akxaeDZYQUlaTGVTUnBaSVdUYmd4dEk3dVVJMmxtWWtaSnJyYUs1eXpsUEZId244RWVOLzdRLzRTSHdmb091SFVZNFlyeHRRMDJHZHJoSWlXaVdRc3BMQkN6RmMvZExFakdhZHBQd3I4RjZEbytxNlRwbmhIUXRQMHJWb3ZJMUN3dGROaGp0N3lQeXZLMlN4cW9WMThzQk1NQ052SFRpdXBvb0E0N3haOEcvQVhqeWJTWmZFbmdydy9yMG1ramJwN2FscGtNNXRGNCtXUGNwMnI4cThEajVSNkN1Y3QvMmIvQlZ4OFV2RVBqdld0QzBueEZyT28zVnJkMlUycGFaRExMcGpRVzBjQUVNakFzTStXSDR4ZzQ5QWE5VW9vdUJ5WGlUNFJlQmZHR25YT242NzRNOFA2elkzTjcvYU05dGY2WkROSExkYlFwblpXVWhwTm9DN3p5UU1aeFd4cVhoWFNOVzhMWFhodTUwNjNiUWJtemJUcGRQVkFzSnQyUXhtSUtNQUxzSlhBN1ZxMFVBZWJXdjdQL2d6VU5GOEtXM2kzUU5KOGNhcjRidFk3U3gxclhOTWdudWdzZUFqYm1VNGJoU1NNQXNOMkIyN0c2OEc2QmZRNjFGY2FIcHM4V3VER3FwSmFSc0wvRWF4RHp3Uis5L2RxcWZObjVWQTZERmJGRkFIRGFWOENmaHZvZmh6VWRBMDd3RDRac2RFMUtKSUw3VDdmU0lFZ3VvMFptUlpVQ1ljS3p1dzNad1hZamttdEh3NThMZkJ2Zy9UZEswL1EvQ21pNlJaYVRPOTFwOXZaYWZGRWxwTTZNanl4QlYrUjJTUjFMREJJZGdUZ211b29vQXBhdG91bmE5YnhXK3AyRnJxTUVVOFYxSEZkd3JLcVRST0pJcEFHQkFaSFZXVnVvWlFSZ2l1ZmkrRWZnaUR4MC9qV1B3aG9jZmk5MTJ0cnk2ZEVMMDVYYWN6YmQyZHZ5NXpuSEhTdXRvb0E1SFEvaEY0RzhNK0xOUjhUNlI0UDBMVFBFZW9oaGVhdGFhZERGZFQ3amx0OGlxR080Z0U1UEpBSnpXZnBmN1Avd0FNTkRXL1hUL2gxNFVzMTFDT2FHN0VPaTJ5L2FJNVNwbFI4Sjh5dnNUY3A0T3hjamdWMzFGQUhFNmI4RVBoM28zaC9XZENzUEFuaHV5MFRXVzM2bHAxdnBNQ1c5NmM1QmxqQ2JYeDIzQTQ3VkJCOEF2aGxhNk5lNlJEOFBmQzhPbFgwRVZyZFdVZWoyNnd6eFJzenhvNkJNTUZabVlaNkVram11OW9vQTUzU2ZoMTRVMEczczROTThNYVBwMEZsWnk2ZGF4MnRoRkVzRnJJeXZMQWdWUnRqZGtSbVFmS1Nxa2drQ3JrUGhIUXJYd3VQRFVPaTZmRjRjRnFiSWFQSGF4cmFDM0s3VEQ1SUd6WnRPTnVNWTR4V3RSUUJ3bytCUHczR3Q2THJBOEErR2hxdWl3UlcybVhvMG1EenJLS0lZaVNKdG1VVlA0UU1iZTJLeGZBSDdOL2d2d1A0bzFmeFEraDZUcXZpdSsxZSsxV1BYcmpUSVJlMjR1WldrTUt6WUw3VjNGUWNqZ25wazE2cFJSZGdjYnJYd1krSC9pVFQ5TnNkVzhEK0hOVHN0Tm1rdWJHMnU5SmdsanRaWGN2SThhc2hDTXpFc1NNWkp5ZWFtOE8vRDIxMEh4eDRvOFZQY1BlYXByYTJ0c0N5QlZ0YlMzUmhGYm9CL0NKSko1Q2VwYVk5Z0FPc29vQTVUOW5jQnYyZmZoa0NNZytGOU0vOUpJcTc2MXRZYkcxaHRyYUdPM3Q0VUVjY01TaFVSUU1CVkE0QUFHTUN1Qy9aMS81TjkrR1AvWXI2WC82U1JWNkZYYVpCUlJSUUFVVVVVQUZGRkZBQlhsSHgyLzVEUHd0L3dDeG9rLzlNK3BWNnZYbEh4Mi81RFB3dC83R2lULzB6NmxXMUgrTEgxUmxXL2h5OUNTaWlpdnB6NXdLS0tLQUNpaWlnQW9vb29BS0tLS0FQanJWdkZYaWp3TDhUdml2QnBuaXhyT1h4QjQvMGJReGYzMXJCSkZwTWMrbDI4dm5LdTBBc0ZDd0lISlVuWVdETVdMWHJqNHFmRU9IeDdZZkQxZkhVUWpYeG8vaDF2RjBtbld2blhFSjBiN2NZakh0RUl1RWxaWXd5b0ZKS1pRbmNwK2t0WStHZmhEeEZMcTh1cWVGdEcxR1hXSVk3ZlVaTHF3aWthOGlqT1kwbEpYTHFwNkJzNDdWeDNpVDltcndONGdoOEdhYW5oL1I3THd2NGJ2cm05LzRSMkxUSVRaWFJtdFpvQ0hqeHRHRE41bWNFbGxIMXJtZE9hMmY5WE9sVkk5Vi9WajUwOFNmdEVlTHZEOGJhbUgwbnhQcTNodXo4WVdWdnI4Mm5SZzNLMmMybktseGxCbEVYelg4MVlpcXViZnB3dU8zK0xGOXIrZy9DN3hvMXg4UWJYeDdyWGhqK3lQRVdsM0Mya052ZVd0eDlvTENOdklWWXpITXFsRUdOeFNSdzI0RU1mb3F4K0h2aGJUYlBUN1MwOE5hUmEydW4yMDFsWnd3MkVTcGJXOHUzellvd0Z3aVBzWGNvd0cyak9jQ3VhdnZnUDRSSGgreDhQYUpvMm5lRi9EMGVxMitxM3VtNk5ZeDIwZDYwTCtiR2poQUJqelVpWThISWoyOUdOSHM1YTZpOXBIVFE5Rm9vb3JwT2NLS0tLQUNpaWlnQW9vb29BS0tLS0FPYzFyL0FKS1Y4S1AreGh1UC9UUHFWZTdWNFRyWC9KU3ZoUi8yTU54LzZaOVNyM2F2Qnh2OFU5dkIvd0FJK04vaEQveVNid1YvMkJMTC93QkVKWFcxK2Ntai90TWZFblFkSnN0TXNQRW5rV05sQWx0QkY5aHRtMlJvb1ZWeVl5VGdBY2s1cTMvdzFkOFZQK2hwL3dES2ZhLy9BQnF2UmVIazNlNTVTeEVFcldQMFFvcjg3LzhBaHE3NHFmOEFRMC8rVSsxLytOVWY4TlhmRlQvb2FmOEF5bjJ2L3dBYXBmVjU5eXZyTU96UDBRb3I4Ny8rR3J2aXAvME5QL2xQdGY4QTQxUi93MWQ4VlA4QW9hZi9BQ24ydi94cWo2dlB1SDFtSFpuNklVVitkLzhBdzFkOFZQOEFvYWYvQUNuMnYveHFqL2hxNzRxZjlEVC9BT1UrMS84QWpWSDFlZmNQck1PelAwUW9yODcvQVBocTc0cWY5RFQvQU9VKzEvOEFqVkgvQUExZDhWUCtocC84cDlyL0FQR3FQcTgrNGZXWWRtZm9oUlg1My84QURWM3hVLzZHbi95bjJ2OEE4YW8vNGF1K0tuL1EwLzhBbFB0Zi9qVkgxZWZjUHJNT3pQMFFvcjg3L3dEaHE3NHFmOURUL3dDVSsxLytOVWY4TlhmRlQvb2FmL0tmYS84QXhxajZ2UHVIMW1IWm42SVVWK2QvL0RWM3hVLzZHbi95bjJ2L0FNYW8vd0NHcnZpcC93QkRULzVUN1gvNDFSOVhuM0Q2ekRzejlFS0svTy8vQUlhdStLbi9BRU5QL2xQdGYvalZIL0RWM3hVLzZHbi9BTXA5ci84QUdxUHE4KzRmV1lkbWZvaFJYNTMvQVBEVjN4VS82R24vQU1wOXIvOEFHcVArR3J2aXAvME5QL2xQdGY4QTQxUjlYbjNENnpEc3o5RUtLL08vL2hxNzRxZjlEVC81VDdYL0FPTlVmOE5YZkZUL0FLR24vd0FwOXIvOGFvK3J6N2g5WmgyWitqdnd4LzVMOW92L0FHTEdyZjhBcFhwbGZSMWZuVC93VDQrSy9pcjRuL0g3VWY4QWhKdFUvdFA3RDRZdlBzLytqeFJiTjkzWmJ2OEFWb3VjN0Y2NTZWK2kxZVhpWXVFK1ZucTRXU25EbVFVVVVWeUhXRkZGRkFCUlJSUUFWNVY4Ry84QWtvdngyLzdITzIvOVI3UnE5VnI4YS8yM1AyelBqRit6disyRjhWL0Rmdzk4WWY4QUNQNkxkWHVuYWhOYmYyWlozTzZkdElzWTJmZE5DN0RLeFJqQU9QbDZaSnlBZnNwUlg0QS84UFJ2Mm5mK2ltZitVRFMvL2thai9oNk4rMDcvQU5GTS93REtCcGYvQU1qVUFmdjlSWDRBL3dERDBiOXAzL29wbi9sQTB2OEErUnFQK0hvMzdUdi9BRVV6L3dBb0dsLy9BQ05RQisvMUZmZ0Qvd0FQUnYybmYraW1mK1VEUy84QTVHby80ZWpmdE8vOUZNLzhvR2wvL0kxQUg3L1VWK0FQL0QwYjlwMy9BS0taL3dDVURTLy9BSkdvL3dDSG8zN1R2L1JUUC9LQnBmOEE4alVBZnY4QVVWK0FQL0QwYjlwMy9vcG4vbEEwdi81R28vNGVqZnRPL3dEUlRQOEF5Z2FYL3dESTFBSDcvVVYrQVA4QXc5Ry9hZC82S1ovNVFOTC9BUGthai9oNk4rMDcvd0JGTS84QUtCcGYvd0FqVUFmdjlSWDRBLzhBRDBiOXAzL29wbi9sQTB2L0FPUnFQK0hvMzdUdi9SVFAvS0JwZi95TlFCKy8xRmZnRC93OUcvYWQvd0NpbWY4QWxBMHYvd0NScVA4QWg2TiswNy8wVXoveWdhWC9BUEkxQUg3L0FGRmZnRC93OUcvYWQvNktaLzVRTkwvK1JxUCtIbzM3VHY4QTBVei9BTW9HbC84QXlOUUIrLzFGZmdEL0FNUFJ2Mm5mK2ltZitVRFMvd0Q1R28vNGVqZnRPLzhBUlRQL0FDZ2FYLzhBSTFBSDcvVVYrQVAvQUE5Ry9hZC82S1ovNVFOTC93RGthai9oNk4rMDcvMFV6L3lnYVgvOGpVQWZ2OVJYNEEvOFBSdjJuZjhBb3BuL0FKUU5MLzhBa2FqL0FJZWpmdE8vOUZNLzhvR2wvd0R5TlFCKzFQd2Ivd0NTaS9IYi9zYzdiLzFIdEdyMVd2aXIvZ2xMOFV2RS93QWFQZ240OThaZU10VC9BTFo4U2FsNHptKzEzdjJlS0R6UEwwelRvaytTSlZRWVNOQndvempKNUpOZmF0QUJSUlJRQVVVVVVBRkZGRkFCWGxIN1BuL0pBL2hyL3dCaXpwdi9BS1N4MTZ2WDR1K0h2MjFQak40VjBEVE5GMHZ4bDlsMHpUYmFLenRZUDdMc244dUdOQWlMdWFFc2NLb0dTU1RqazFNb09hMERtNVQ5aXFLL0lYL2h2TDQ2ZjlEei93Q1Vpdy8rTVVmOE41ZkhUL29lZi9LUllmOEF4aW85aElmT2o5ZXFLL0lYL2h2TDQ2ZjlEei81U0xEL0FPTVVmOE41ZkhUL0FLSG4vd0FwRmgvOFlvOWhJT2RINjlVVitRdi9BQTNsOGRQK2g1LzhwRmgvOFlvLzRieStPbi9ROC84QWxJc1AvakZIc0pCem8vWHFpdnlGL3dDRzh2anAvd0JEei81U0xELzR4Ui93M2w4ZFAraDUvd0RLUllmL0FCaWoyRWc1MGZyMVJYNUMvd0REZVh4MC93Q2g1LzhBS1JZZi9HS1ArRzh2anAvMFBQOEE1U0xEL3dDTVVld2tIT2o5ZXFLL0lYL2h2TDQ2ZjlEei93Q1Vpdy8rTVVmOE41ZkhUL29lZi9LUllmOEF4aWoyRWc1MGZyMVJYNUMvOE41ZkhUL29lZjhBeWtXSC93QVlvLzRieStPbi9ROC8rVWl3L3dEakZIc0pCem8vWHFpdnlGLzRieStPbi9ROC93RGxJc1AvQUl4Ui93QU41ZkhUL29lZi9LUllmL0dLUFlTRG5SK3ZWRmZrTC93M2w4ZFAraDUvOHBGaC93REdLUDhBaHZMNDZmOEFROC8rVWl3LytNVWV3a0hPajllcUsvSVgvaHZMNDZmOUR6LzVTTEQvQU9NVWY4TjVmSFQvQUtIbi93QXBGaC84WW85aElPZEg2OVVWK1F2L0FBM2w4ZFAraDUvOHBGaC84WW8vNGJ5K09uL1E4LzhBbElzUC9qRkhzSkJ6by9YcWl2eUYvd0NHOHZqcC93QkR6LzVTTEQvNHhSL3czbDhkUCtoNS93REtSWWYvQUJpajJFZzUwZnFoK3pyL0FNbSsvREgvQUxGZlMvOEEwa2lyMEt2UGYyZGYrVGZmaGovMksrbC8ra2tWZWhWcUlLS0tLQUNpaWlnQW9vb29BSzhvK08zL0FDR2ZoYi8yTkVuL0FLWjlTcjFldmxYL0FJS0xlTnRhK0hmd2s4SmVJZkQxNS9aK3NXZmlpTHlMbnlrbDJiN0c5UnZsZFNweXJNT1IzclNuTGxuR1Q2TXpxTG1nMGoxZWl2eXgvd0NHMXZqUC93QkRsLzVTN0wvNHpSL3cydDhaL3dEb2N2OEF5bDJYL3dBWnIyL3JsUHN6eVBxays2UDFPb3I4c2Y4QWh0YjR6LzhBUTVmK1V1eS8rTTBmOE5yZkdmOEE2SEwvQU1wZGwvOEFHYVBybFBzdytxVDdvL1U2aXZ5eC93Q0cxdmpQL3dCRGwvNVM3TC80elIvdzJ0OFovd0RvY3Y4QXlsMlgvd0Fabyt1VSt6RDZwUHVqOVRxSy9MSC9BSWJXK00vL0FFT1gvbExzdi9qTkgvRGEzeG4vQU9oeS93REtYWmYvQUJtajY1VDdNUHFrKzZQMU9vcjhzZjhBaHRiNHovOEFRNWYrVXV5LytNMGY4TnJmR2Y4QTZITC9BTXBkbC84QUdhUHJsUHN3K3FUN28vVTZpdnl4L3dDRzF2alAvd0JEbC81UzdMLzR6Ui93MnQ4Wi93RG9jdjhBeWwyWC93QVpvK3VVK3pENnBQdWo5VHFLL0xIL0FJYlcrTS8vQUVPWC9sTHN2L2pOSC9EYTN4bi9BT2h5L3dES1haZi9BQm1qNjVUN01QcWsrNlAxT29yOHNmOEFodGI0ei84QVE1ZitVdXkvK00wZjhOcmZHZjhBNkhML0FNcGRsLzhBR2FQcmxQc3crcVQ3by9VNml2eXgvd0NHMXZqUC93QkRsLzVTN0wvNHpSL3cydDhaL3dEb2N2OEF5bDJYL3dBWm8rdVUrekQ2cFB1ajlUcUsvTEgvQUliVytNLy9BRU9YL2xMc3Yvak5IL0RhM3huL0FPaHkvd0RLWFpmL0FCbWo2NVQ3TVBxays2UDFPb3I4c2Y4QWh0YjR6LzhBUTVmK1V1eS8rTTBmOE5yZkdmOEE2SEwvQU1wZGwvOEFHYVBybFBzdytxVDdvL1U2aXZ5eC93Q0cxdmpQL3dCRGwvNVM3TC80elIvdzJ0OFovd0RvY3Y4QXlsMlgvd0Fabyt1VSt6RDZwUHVqOUs5YS93Q1NsZkNqL3NZYmovMHo2bFh1MWZseCt5UCswTjhRUGkxKzA1OFBkSThWNi84QTJycDBOeGUzY2NQMkszaHhLTk91MURaampVL2RkaGpPT2ZwWDZqMTVXSnFLcFU1a2VsaDZicHc1V2YvWiIgaGVpZ2h0PSI1NzEiIHdpZHRoPSIxMDAzIi8+PGNsaXBQYXRoIGlkPSJjbGlwMiI+PHJlY3QgaGVpZ2h0PSIzMzc4MjMxIiB3aWR0aD0iNTk0MzYwMCIgeT0iMjcwNi45MiIgeD0iMCIvPjwvY2xpcFBhdGg+PC9kZWZzPjxnPjxnIHRyYW5zZm9ybT0ic2NhbGUoMC4wMDAxMDQ5ODcgMC4wMDAxMDQ5ODcpIiBjbGlwLXBhdGg9InVybCgjY2xpcDApIj48ZyB0cmFuc2Zvcm09Im1hdHJpeCgxIDAgMCAxLjAwMDkzIDAgLTI3MDkuNDQpIiBjbGlwLXBhdGg9InVybCgjY2xpcDIpIj48dXNlIHRyYW5zZm9ybT0ic2NhbGUoNTkyNS44MiA1OTI1LjgyKSIgeGxpbms6aHJlZj0iI2ltZzEiIGhlaWdodD0iMTAwJSIgd2lkdGg9IjEwMCUiLz48L2c+PC9nPjwvZz48L3N2Zz4=;" vertex="1" parent="1">
          <mxGeometry x="100" y="210" width="624" height="356" as="geometry" />
        </mxCell>
        <mxCell id="O1VS4Q4OuIzS3x07TCWk-2" value="" style="rounded=0;whiteSpace=wrap;html=1;fillColor=#dae8fc;strokeColor=#6c8ebf;" vertex="1" parent="1">
          <mxGeometry x="595" y="210" width="125" height="40" as="geometry" />
        </mxCell>
        <mxCell id="O1VS4Q4OuIzS3x07TCWk-3" value="&lt;font style=&quot;font-size: 9px;&quot;&gt;Rider Assignment Algo&lt;/font&gt;" style="text;html=1;align=center;verticalAlign=middle;whiteSpace=wrap;rounded=0;" vertex="1" parent="1">
          <mxGeometry x="611" y="215" width="100" height="30" as="geometry" />
        </mxCell>
        <mxCell id="O1VS4Q4OuIzS3x07TCWk-8" value="" style="group" vertex="1" connectable="0" parent="1">
          <mxGeometry x="595" y="402" width="125" height="40" as="geometry" />
        </mxCell>
        <mxCell id="O1VS4Q4OuIzS3x07TCWk-9" value="" style="rounded=0;whiteSpace=wrap;html=1;fillColor=#dae8fc;strokeColor=#6c8ebf;" vertex="1" parent="O1VS4Q4OuIzS3x07TCWk-8">
          <mxGeometry width="125" height="40" as="geometry" />
        </mxCell>
        <mxCell id="O1VS4Q4OuIzS3x07TCWk-10" value="&lt;font style=&quot;font-size: 9px;&quot;&gt;Order Consumer&lt;/font&gt;" style="text;html=1;align=center;verticalAlign=middle;whiteSpace=wrap;rounded=0;" vertex="1" parent="O1VS4Q4OuIzS3x07TCWk-8">
          <mxGeometry x="14" y="5" width="100" height="30" as="geometry" />
        </mxCell>
        <mxCell id="O1VS4Q4OuIzS3x07TCWk-11" value="" style="group" vertex="1" connectable="0" parent="1">
          <mxGeometry x="596" y="466" width="125" height="40" as="geometry" />
        </mxCell>
        <mxCell id="O1VS4Q4OuIzS3x07TCWk-12" value="" style="rounded=0;whiteSpace=wrap;html=1;fillColor=#dae8fc;strokeColor=#6c8ebf;" vertex="1" parent="O1VS4Q4OuIzS3x07TCWk-11">
          <mxGeometry width="125" height="40" as="geometry" />
        </mxCell>
        <mxCell id="O1VS4Q4OuIzS3x07TCWk-13" value="&lt;font style=&quot;font-size: 9px;&quot;&gt;Order Service&lt;/font&gt;" style="text;html=1;align=center;verticalAlign=middle;whiteSpace=wrap;rounded=0;" vertex="1" parent="O1VS4Q4OuIzS3x07TCWk-11">
          <mxGeometry x="14" y="5" width="100" height="30" as="geometry" />
        </mxCell>
      </root>
    </mxGraphModel>
  </diagram>
</mxfile>
